<svg xmlns="http://www.w3.org/2000/svg" width="48" height="48"><path d="M8.407 44.522c0 .932.947 1.92 1.84 1.92h29.351c.893 0 1.84-.988 1.84-1.92" fill="none" stroke="#616161" opacity=".25" stroke-width=".68812"/><g transform="matrix(1.3 0 0 1.3 10.4 11.7)">    <path d="M18 18.997L13.316 19l-3.192-4.807s-.514-.901-.83-1.162c-.263-.218-.376-.296-.636-.296h-.593l.001 6.259L4 18.995V3h8.853s3.588.674 3.66 4.296c.082 4.037-3.467 5.224-3.467 5.224.487.203 4.401 5.541 4.954 6.474M10.98 6.469l-2.874-.001v2.72l2.875-.001s1.332-.004 1.332-1.383c0-1.407-1.332-1.334-1.332-1.334" fill="#00BFFE" fill-rule="evenodd"/>
</g><g fill="none" stroke="#616161"><path d="M8.367 43.963c0 .933.946 1.92 1.838 1.92h29.353c.892 0 1.838-.987 1.838-1.92m0 0V14.23L29.01 1.843l-18.805.001c-.946 0-1.838.933-1.838 1.92v40.2" stroke-width=".68812"/><path d="M29.01 1.844L41.385 14.23H30.907c-.927 0-1.898-.981-1.898-1.908zm0 0" stroke-linecap="round" stroke-linejoin="round" stroke-width=".68812"/></g></svg>