<svg xmlns="http://www.w3.org/2000/svg" width="48" height="48"><path d="M8.407 44.522c0 .932.947 1.92 1.84 1.92h29.351c.893 0 1.84-.988 1.84-1.92" fill="none" stroke="#616161" opacity=".25" stroke-width=".68812"/><g transform="matrix(1.3 0 0 1.3 10.4 11.7)">    <path style="isolation:auto;mix-blend-mode:normal;solid-color:#7f8080;solid-opacity:1;filter-blend-mode:normal;filter-gaussianBlur-deviation:0" d="M17.406 3c-1.168.017-5.962.505-7.88 7.232-1.74 6.097-5.178 5.533-5.182 5.536 0 0-.346-.025-.344-.028V19l.346-.002c.18-.036 5.405.608 7.76-6.365h4.228V9.414h-2.838s.822-3.133 4.17-3.19c0 0 .34-.004.334-.005V3h-.344v.006c-.006 0-.09-.008-.25-.006z" fill="#FE003F" color="#7F8080" overflow="visible"/>
</g><g fill="none" stroke="#616161"><path d="M8.367 43.963c0 .933.946 1.92 1.838 1.92h29.353c.892 0 1.838-.987 1.838-1.92m0 0V14.23L29.01 1.843l-18.805.001c-.946 0-1.838.933-1.838 1.92v40.2" stroke-width=".68812"/><path d="M29.01 1.844L41.385 14.23H30.907c-.927 0-1.898-.981-1.898-1.908zm0 0" stroke-linecap="round" stroke-linejoin="round" stroke-width=".68812"/></g></svg>