<svg xmlns="http://www.w3.org/2000/svg" width="48" height="48"><path d="M8.407 44.522c0 .932.947 1.92 1.84 1.92h29.351c.893 0 1.84-.988 1.84-1.92" fill="none" stroke="#616161" opacity=".25" stroke-width=".68812"/><g transform="matrix(1.3 0 0 1.3 10.4 11.7)">    <path d="M11 3c-.973 3.405-3.354 6.332-4.404 8.676A4.958 4.958 0 0 0 6 14c0 2.77 2.23 5 5 5s5-2.23 5-5c0-.845-.228-1.627-.596-2.324C14.354 9.332 11.973 6.405 11 3zm2.283 7.717A3.984 3.984 0 0 1 15 14c0 2.216-1.784 4-4 4a3.984 3.984 0 0 1-3.283-1.717c.647.45 1.432.717 2.283.717 2.216 0 4-1.784 4-4 0-.851-.267-1.636-.717-2.283z" fill="#FFBF00"/>
</g><g fill="none" stroke="#616161"><path d="M8.367 43.963c0 .933.946 1.92 1.838 1.92h29.353c.892 0 1.838-.987 1.838-1.92m0 0V14.23L29.01 1.843l-18.805.001c-.946 0-1.838.933-1.838 1.92v40.2" stroke-width=".68812"/><path d="M29.01 1.844L41.385 14.23H30.907c-.927 0-1.898-.981-1.898-1.908zm0 0" stroke-linecap="round" stroke-linejoin="round" stroke-width=".68812"/></g></svg>