<svg xmlns="http://www.w3.org/2000/svg" width="48" height="48"><path d="M8.407 44.522c0 .932.947 1.92 1.84 1.92h29.351c.893 0 1.84-.988 1.84-1.92" fill="none" stroke="#616161" opacity=".25" stroke-width=".68812"/><g transform="matrix(1.3 0 0 1.3 10.4 11.7)">    <path d="M4 3c-.554 0-1 .446-1 1v14c0 .554.446 1 1 1h11c.554 0 1-.446 1-1v-1h2c.554 0 1-.446 1-1v-3a.975.975 0 0 0-.152-.5A.975.975 0 0 0 19 12V9a.975.975 0 0 0-.152-.5A.975.975 0 0 0 19 8V5c0-.554-.446-1-1-1h-2c0-.554-.446-1-1-1H4zm0 1h11v14H4V4zm1 1v3h9V5H5zm11 0h2v3h-2V5zm0 4h2v3h-2V9zM5 10v1h9v-1H5zm0 2v1h9v-1H5zm11 1h2v3h-2v-3zM5 14v1h9v-1H5zm0 2v1h9v-1H5z" fill="#FE00BF"/>
</g><g fill="none" stroke="#616161"><path d="M8.367 43.963c0 .933.946 1.92 1.838 1.92h29.353c.892 0 1.838-.987 1.838-1.92m0 0V14.23L29.01 1.843l-18.805.001c-.946 0-1.838.933-1.838 1.92v40.2" stroke-width=".68812"/><path d="M29.01 1.844L41.385 14.23H30.907c-.927 0-1.898-.981-1.898-1.908zm0 0" stroke-linecap="round" stroke-linejoin="round" stroke-width=".68812"/></g></svg>