<svg xmlns="http://www.w3.org/2000/svg" width="48" height="48"><path d="M8.407 44.522c0 .932.947 1.92 1.84 1.92h29.351c.893 0 1.84-.988 1.84-1.92" fill="none" stroke="#616161" opacity=".25" stroke-width=".68812"/><g transform="matrix(1.3 0 0 1.3 10.4 11.7)">    <path style="isolation:auto;mix-blend-mode:normal;solid-color:#7f8080;solid-opacity:1" d="M2 3c-.554 0-1 .446-1 1v14c0 .554.446 1 1 1h18c.554 0 1-.446 1-1V4c0-.554-.446-1-1-1zm1 1h16l-8 7.567zm-1 .455l6.143 5.863L2 16.184zm18 0v11.727l-6.143-5.864zM8.918 11.05L11 13.045l2.038-1.931L20 17.51V18H2v-.549z" color="#7F8080" overflow="visible" fill="#007FFF"/>
</g><g fill="none" stroke="#616161"><path d="M8.367 43.963c0 .933.946 1.92 1.838 1.92h29.353c.892 0 1.838-.987 1.838-1.92m0 0V14.23L29.01 1.843l-18.805.001c-.946 0-1.838.933-1.838 1.92v40.2" stroke-width=".68812"/><path d="M29.01 1.844L41.385 14.23H30.907c-.927 0-1.898-.981-1.898-1.908zm0 0" stroke-linecap="round" stroke-linejoin="round" stroke-width=".68812"/></g></svg>