<svg xmlns="http://www.w3.org/2000/svg" width="48" height="48"><path d="M8.407 44.522c0 .932.947 1.92 1.84 1.92h29.351c.893 0 1.84-.988 1.84-1.92" fill="none" stroke="#616161" opacity=".25" stroke-width=".68812"/><g transform="matrix(1.3 0 0 1.3 10.4 11.7)">    <path d="M16.627 6.297l-3.955.65c.057 2.46-2.565 4.17-5.025-.465l-4.653.652c.724 2.505 3.324 2.814 5.059 4.132-.868 1.236-4.807.491-4.701 4.349l3.955-.652c-.057-2.46 4.507-4.53 6.967.103l4.653-.651c-.726-2.512-3.49-2.75-5.223-4.076.86-1.796 3.702-.181 2.923-4.042z" fill="#FE003F"/>
</g><g fill="none" stroke="#616161"><path d="M8.367 43.963c0 .933.946 1.92 1.838 1.92h29.353c.892 0 1.838-.987 1.838-1.92m0 0V14.23L29.01 1.843l-18.805.001c-.946 0-1.838.933-1.838 1.92v40.2" stroke-width=".68812"/><path d="M29.01 1.844L41.385 14.23H30.907c-.927 0-1.898-.981-1.898-1.908zm0 0" stroke-linecap="round" stroke-linejoin="round" stroke-width=".68812"/></g></svg>