<svg xmlns="http://www.w3.org/2000/svg" width="48" height="48"><path d="M8.407 44.522c0 .932.947 1.92 1.84 1.92h29.351c.893 0 1.84-.988 1.84-1.92" fill="none" stroke="#616161" opacity=".25" stroke-width=".68812"/><g transform="matrix(1.3 0 0 1.3 10.4 11.7)">    <path d="M5.532 14.569c-.17.306-.306.768-.306 1.058 0 .068 0 .154.016.273L3.11 12.23a.952.952 0 0 1-.12-.444c0-.154.051-.341.12-.46l1.024-1.792-1.143-.649 3.72-.068 1.81 3.26-1.16-.666-1.828 3.158M7.171 4.226a1.667 1.667 0 0 1 1.502-.871c.7 0 1.246.325 1.638.99l.581.972L8.878 8.8l-3.26-1.895 1.553-2.68m.238 13.296a1.784 1.784 0 0 1-1.775-1.775c0-.273.12-.735.291-1.024l.546-.973h4.046v3.772H7.409m3.244-13.399c-.256-.443-.597-.75-1.007-.922h4.199c.375 0 .665.154.836.445l1.041 1.775 1.127-.666-1.81 3.243-3.703-.052 1.143-.648-1.826-3.175m6.47 9.66c.511 0 .938-.136 1.296-.408l-2.117 3.686a.945.945 0 0 1-.835.46h-1.998v1.315l-1.911-3.192 1.911-3.192v1.332h3.654m1.637-3.073c.154.273.24.563.24.87 0 .615-.393 1.264-.939 1.57a2.146 2.146 0 0 1-.972.224H15.96L13.948 9.89l3.26-1.86 1.552 2.68" fill="#7F8080"/>
</g><g fill="none" stroke="#616161"><path d="M8.367 43.963c0 .933.946 1.92 1.838 1.92h29.353c.892 0 1.838-.987 1.838-1.92m0 0V14.23L29.01 1.843l-18.805.001c-.946 0-1.838.933-1.838 1.92v40.2" stroke-width=".68812"/><path d="M29.01 1.844L41.385 14.23H30.907c-.927 0-1.898-.981-1.898-1.908zm0 0" stroke-linecap="round" stroke-linejoin="round" stroke-width=".68812"/></g></svg>