<svg xmlns="http://www.w3.org/2000/svg" width="48" height="48"><path d="M8.407 44.522c0 .932.947 1.92 1.84 1.92h29.351c.893 0 1.84-.988 1.84-1.92" fill="none" stroke="#616161" opacity=".25" stroke-width=".68812"/><g transform="matrix(1.3 0 0 1.3 10.4 11.7)">    <path d="M3.124 3.001c-.04 0-.07 0-.09.023-.64.604 8.088 8.187 8.088 8.187l3.27 2.945c-1.054 2.328 2.251 2.366 2.964 3.547.314.517-.068 1.22-.637 1.257 1.132.353 2.656-1.704 2.197-2.865-.546-1.386-1.101-1.987-2.14-2.408-.43-.175-1.522-.189-1.903.015l-3.03-3.171S4.363 3.102 3.124 3m1.379 7.362c-.29 0-.379.397-.379.94.055 1.072.772 4.202 4.333 6.482 2.999 1.92 8.486 1.226 8.397.136-1.207-1.418-3.225-.534-3.252-3.93-1.173.013-2.437-.165-2.39.303.197 1.959-3.084.547-4.356-1.45-1.277-1.832-1.981-2.481-2.353-2.48m4.676 2.416c-.195 0-.351.06-.426.182-.148.242.092.637.538.88.445.244.926.244 1.074.002.148-.243-.093-.638-.538-.88-.223-.121-.648.001-.648-.183" fill="#7F8080"/>
</g><g fill="none" stroke="#616161"><path d="M8.367 43.963c0 .933.946 1.92 1.838 1.92h29.353c.892 0 1.838-.987 1.838-1.92m0 0V14.23L29.01 1.843l-18.805.001c-.946 0-1.838.933-1.838 1.92v40.2" stroke-width=".68812"/><path d="M29.01 1.844L41.385 14.23H30.907c-.927 0-1.898-.981-1.898-1.908zm0 0" stroke-linecap="round" stroke-linejoin="round" stroke-width=".68812"/></g></svg>