<svg xmlns="http://www.w3.org/2000/svg" width="48" height="48"><path d="M8.407 44.522c0 .932.947 1.92 1.84 1.92h29.351c.893 0 1.84-.988 1.84-1.92" fill="none" stroke="#616161" opacity=".25" stroke-width=".68812"/><g transform="matrix(1.3 0 0 1.3 10.4 11.7)">    <path d="M11 3C6.582 3 3 4.194 3 5.667v10.666C3 17.806 6.582 19 11 19s8-1.194 8-2.667V5.667C19 4.194 15.418 3 11 3m-.023.984c3.682 0 6.69.946 6.69 1.683C17.667 6.403 14.682 7 11 7s-6.667-.597-6.667-1.333c0-.737 2.962-1.66 6.644-1.66M4.054 6.996c1.478.746 4.238 1.243 6.923 1.244 2.683 0 5.559-.38 7.04-1.125v3.861c0 .736-3.358 1.566-7.04 1.566s-6.923-.946-6.923-1.682zm0 5.38c1.478.746 4.262 1.29 6.946 1.29 2.683 0 5.56-.449 7.04-1.195v3.862c0 .736-3.405 1.636-7.087 1.636s-6.9-.993-6.9-1.73z" fill="#FE3F00"/>
</g><g fill="none" stroke="#616161"><path d="M8.367 43.963c0 .933.946 1.92 1.838 1.92h29.353c.892 0 1.838-.987 1.838-1.92m0 0V14.23L29.01 1.843l-18.805.001c-.946 0-1.838.933-1.838 1.92v40.2" stroke-width=".68812"/><path d="M29.01 1.844L41.385 14.23H30.907c-.927 0-1.898-.981-1.898-1.908zm0 0" stroke-linecap="round" stroke-linejoin="round" stroke-width=".68812"/></g></svg>