<svg xmlns="http://www.w3.org/2000/svg" width="48" height="48"><path d="M8.407 44.522c0 .932.947 1.92 1.84 1.92h29.351c.893 0 1.84-.988 1.84-1.92" fill="none" stroke="#616161" opacity=".25" stroke-width=".68812"/><g transform="matrix(1.3 0 0 1.3 10.4 11.7)">    <g transform="translate(-326 -534.362)" fill="#FF7F00">
        <path d="M336.492 537.362a.5.5 0 0 0-.346.147.5.5 0 0 0 0 .707l4.217 4.217a5.5 5.5 0 0 0-.863-.07h-10a.5.5 0 0 0-.5.5.5.5 0 0 0 .5.5h6.844a5.5 5.5 0 0 0-1.203 1.153l-5.995 5.993a.5.5 0 0 0 0 .707.5.5 0 0 0 .708 0L334.07 547a5.5 5.5 0 0 0-.07.861 5.5 5.5 0 0 0 5.5 5.5 5.5 5.5 0 0 0 5.5-5.5 5.5 5.5 0 0 0-2.158-4.363l-5.988-5.99a.5.5 0 0 0-.362-.147zm3.008 6a4.5 4.5 0 0 1 4.5 4.5 4.5 4.5 0 0 1-4.5 4.5 4.5 4.5 0 0 1-4.5-4.5 4.5 4.5 0 0 1 4.5-4.5z"/>
        <circle cx="339.5" cy="547.862" r="1.5"/>
    </g>
</g><g fill="none" stroke="#616161"><path d="M8.367 43.963c0 .933.946 1.92 1.838 1.92h29.353c.892 0 1.838-.987 1.838-1.92m0 0V14.23L29.01 1.843l-18.805.001c-.946 0-1.838.933-1.838 1.92v40.2" stroke-width=".68812"/><path d="M29.01 1.844L41.385 14.23H30.907c-.927 0-1.898-.981-1.898-1.908zm0 0" stroke-linecap="round" stroke-linejoin="round" stroke-width=".68812"/></g></svg>