<svg xmlns="http://www.w3.org/2000/svg" width="48" height="48"><path d="M8.407 44.522c0 .932.947 1.92 1.84 1.92h29.351c.893 0 1.84-.988 1.84-1.92" fill="none" stroke="#616161" opacity=".25" stroke-width=".68812"/><g transform="matrix(1.3 0 0 1.3 10.4 11.7)">    <path d="M4.334 3C3.595 3 3 3.595 3 4.334v13.332C3 18.405 3.595 19 4.334 19h13.332c.739 0 1.334-.595 1.334-1.334V4.334C19 3.595 18.405 3 17.666 3H4.334zM4 4h14v14H4V4zm1 1v1h3V5H5zm4 0v1h4V5H9zm5 0v1h3V5h-3zM5 7v1h3V7H5zm4 0v1h4V7H9zm5 0v1h3V7h-3zM5 9v1h3V9H5zm4 0v1h4V9H9zm5 0v1h3V9h-3zm-9 2v1h3v-1H5zm4 0v1h4v-1H9zm5 0v1h3v-1h-3zm-9 2v1h3v-1H5zm4 0v1h4v-1H9zm5 0v1h3v-1h-3zm-9 2v1h3v-1H5zm4 0v1h4v-1H9zm5 0v1h3v-1h-3z" color="#7F8080" fill="#00FEBF"/>
</g><g fill="none" stroke="#616161"><path d="M8.367 43.963c0 .933.946 1.92 1.838 1.92h29.353c.892 0 1.838-.987 1.838-1.92m0 0V14.23L29.01 1.843l-18.805.001c-.946 0-1.838.933-1.838 1.92v40.2" stroke-width=".68812"/><path d="M29.01 1.844L41.385 14.23H30.907c-.927 0-1.898-.981-1.898-1.908zm0 0" stroke-linecap="round" stroke-linejoin="round" stroke-width=".68812"/></g></svg>