<svg xmlns="http://www.w3.org/2000/svg" width="48" height="48"><path d="M8.407 44.522c0 .932.947 1.92 1.84 1.92h29.351c.893 0 1.84-.988 1.84-1.92" fill="none" stroke="#616161" opacity=".25" stroke-width=".68812"/><g transform="matrix(1.3 0 0 1.3 10.4 11.7)">    <path d="M12.17 13.636l-1.964-1.94.023-.023a13.544 13.544 0 0 0 2.869-5.048h2.265V5.078H9.95V3.532H8.405v1.546H2.993v1.539h8.636a12.147 12.147 0 0 1-2.451 4.144 12.095 12.095 0 0 1-1.786-2.59H5.846a13.577 13.577 0 0 0 2.304 3.525l-3.935 3.88 1.098 1.099 3.865-3.866 2.404 2.405.588-1.578zm4.352-3.92h-1.546l-3.479 9.278h1.546l.866-2.32h3.672l.874 2.32h1.546l-3.479-9.277zm-2.025 5.412l1.252-3.347 1.253 3.347h-2.505z" fill="#7F8080"/>
</g><g fill="none" stroke="#616161"><path d="M8.367 43.963c0 .933.946 1.92 1.838 1.92h29.353c.892 0 1.838-.987 1.838-1.92m0 0V14.23L29.01 1.843l-18.805.001c-.946 0-1.838.933-1.838 1.92v40.2" stroke-width=".68812"/><path d="M29.01 1.844L41.385 14.23H30.907c-.927 0-1.898-.981-1.898-1.908zm0 0" stroke-linecap="round" stroke-linejoin="round" stroke-width=".68812"/></g></svg>