<svg xmlns="http://www.w3.org/2000/svg" width="48" height="48"><path d="M8.407 44.522c0 .932.947 1.92 1.84 1.92h29.351c.893 0 1.84-.988 1.84-1.92" fill="none" stroke="#616161" opacity=".25" stroke-width=".68812"/><g transform="matrix(1.3 0 0 1.3 10.4 11.7)">    <path style="isolation:auto;mix-blend-mode:normal;solid-color:#7f8080;solid-opacity:1;marker:none" d="M6 3v3h1v3.057A2.5 2.5 0 0 0 5 11.5a2.5 2.5 0 0 0 2 2.445V17H6v3h3v-3H8v-1.82A10 8.5 0 0 0 17 20a10 8.5 0 0 0 1-.043v-1.014A9 7.5 0 0 1 17 19a9 7.5 0 0 1-8.553-5.195A2.497 2.497 0 0 0 10 11.5a2.498 2.498 0 0 0-1.557-2.31A9 7.5 0 0 1 17 4a9 7.5 0 0 1 1 .05v-1A10 8.5 0 0 0 17 3a10 8.5 0 0 0-9 4.81V6h1V3H6zm1 1h1v1H7V4zm.5 6a1.5 1.5 0 0 1 1.264.695 1.5 1.5 0 0 1 .172.375l.002.004a1.5 1.5 0 0 1 0 .004A1.5 1.5 0 0 1 9 11.5a1.5 1.5 0 0 1-.063.428 1.5 1.5 0 0 1-.171.375l-.002.004a1.5 1.5 0 0 1-.002.002 1.5 1.5 0 0 1-.268.31A1.5 1.5 0 0 1 7.5 13a1.5 1.5 0 0 1-1.17-.563 1.5 1.5 0 0 1-.238-.425l-.006-.016A1.5 1.5 0 0 1 6 11.5a1.5 1.5 0 0 1 .084-.49l.01-.026a1.5 1.5 0 0 1 .232-.414v-.002A1.5 1.5 0 0 1 7.5 10zM7 18h1v1H7v-1z" color="#7F8080" overflow="visible" fill="#FFBF00"/>
</g><g fill="none" stroke="#616161"><path d="M8.367 43.963c0 .933.946 1.92 1.838 1.92h29.353c.892 0 1.838-.987 1.838-1.92m0 0V14.23L29.01 1.843l-18.805.001c-.946 0-1.838.933-1.838 1.92v40.2" stroke-width=".68812"/><path d="M29.01 1.844L41.385 14.23H30.907c-.927 0-1.898-.981-1.898-1.908zm0 0" stroke-linecap="round" stroke-linejoin="round" stroke-width=".68812"/></g></svg>