<svg xmlns="http://www.w3.org/2000/svg" width="48" height="48"><path d="M8.407 44.522c0 .932.947 1.92 1.84 1.92h29.351c.893 0 1.84-.988 1.84-1.92" fill="none" stroke="#616161" opacity=".25" stroke-width=".68812"/><g transform="matrix(1.3 0 0 1.3 10.4 11.7)">    <g transform="translate(-326 -534.362)" fill="#7F8080" stroke-width="2">
        <path d="M331 537.362v16h15v-16h-15zm1 1h13v14h-13v-14z"/>
        <rect width="5" x="333" y="543.362" rx="0" height="5"/>
        <rect width="11" x="333" y="550.362" rx="0" height="1"/>
        <rect width="5" x="339" y="547.362" rx="0" height="1"/>
        <rect width="5" x="339" y="543.362" rx="0" height="1"/>
        <rect width="11" x="333" y="540.362" rx="0" height="1"/>
        <rect width="1" x="328" y="541.362" rx="0" height="9"/>
        <rect width="2" x="329" y="541.362" rx="0" height="1"/>
        <path d="M328 550.362a3 3 0 0 0 3 3v-1a2 2 0 0 1-2-2h-1z"/>
    </g>
</g><g fill="none" stroke="#616161"><path d="M8.367 43.963c0 .933.946 1.92 1.838 1.92h29.353c.892 0 1.838-.987 1.838-1.92m0 0V14.23L29.01 1.843l-18.805.001c-.946 0-1.838.933-1.838 1.92v40.2" stroke-width=".68812"/><path d="M29.01 1.844L41.385 14.23H30.907c-.927 0-1.898-.981-1.898-1.908zm0 0" stroke-linecap="round" stroke-linejoin="round" stroke-width=".68812"/></g></svg>