<svg xmlns="http://www.w3.org/2000/svg" width="48" height="48"><path d="M8.407 44.522c0 .932.947 1.92 1.84 1.92h29.351c.893 0 1.84-.988 1.84-1.92" fill="none" stroke="#616161" opacity=".25" stroke-width=".68812"/><g transform="matrix(1.3 0 0 1.3 10.4 11.7)">    <path d="M6.5 3A1.5 1.5 0 0 0 5 4.5a1.5 1.5 0 0 0 1 1.412V15a2 2 0 0 0 2 2h1v2l3-2.5L9 14v2H8a1 1 0 0 1-1-1V5.912A1.5 1.5 0 0 0 8 4.5 1.5 1.5 0 0 0 6.5 3zm0 1a.5.5 0 0 1 .5.5.5.5 0 0 1-.5.5.5.5 0 0 1-.5-.5.5.5 0 0 1 .5-.5zm9 15a1.5 1.5 0 0 0 1.5-1.5 1.5 1.5 0 0 0-1-1.412V7a2 2 0 0 0-2-2h-1V3l-3 2.5L13 8V6h1a1 1 0 0 1 1 1v9.088a1.5 1.5 0 0 0-1 1.412 1.5 1.5 0 0 0 1.5 1.5zm0-1a.5.5 0 0 1-.5-.5.5.5 0 0 1 .5-.5.5.5 0 0 1 .5.5.5.5 0 0 1-.5.5z" fill="#7F8080"/>
</g><g fill="none" stroke="#616161"><path d="M8.367 43.963c0 .933.946 1.92 1.838 1.92h29.353c.892 0 1.838-.987 1.838-1.92m0 0V14.23L29.01 1.843l-18.805.001c-.946 0-1.838.933-1.838 1.92v40.2" stroke-width=".68812"/><path d="M29.01 1.844L41.385 14.23H30.907c-.927 0-1.898-.981-1.898-1.908zm0 0" stroke-linecap="round" stroke-linejoin="round" stroke-width=".68812"/></g></svg>