<svg xmlns="http://www.w3.org/2000/svg" width="48" height="48"><path d="M8.407 44.522c0 .932.947 1.92 1.84 1.92h29.351c.893 0 1.84-.988 1.84-1.92" fill="none" stroke="#616161" opacity=".25" stroke-width=".68812"/><g transform="matrix(1.3 0 0 1.3 10.4 11.7)">    <path d="M18.272 18.997L13.406 19l-3.316-4.807s-.534-.901-.862-1.162c-.274-.218-.39-.296-.662-.296h-.615v6.259l-4.223.001V3h9.197s3.727.674 3.803 4.296c.085 4.037-3.602 5.224-3.602 5.224.505.203 4.572 5.541 5.146 6.474M10.98 6.469l-2.986-.001-.001 2.72 2.988-.001s1.384-.004 1.384-1.383c0-1.407-1.384-1.334-1.384-1.334" fill="#00BFFE" fill-rule="evenodd"/>
</g><g fill="none" stroke="#616161"><path d="M8.367 43.963c0 .933.946 1.92 1.838 1.92h29.353c.892 0 1.838-.987 1.838-1.92m0 0V14.23L29.01 1.843l-18.805.001c-.946 0-1.838.933-1.838 1.92v40.2" stroke-width=".68812"/><path d="M29.01 1.844L41.385 14.23H30.907c-.927 0-1.898-.981-1.898-1.908zm0 0" stroke-linecap="round" stroke-linejoin="round" stroke-width=".68812"/></g></svg>