<svg xmlns="http://www.w3.org/2000/svg" width="48" height="48"><path d="M8.407 44.522c0 .932.947 1.92 1.84 1.92h29.351c.893 0 1.84-.988 1.84-1.92" fill="none" stroke="#616161" opacity=".25" stroke-width=".68812"/><g transform="matrix(1.3 0 0 1.3 10.4 11.7)">    <path style="isolation:auto;mix-blend-mode:normal;solid-color:#7f8080;solid-opacity:1;marker:none" d="M9 5v2h2V5zm3 0v2h2V5zm4.684 2.674c-.637.436-.789 1.225-.59 1.97.2.745.707 1.282 1.476 1.342a1.822 1.822 0 0 0 1.715 1.215A1.822 1.822 0 0 0 21 10.986a1.82 1.82 0 0 0-1.715-1.213 1.82 1.82 0 0 0-1.03.323c.124-.347.139-.725.044-1.08a1.821 1.821 0 0 0-1.615-1.342zm.886 3.312H3c0 4.024 3.262 6.073 7.285 6.073 4.024 0 7.285-2.05 7.285-6.073zM5 8v2h2V8zm3 0v2h2V8zm3 0v2h2V8zm3 0v2h2V8zm-8 4a1 1 0 0 1 1 1 1 1 0 0 1-1 1 1 1 0 0 1-1-1 1 1 0 0 1 1-1z" color="#7F8080" overflow="visible" fill="#00BFFE" stroke-width=".016"/>
</g><g fill="none" stroke="#616161"><path d="M8.367 43.963c0 .933.946 1.92 1.838 1.92h29.353c.892 0 1.838-.987 1.838-1.92m0 0V14.23L29.01 1.843l-18.805.001c-.946 0-1.838.933-1.838 1.92v40.2" stroke-width=".68812"/><path d="M29.01 1.844L41.385 14.23H30.907c-.927 0-1.898-.981-1.898-1.908zm0 0" stroke-linecap="round" stroke-linejoin="round" stroke-width=".68812"/></g></svg>