<svg xmlns="http://www.w3.org/2000/svg" width="48" height="48"><path d="M8.407 44.522c0 .932.947 1.92 1.84 1.92h29.351c.893 0 1.84-.988 1.84-1.92" fill="none" stroke="#616161" opacity=".25" stroke-width=".68812"/><g transform="matrix(1.3 0 0 1.3 10.4 11.7)">    <defs>
        <linearGradient gradientTransform="translate(327.391 535.741) scale(.39877)" xlink:href="#a" id="f" x1="44" x2="4" gradientUnits="userSpaceOnUse"/>
        <linearGradient id="a">
            <stop stop-color="#00FE7F"/>
            <stop offset="1" stop-color="#7FFF00"/>
        </linearGradient>
        <linearGradient gradientTransform="translate(327.391 535.741) scale(.39877)" xlink:href="#b" id="e" y1="4" x1="24" y2="44" x2="4" gradientUnits="userSpaceOnUse"/>
        <linearGradient id="b">
            <stop stop-color="#007FFF"/>
            <stop offset="1" stop-color="#00BFFE"/>
        </linearGradient>
        <linearGradient gradientTransform="translate(327.391 535.741) scale(.39877)" xlink:href="#c" id="d" y1="44" x1="44" y2="4" x2="24" gradientUnits="userSpaceOnUse"/>
        <linearGradient id="c">
            <stop stop-color="#FE003F"/>
            <stop offset="1" stop-color="#FE003F"/>
        </linearGradient>
    </defs>
    <g fill-rule="evenodd">
        <path d="M336.962 537.336l1.171 13.278 6.804 2.673-7.975-15.95z" fill="url(#d)" transform="translate(-326 -534.362)"/>
        <path d="M336.962 537.336l-7.976 15.951 8.692-7.843-.716-8.108z" fill="url(#e)" transform="translate(-326 -534.362)"/>
        <path d="M333.825 548.922l-4.837 4.363 15.95.001-11.113-4.365zM329 553.259l-.028.027h.015l.014-.027z" fill="url(#f)" transform="translate(-326 -534.362)"/>
    </g>
</g><g fill="none" stroke="#616161"><path d="M8.367 43.963c0 .933.946 1.92 1.838 1.92h29.353c.892 0 1.838-.987 1.838-1.92m0 0V14.23L29.01 1.843l-18.805.001c-.946 0-1.838.933-1.838 1.92v40.2" stroke-width=".68812"/><path d="M29.01 1.844L41.385 14.23H30.907c-.927 0-1.898-.981-1.898-1.908zm0 0" stroke-linecap="round" stroke-linejoin="round" stroke-width=".68812"/></g></svg>