<svg xmlns="http://www.w3.org/2000/svg" width="48" height="48"><path d="M8.407 44.522c0 .932.947 1.92 1.84 1.92h29.351c.893 0 1.84-.988 1.84-1.92" fill="none" stroke="#616161" opacity=".25" stroke-width=".68812"/><g transform="matrix(1.3 0 0 1.3 10.4 11.7)">    <path d="M3 3l4 8-4 8h2.236l4-8-4-8H3zm4 0l4 8h-.01l.006.01L7 19h2.236l2.877-5.754L14.99 19h2.237l-3.997-7.99.006-.01-4-8H7zm7.473 6l1 2H19V9h-4.527zm2 4l1 2H19v-2h-2.527z" fill="#7F8080" color="#7F8080" fill-rule="evenodd" stroke-width="4"/>
</g><g fill="none" stroke="#616161"><path d="M8.367 43.963c0 .933.946 1.92 1.838 1.92h29.353c.892 0 1.838-.987 1.838-1.92m0 0V14.23L29.01 1.843l-18.805.001c-.946 0-1.838.933-1.838 1.92v40.2" stroke-width=".68812"/><path d="M29.01 1.844L41.385 14.23H30.907c-.927 0-1.898-.981-1.898-1.908zm0 0" stroke-linecap="round" stroke-linejoin="round" stroke-width=".68812"/></g></svg>