<svg xmlns="http://www.w3.org/2000/svg" width="48" height="48"><path d="M8.407 44.522c0 .932.947 1.92 1.84 1.92h29.351c.893 0 1.84-.988 1.84-1.92" fill="none" stroke="#616161" opacity=".25" stroke-width=".68812"/><g transform="matrix(1.3 0 0 1.3 10.4 11.7)">    <path d="M2 3.002V6h2v10H2v2.982S5.465 19 9 19v-3H6.364v-4l4.573-.027c.273-.002 1.21.424 2.02 1.95.385.842 1.055 2.033 1.39 2.603.394.597 1.138 2.474 1.908 2.474 1.653-.013 2.208-.001 3.745-.001v-3.397c-.228.156-.66.367-.91.398-1.096.007-1.535-.59-1.926-1.367-.6-1.82-1.682-3.323-2.619-4.133 1.161-.81 3.599-.595 3.664-3.616-.06-2.698-1.878-3.88-4.108-3.883L2 3zM6.364 6h5.211c.726 0 1.667.533 1.667 1.534 0 .832-.69 1.466-1.799 1.466h-5.08z" fill="#007FFF"/>
</g><g fill="none" stroke="#616161"><path d="M8.367 43.963c0 .933.946 1.92 1.838 1.92h29.353c.892 0 1.838-.987 1.838-1.92m0 0V14.23L29.01 1.843l-18.805.001c-.946 0-1.838.933-1.838 1.92v40.2" stroke-width=".68812"/><path d="M29.01 1.844L41.385 14.23H30.907c-.927 0-1.898-.981-1.898-1.908zm0 0" stroke-linecap="round" stroke-linejoin="round" stroke-width=".68812"/></g></svg>