<svg xmlns="http://www.w3.org/2000/svg" width="48" height="48"><path d="M8.407 44.522c0 .932.947 1.92 1.84 1.92h29.351c.893 0 1.84-.988 1.84-1.92" fill="none" stroke="#616161" opacity=".25" stroke-width=".68812"/><g transform="matrix(1.3 0 0 1.3 10.4 11.7)">    <path d="M9.667 3A2.66 2.66 0 0 0 7 5.667h4V7H5.667A2.66 2.66 0 0 0 3 9.667v2.666A2.66 2.66 0 0 0 5.667 15v-1.333c0-1.185.52-2.235 1.333-2.966l.003-.003c.176-.158.366-.301.567-.427l.006-.003a3.84 3.84 0 0 1 .627-.317c.04-.016.082-.025.123-.04.186-.067.376-.13.575-.169a4.03 4.03 0 0 1 .766-.075H15v-4A2.66 2.66 0 0 0 12.333 3zm0 .667A.665.665 0 1 1 9 4.334c0-.37.297-.667.667-.667zM16.333 7v1.333a3.98 3.98 0 0 1-1.336 2.97 4.127 4.127 0 0 1-.567.426l-.006.003a3.84 3.84 0 0 1-.627.317c-.04.016-.082.025-.123.04-.186.067-.376.13-.575.169a4.03 4.03 0 0 1-.766.075H7v4A2.66 2.66 0 0 0 9.667 19h2.666A2.66 2.66 0 0 0 15 16.333h-4V15h5.333A2.66 2.66 0 0 0 19 12.333V9.667A2.66 2.66 0 0 0 16.333 7zm-4 10c.37 0 .667.297.667.667s-.297.666-.667.666a.665.665 0 1 1 0-1.333z" fill="#FFBF00"/>
</g><g fill="none" stroke="#616161"><path d="M8.367 43.963c0 .933.946 1.92 1.838 1.92h29.353c.892 0 1.838-.987 1.838-1.92m0 0V14.23L29.01 1.843l-18.805.001c-.946 0-1.838.933-1.838 1.92v40.2" stroke-width=".68812"/><path d="M29.01 1.844L41.385 14.23H30.907c-.927 0-1.898-.981-1.898-1.908zm0 0" stroke-linecap="round" stroke-linejoin="round" stroke-width=".68812"/></g></svg>