<svg xmlns="http://www.w3.org/2000/svg" width="48" height="48"><path d="M8.407 44.522c0 .932.947 1.92 1.84 1.92h29.351c.893 0 1.84-.988 1.84-1.92" fill="none" stroke="#616161" opacity=".25" stroke-width=".68812"/><g transform="matrix(1.3 0 0 1.3 10.4 11.7)">    <path d="M3 3v16h16V3H3zm1 1h14v2H4V4zm0 3h1v2H4V7zm2 0h1v2H6V7zm2 0h1v2H8V7zm2 0h1v2h-1V7zm2 0h1v2h-1V7zm2 0h1v2h-1V7zm2 0h2v1h-2V7zM4 10h14v2H4v-2zm0 3h1v2H4v-2zm2 0h1v2H6v-2zm2 0h1v2H8v-2zm2 0h1v2h-1v-2zm2 0h1v2h-1v-2zm2 0h1v2h-1v-2zm2 0h2v1h-2v-1zM4 16h14v2H4v-2z" fill="#FE003F" stroke-linecap="square" stroke-width="2"/>
</g><g fill="none" stroke="#616161"><path d="M8.367 43.963c0 .933.946 1.92 1.838 1.92h29.353c.892 0 1.838-.987 1.838-1.92m0 0V14.23L29.01 1.843l-18.805.001c-.946 0-1.838.933-1.838 1.92v40.2" stroke-width=".68812"/><path d="M29.01 1.844L41.385 14.23H30.907c-.927 0-1.898-.981-1.898-1.908zm0 0" stroke-linecap="round" stroke-linejoin="round" stroke-width=".68812"/></g></svg>