<svg xmlns="http://www.w3.org/2000/svg" width="48" height="48"><path d="M8.407 44.522c0 .932.947 1.92 1.84 1.92h29.351c.893 0 1.84-.988 1.84-1.92" fill="none" stroke="#616161" opacity=".25" stroke-width=".68812"/><g transform="matrix(1.3 0 0 1.3 10.4 11.7)">    <path d="M3.498 2.996a.5.5 0 0 0-.348.858l1.86 1.859A8 8 0 0 0 3 11v8h16v-8a8 8 0 0 0-1.998-5.28l1.86-1.859A.5.5 0 0 0 18.503 3a.5.5 0 0 0-.35.154l-1.861 1.862A8 8 0 0 0 11 3a8 8 0 0 0-5.285 2.004L3.857 3.146a.5.5 0 0 0-.359-.15zM10.908 4A7 7 0 0 1 11 4a7 7 0 0 1 4.588 1.72 7 7 0 0 1 .703.712A7 7 0 0 1 18 11H4a7 7 0 0 1 1.715-4.582 7 7 0 0 1 .642-.645 7 7 0 0 1 .067-.06A7 7 0 0 1 10.908 4zM8 7a1 1 0 0 0-1 1 1 1 0 0 0 1 1 1 1 0 0 0 1-1 1 1 0 0 0-1-1zm6 0a1 1 0 0 0-1 1 1 1 0 0 0 1 1 1 1 0 0 0 1-1 1 1 0 0 0-1-1zM4 12h6v1h1v-1h7v6H4v-6zm7 1v1h1v-1h-1zm0 1h-1v2h2v-1h-1v-1z" fill="#9bd916"/>
</g><g fill="none" stroke="#616161"><path d="M8.367 43.963c0 .933.946 1.92 1.838 1.92h29.353c.892 0 1.838-.987 1.838-1.92m0 0V14.23L29.01 1.843l-18.805.001c-.946 0-1.838.933-1.838 1.92v40.2" stroke-width=".68812"/><path d="M29.01 1.844L41.385 14.23H30.907c-.927 0-1.898-.981-1.898-1.908zm0 0" stroke-linecap="round" stroke-linejoin="round" stroke-width=".68812"/></g></svg>