<svg xmlns="http://www.w3.org/2000/svg" width="48" height="48"><path d="M8.407 44.522c0 .932.947 1.92 1.84 1.92h29.351c.893 0 1.84-.988 1.84-1.92" fill="none" stroke="#616161" opacity=".25" stroke-width=".68812"/><g transform="matrix(1.3 0 0 1.3 10.4 11.7)">    <path d="M13.108 8.394c.02-.157.034-.317.034-.48 0-.162-.014-.323-.034-.48l1.042-.816a.246.246 0 0 0 .059-.315l-.986-1.707c-.061-.106-.19-.15-.3-.106l-1.227.495a3.738 3.738 0 0 0-.832-.485l-.185-1.305a.253.253 0 0 0-.246-.207H8.462a.249.249 0 0 0-.244.207L8.033 4.5c-.3.126-.578.288-.832.485L5.974 4.49a.246.246 0 0 0-.3.106l-.986 1.707a.247.247 0 0 0 .06.315l1.039.816c-.02.157-.034.318-.034.48 0 .163.014.323.034.48l-1.04.816a.246.246 0 0 0-.059.315l.986 1.707c.061.106.19.15.3.106l1.227-.495c.254.194.532.36.832.485l.185 1.306a.25.25 0 0 0 .244.207h1.97a.249.249 0 0 0 .244-.207l.185-1.306c.3-.125.58-.288.833-.485l1.226.495c.111.042.24 0 .301-.106l.985-1.707a.247.247 0 0 0-.059-.315l-1.04-.816zm-3.66 1.244a1.723 1.723 0 0 1-1.725-1.724 1.723 1.723 0 1 1 3.449 0c0 .953-.771 1.724-1.725 1.724zm6.479 7.462c.068-.094.134-.192.191-.296.057-.105.104-.213.146-.321l.956-.159a.18.18 0 0 0 .148-.181l-.034-1.443a.178.178 0 0 0-.156-.174l-.962-.112a2.737 2.737 0 0 0-.365-.603l.34-.904a.185.185 0 0 0-.086-.22l-1.267-.69a.182.182 0 0 0-.23.047l-.576.774a2.67 2.67 0 0 0-.705.02l-.615-.749a.18.18 0 0 0-.23-.037l-1.232.751a.18.18 0 0 0-.073.224l.383.888a2.826 2.826 0 0 0-.191.297 2.833 2.833 0 0 0-.146.32l-.954.16a.18.18 0 0 0-.149.182l.035 1.443c.002.09.069.163.155.173l.963.112c.094.214.215.418.364.604l-.339.904a.182.182 0 0 0 .084.218l1.267.692c.079.043.176.02.229-.048l.577-.774c.237.024.473.018.705-.02l.615.748a.18.18 0 0 0 .23.038l1.232-.752a.18.18 0 0 0 .072-.223l-.382-.889zm-2.788-.484a1.261 1.261 0 1 1 1.21-2.216 1.261 1.261 0 1 1-1.21 2.216z" fill="#7F8080"/>
</g><g fill="none" stroke="#616161"><path d="M8.367 43.963c0 .933.946 1.92 1.838 1.92h29.353c.892 0 1.838-.987 1.838-1.92m0 0V14.23L29.01 1.843l-18.805.001c-.946 0-1.838.933-1.838 1.92v40.2" stroke-width=".68812"/><path d="M29.01 1.844L41.385 14.23H30.907c-.927 0-1.898-.981-1.898-1.908zm0 0" stroke-linecap="round" stroke-linejoin="round" stroke-width=".68812"/></g></svg>