<svg xmlns="http://www.w3.org/2000/svg" width="48" height="48"><path d="M8.407 44.522c0 .932.947 1.92 1.84 1.92h29.351c.893 0 1.84-.988 1.84-1.92" fill="none" stroke="#616161" opacity=".25" stroke-width=".68812"/><g transform="matrix(1.3 0 0 1.3 10.4 11.7)">    <defs id="defs3871">
        <style id="current-color-scheme" type="text/css"/>
    </defs>
    <g id="layer1-8" transform="translate(0 -1030.362)" fill="#FF7F00">
        <g transform="translate(-421.714 503.571)" id="layer1" fill="#7F8080" fill-opacity="1">
            <path id="rect4144" transform="translate(421.714 525.79)" d="M4 6v1H3v8h1v1h14v-1h1V7h-1V6H4zm.908 1h12.184c.15.425.483.758.908.908v6.184a1.49 1.49 0 0 0-.908.908H4.908A1.49 1.49 0 0 0 4 14.092V7.908A1.49 1.49 0 0 0 4.908 7zM11 8c-1.662 0-3 1.338-3 3s1.338 3 3 3 3-1.338 3-3-1.338-3-3-3zm0 1c1.108 0 2 .892 2 2s-.892 2-2 2-2-.892-2-2 .892-2 2-2z" color="#7F8080" opacity="1" fill="#7F8080" fill-opacity="1" stroke="none" stroke-width="2.8" stroke-miterlimit="4" stroke-dasharray="none" stroke-opacity=".55"/>
        </g>
    </g>
</g><g fill="none" stroke="#616161"><path d="M8.367 43.963c0 .933.946 1.92 1.838 1.92h29.353c.892 0 1.838-.987 1.838-1.92m0 0V14.23L29.01 1.843l-18.805.001c-.946 0-1.838.933-1.838 1.92v40.2" stroke-width=".68812"/><path d="M29.01 1.844L41.385 14.23H30.907c-.927 0-1.898-.981-1.898-1.908zm0 0" stroke-linecap="round" stroke-linejoin="round" stroke-width=".68812"/></g></svg>