<svg xmlns="http://www.w3.org/2000/svg" width="48" height="48"><path d="M8.407 44.522c0 .932.947 1.92 1.84 1.92h29.351c.893 0 1.84-.988 1.84-1.92" fill="none" stroke="#616161" opacity=".25" stroke-width=".68812"/><g transform="matrix(1.3 0 0 1.3 10.4 11.7)">    <path d="M3 3v1h16V3H3zm6 2.666v1.025l4.287 5.643L9 17.463V19h10v-4h-.564c0 .74.001 1.496-.649 1.94-.712.486-1.651.578-2.476.578h-3.93l3.808-5.184-3.808-5.928h2.238c1.588 0 3.848-.143 4.477 1.713.107.317.178 1.548.205 1.881H19V5.666H9zM3 7v1h5V7H3zm0 3v1h7v-1H3zm0 3v1h7v-1H3zm0 3v1h5v-1H3z" fill="#00BFFE"/>
</g><g fill="none" stroke="#616161"><path d="M8.367 43.963c0 .933.946 1.92 1.838 1.92h29.353c.892 0 1.838-.987 1.838-1.92m0 0V14.23L29.01 1.843l-18.805.001c-.946 0-1.838.933-1.838 1.92v40.2" stroke-width=".68812"/><path d="M29.01 1.844L41.385 14.23H30.907c-.927 0-1.898-.981-1.898-1.908zm0 0" stroke-linecap="round" stroke-linejoin="round" stroke-width=".68812"/></g></svg>