<svg xmlns="http://www.w3.org/2000/svg" width="48" height="48"><path d="M8.407 44.522c0 .932.947 1.92 1.84 1.92h29.351c.893 0 1.84-.988 1.84-1.92" fill="none" stroke="#616161" opacity=".25" stroke-width=".68812"/><g transform="matrix(1.3 0 0 1.3 10.4 11.7)">    <path d="M5.484 3c-.216.013-.448 0-.703.176-2.274.979-.749 3.662 2.15 5.705.017-.384.177-1.223.173-1.591-2.473-1.695-3.919-3.346-2.343-4 1.661-.69 2.177 1.193 2.206 3.926.155.16 1.227.872 1.39.985-.06-2.492-1.385-5.036-2.658-5.18-.068-.014-.143-.014-.215-.014M7.8 7.343l-.518-.201-.429.289-.086.909.542.415.225.302c1.667 1.106 3.088 1.959 4.958 2.663l1.165.173h.768c.707-.417.285-.577 2.855-.898l-2.896.224c-2.233-.866-4.512-2.11-6.586-3.466m5.097 3.627c.335 0 2.948-.226 3.987-.323 1.029-.16 2.292-.208 2.054.995.272-.642-.348-1.73-1.23-1.923-1.364-.305-3.528.53-4.306.788m1.254.333c-.406.16-1.332.276-1.77.42.62.321 3.736 1.471 5.022 1.23.205 0 1.074-.624 1.095-1.073-.067.818-3.875.209-4.347-.593m.847.015c-.333-.16-1.895-.153-2.24-.281-1.958.684-4.59 2.291-6.474 3.375l-.545.16c-.106.75-.567 1.007-.988 1.492l.638.642.499-.818c2.206-1.331 6.566-3.482 9.109-4.514m-9.11 4.514c-.27.16-.527.32-.771.48-.566 1.606-1.225 2.687-1.855 2.64.973.465 3.068-1.826 3.774-3.981m-3.774 3.981c-1.483-.882 1.657-2.489 2.36-2.956.159-.449-.275-1.192-.134-1.722-2.214 1.38-3.524 3.375-2.78 4.32.178.225.367.337.556.353m2.155-3.36c.103-.413 1.471-1.353 1.718-1.497.331-2.606.347-2.863.628-4.889-.168-.16-1.203-.967-1.363-1.079-.199 2.165-.572 5.098-1.1 7.058" fill="#FE003F"/>
</g><g fill="none" stroke="#616161"><path d="M8.367 43.963c0 .933.946 1.92 1.838 1.92h29.353c.892 0 1.838-.987 1.838-1.92m0 0V14.23L29.01 1.843l-18.805.001c-.946 0-1.838.933-1.838 1.92v40.2" stroke-width=".68812"/><path d="M29.01 1.844L41.385 14.23H30.907c-.927 0-1.898-.981-1.898-1.908zm0 0" stroke-linecap="round" stroke-linejoin="round" stroke-width=".68812"/></g></svg>