<svg xmlns="http://www.w3.org/2000/svg" width="48" height="48"><path d="M8.407 44.522c0 .932.947 1.92 1.84 1.92h29.351c.893 0 1.84-.988 1.84-1.92" fill="none" stroke="#616161" opacity=".25" stroke-width=".68812"/><g transform="matrix(1.3 0 0 1.3 10.4 11.7)">    <path d="M16.5 2l-3 3H7.95A2.5 2.5 0 0 0 5.5 3 2.5 2.5 0 0 0 3 5.5a2.5 2.5 0 0 0 2 2.445V17h3v2h5v-2h4V8.5l3-3L16.5 2zm0 1.4l2.1 2.1-2.1 2.1-2.1-2.1 2.1-2.1zM5.5 4A1.5 1.5 0 0 1 7 5.5 1.5 1.5 0 0 1 5.5 7 1.5 1.5 0 0 1 4 5.5 1.5 1.5 0 0 1 5.5 4zm2.445 2H13.5L16 8.5V16h-3v-2H8v2H6V7.95A2.5 2.5 0 0 0 7.945 6zM9 15h3v3H9v-3z" fill="#007FFF"/>
</g><g fill="none" stroke="#616161"><path d="M8.367 43.963c0 .933.946 1.92 1.838 1.92h29.353c.892 0 1.838-.987 1.838-1.92m0 0V14.23L29.01 1.843l-18.805.001c-.946 0-1.838.933-1.838 1.92v40.2" stroke-width=".68812"/><path d="M29.01 1.844L41.385 14.23H30.907c-.927 0-1.898-.981-1.898-1.908zm0 0" stroke-linecap="round" stroke-linejoin="round" stroke-width=".68812"/></g></svg>