<svg xmlns="http://www.w3.org/2000/svg" width="48" height="48"><path d="M8.407 44.522c0 .932.947 1.92 1.84 1.92h29.351c.893 0 1.84-.988 1.84-1.92" fill="none" stroke="#616161" opacity=".25" stroke-width=".68812"/><g transform="matrix(1.3 0 0 1.3 10.4 11.7)">    <path d="M3 3v16h16V3H3zm1 1h6v1h1V4h7v14H4V4zm7 1v1h1V5h-1zm0 1h-1v1h1V6zm0 1v1h1V7h-1zm0 1h-1v1h1V8zm0 1v1h1V9h-1zm0 1h-1v1h1v-1zm0 1v1h1v-1h-1zm0 1h-1v2h2v-1h-1v-1z" fill="#FE00BF"/>
</g><g fill="none" stroke="#616161"><path d="M8.367 43.963c0 .933.946 1.92 1.838 1.92h29.353c.892 0 1.838-.987 1.838-1.92m0 0V14.23L29.01 1.843l-18.805.001c-.946 0-1.838.933-1.838 1.92v40.2" stroke-width=".68812"/><path d="M29.01 1.844L41.385 14.23H30.907c-.927 0-1.898-.981-1.898-1.908zm0 0" stroke-linecap="round" stroke-linejoin="round" stroke-width=".68812"/></g></svg>