<svg xmlns="http://www.w3.org/2000/svg" width="48" height="48"><path d="M8.407 44.522c0 .932.947 1.92 1.84 1.92h29.351c.893 0 1.84-.988 1.84-1.92" fill="none" stroke="#616161" opacity=".25" stroke-width=".68812"/><g transform="matrix(1.3 0 0 1.3 10.4 11.7)">    <path d="M4 2v2.992h3V2H4zm14 0c-5.254.003-9.99 2.196-12 5.557V5H5v3.55A2.5 2.5 0 0 0 3 11a2.5 2.5 0 0 0 2 2.445V17H4v3h3v-3H6v-2.545C8.016 17.811 12.75 20 18 20v-1c-5.304-.003-9.975-2.326-11.49-5.715A2.5 2.5 0 0 0 8 11a2.5 2.5 0 0 0-1.494-2.285C8.02 5.325 12.695 3.002 18 3V2zM5 3.035h1v1H5v-1zM5.5 9.5A1.5 1.5 0 0 1 7 11a1.5 1.5 0 0 1-1.5 1.5A1.5 1.5 0 0 1 4 11a1.5 1.5 0 0 1 1.5-1.5zM5 18h1v1H5v-1z" fill="#FF7F00"/>
</g><g fill="none" stroke="#616161"><path d="M8.367 43.963c0 .933.946 1.92 1.838 1.92h29.353c.892 0 1.838-.987 1.838-1.92m0 0V14.23L29.01 1.843l-18.805.001c-.946 0-1.838.933-1.838 1.92v40.2" stroke-width=".68812"/><path d="M29.01 1.844L41.385 14.23H30.907c-.927 0-1.898-.981-1.898-1.908zm0 0" stroke-linecap="round" stroke-linejoin="round" stroke-width=".68812"/></g></svg>