<svg xmlns="http://www.w3.org/2000/svg" width="48" height="48"><path d="M8.407 44.522c0 .932.947 1.92 1.84 1.92h29.351c.893 0 1.84-.988 1.84-1.92" fill="none" stroke="#616161" opacity=".25" stroke-width=".68812"/><g transform="matrix(1.3 0 0 1.3 10.4 11.7)">    <path d="M3 3v14h16V3H3zm1 1h14v12H4V4zm1 1v4h2l2-2V5H5zm8.5 1A3.492 3.492 0 0 0 10 9.5c0 1.939 1.561 3.5 3.5 3.5S17 11.439 17 9.5 15.439 6 13.5 6zm0 1C14.885 7 16 8.115 16 9.5S14.885 12 13.5 12A2.495 2.495 0 0 1 11 9.5C11 8.115 12.115 7 13.5 7zM9 8L8 9h1V8zm4 0v2h2V9h-1V8h-1zm-8 4v2h2l1 1v-1h.236v-2H5zm-2 6v1h16v-1H3z" fill="#7F8080"/>
</g><g fill="none" stroke="#616161"><path d="M8.367 43.963c0 .933.946 1.92 1.838 1.92h29.353c.892 0 1.838-.987 1.838-1.92m0 0V14.23L29.01 1.843l-18.805.001c-.946 0-1.838.933-1.838 1.92v40.2" stroke-width=".68812"/><path d="M29.01 1.844L41.385 14.23H30.907c-.927 0-1.898-.981-1.898-1.908zm0 0" stroke-linecap="round" stroke-linejoin="round" stroke-width=".68812"/></g></svg>