<svg xmlns="http://www.w3.org/2000/svg" width="48" height="48"><path d="M8.407 44.522c0 .932.947 1.92 1.84 1.92h29.351c.893 0 1.84-.988 1.84-1.92" fill="none" stroke="#616161" opacity=".25" stroke-width=".68812"/><g transform="matrix(1.3 0 0 1.3 10.4 11.7)">    <path d="M8 3v4h1V3H8zm2 1v3h1V4h-1zM6 5v2h1V5H6zm6 0v2h1V5h-1zM4 6v1h1V6H4zm10 0v1h1V6h-1zM3 8v6a4 3.99 0 0 0 0 .01A4 3.99 0 0 0 7 18H4v1h11v-1h-3a4 3.99 0 0 0 4-3.99 4 3.99 0 0 0 0-.01h2c.554 0 1-.446 1-1v-3c0-.554-.446-1-1-1h-2V8H3zm1 1h11v5a3 3 0 0 1-3 3H7a3 3 0 0 1-3-3V9zm12 1h2v3h-2v-3z" fill="#FF7F00"/>
</g><g fill="none" stroke="#616161"><path d="M8.367 43.963c0 .933.946 1.92 1.838 1.92h29.353c.892 0 1.838-.987 1.838-1.92m0 0V14.23L29.01 1.843l-18.805.001c-.946 0-1.838.933-1.838 1.92v40.2" stroke-width=".68812"/><path d="M29.01 1.844L41.385 14.23H30.907c-.927 0-1.898-.981-1.898-1.908zm0 0" stroke-linecap="round" stroke-linejoin="round" stroke-width=".68812"/></g></svg>