<svg xmlns="http://www.w3.org/2000/svg" width="48" height="48"><path d="M8.407 44.522c0 .932.947 1.92 1.84 1.92h29.351c.893 0 1.84-.988 1.84-1.92" fill="none" stroke="#616161" opacity=".25" stroke-width=".68812"/><g transform="matrix(1.3 0 0 1.3 10.4 11.7)">    <path d="M8.5 3v2h1V3h-1zm4 0v2h1V3h-1zM4.56 4.08l-.8.602 1.2 1.6.8-.6-1.2-1.602zm12.88 0l-1.2 1.602.8.6 1.2-1.6-.8-.602zM7 6L3 9l8 10 8-10-4-3H7zm.334 1H10.5v1.5H5.334l2-1.5zM11.5 7h3.166l2 1.5H11.5V7zM4.68 9.5h5.82v7.275L4.68 9.5zm6.82 0h5.82l-5.82 7.275V9.5z" fill="#7F8080" color="#7F8080" fill-rule="evenodd"/>
</g><g fill="none" stroke="#616161"><path d="M8.367 43.963c0 .933.946 1.92 1.838 1.92h29.353c.892 0 1.838-.987 1.838-1.92m0 0V14.23L29.01 1.843l-18.805.001c-.946 0-1.838.933-1.838 1.92v40.2" stroke-width=".68812"/><path d="M29.01 1.844L41.385 14.23H30.907c-.927 0-1.898-.981-1.898-1.908zm0 0" stroke-linecap="round" stroke-linejoin="round" stroke-width=".68812"/></g></svg>