<svg xmlns="http://www.w3.org/2000/svg" width="48" height="48"><path d="M8.407 44.522c0 .932.947 1.92 1.84 1.92h29.351c.893 0 1.84-.988 1.84-1.92" fill="none" stroke="#616161" opacity=".25" stroke-width=".68812"/><g transform="matrix(1.3 0 0 1.3 10.4 11.7)">    <path style="isolation:auto;mix-blend-mode:normal;solid-color:#7f8080;solid-opacity:1;marker:none" d="M3 5v13h16V5H3zm1 1h1.912A1.5 1.5 0 0 1 6 6.5 1.5 1.5 0 0 1 4.5 8a1.5 1.5 0 0 1-.5-.088V6zm2.947 0H18v11H4v-.783l2.326-2.3 1.408-1.403L9.3 13.932 10.4 15l3.6-3.398 3 2.89V13l-3-3-3.6 3.6L7.8 11 4 14.8V8.948A2.5 2.5 0 0 0 4.5 9 2.5 2.5 0 0 0 7 6.5a2.5 2.5 0 0 0-.053-.5z" color="#7F8080" overflow="visible" fill="#FFBF00"/>
</g><g fill="none" stroke="#616161"><path d="M8.367 43.963c0 .933.946 1.92 1.838 1.92h29.353c.892 0 1.838-.987 1.838-1.92m0 0V14.23L29.01 1.843l-18.805.001c-.946 0-1.838.933-1.838 1.92v40.2" stroke-width=".68812"/><path d="M29.01 1.844L41.385 14.23H30.907c-.927 0-1.898-.981-1.898-1.908zm0 0" stroke-linecap="round" stroke-linejoin="round" stroke-width=".68812"/></g></svg>