<svg xmlns="http://www.w3.org/2000/svg" width="48" height="48"><path d="M8.407 44.522c0 .932.947 1.92 1.84 1.92h29.351c.893 0 1.84-.988 1.84-1.92" fill="none" stroke="#616161" opacity=".25" stroke-width=".68812"/><g transform="matrix(1.3 0 0 1.3 10.4 11.7)">    <path d="M10 3v3h3V3h-3zm0 3.25L7 7l.824.824L10 7.281V6.25zm3 .25v1.031l3.938.985L12 9.75v9L19 17V8l-6-1.5zM4.867 7.533L3 8v9l8 2v-9L5.062 8.516l.63-.157-.825-.826zM18 9.281v6.44l-5-1.25v-3.94l5-1.25zM13 15.5l3.941.984-3.941.987V15.5z" fill="#7F8080" fill-rule="evenodd"/>
</g><g fill="none" stroke="#616161"><path d="M8.367 43.963c0 .933.946 1.92 1.838 1.92h29.353c.892 0 1.838-.987 1.838-1.92m0 0V14.23L29.01 1.843l-18.805.001c-.946 0-1.838.933-1.838 1.92v40.2" stroke-width=".68812"/><path d="M29.01 1.844L41.385 14.23H30.907c-.927 0-1.898-.981-1.898-1.908zm0 0" stroke-linecap="round" stroke-linejoin="round" stroke-width=".68812"/></g></svg>