<svg xmlns="http://www.w3.org/2000/svg" width="48" height="48"><path d="M8.407 44.522c0 .932.947 1.92 1.84 1.92h29.351c.893 0 1.84-.988 1.84-1.92" fill="none" stroke="#616161" opacity=".25" stroke-width=".68812"/><g transform="matrix(1.3 0 0 1.3 10.4 11.7)">    <g transform="translate(-326 -534.362)" fill="#00BFFE">
        <path d="M336 540.612l-3 .75.824.824 2.176-.543v-1.03zm-5.133 1.283l-1.867.467v9l8 2v-9l-5.938-1.484.63-.156-.825-.827zm8.133-1.033v1.031l3.938.985-4.938 1.234v9l7-1.75v-9l-6-1.5zm5 2.781v6.44l-5-1.25v-3.94l5-1.25zm-5 6.22l3.941.984-3.941.986v-1.97z" fill-rule="evenodd"/>
        <rect width="3" x="336" y="537.362" rx="0" height="3" stroke-width="2"/>
    </g>
</g><g fill="none" stroke="#616161"><path d="M8.367 43.963c0 .933.946 1.92 1.838 1.92h29.353c.892 0 1.838-.987 1.838-1.92m0 0V14.23L29.01 1.843l-18.805.001c-.946 0-1.838.933-1.838 1.92v40.2" stroke-width=".68812"/><path d="M29.01 1.844L41.385 14.23H30.907c-.927 0-1.898-.981-1.898-1.908zm0 0" stroke-linecap="round" stroke-linejoin="round" stroke-width=".68812"/></g></svg>