<svg xmlns="http://www.w3.org/2000/svg" width="48" height="48"><path d="M8.407 44.522c0 .932.947 1.92 1.84 1.92h29.351c.893 0 1.84-.988 1.84-1.92" fill="none" stroke="#616161" opacity=".25" stroke-width=".68812"/><g transform="matrix(1.3 0 0 1.3 10.4 11.7)">    <path d="M1 3v16h20V3H1zm1 1h.049l5.974 5.977L2 16V4zm1.463 0h15.074L11 11.537 3.463 4zM19.95 4H20v12l-6.023-6.023L19.95 4zM8.73 10.684L11 12.95l2.27-2.267 6.267 6.267.463.463V18H2v-.586l.463-.463 6.267-6.267z" stroke-opacity=".55" fill="#00BFFE" stroke-width="2.8"/>
</g><g fill="none" stroke="#616161"><path d="M8.367 43.963c0 .933.946 1.92 1.838 1.92h29.353c.892 0 1.838-.987 1.838-1.92m0 0V14.23L29.01 1.843l-18.805.001c-.946 0-1.838.933-1.838 1.92v40.2" stroke-width=".68812"/><path d="M29.01 1.844L41.385 14.23H30.907c-.927 0-1.898-.981-1.898-1.908zm0 0" stroke-linecap="round" stroke-linejoin="round" stroke-width=".68812"/></g></svg>