<svg xmlns="http://www.w3.org/2000/svg" width="48" height="48"><path d="M8.407 44.522c0 .932.947 1.92 1.84 1.92h29.351c.893 0 1.84-.988 1.84-1.92" fill="none" stroke="#616161" opacity=".25" stroke-width=".68812"/><g transform="matrix(1.3 0 0 1.3 10.4 11.7)">    <path d="M3.854 4A.864.864 0 0 0 3 4.875v12.25c0 .484.382.875.854.875h14.292c.47 0 .854-.391.854-.875V4.873A.866.866 0 0 0 18.145 4H3.854zm9.625 1a.5.5 0 0 1 .521.47v.03a.5.5 0 0 1-.492.5.5.5 0 0 1-.508-.486.5.5 0 0 1 .479-.514zm2 0a.5.5 0 0 1 .521.47v.03a.5.5 0 0 1-.492.5.5.5 0 0 1-.508-.486.5.5 0 0 1 .479-.514zm2 0a.5.5 0 0 1 .521.47v.03a.5.5 0 0 1-.492.5.5.5 0 0 1-.508-.486.5.5 0 0 1 .479-.514zM4 7h14v10H4V7z" fill="#00FE7F"/>
</g><g fill="none" stroke="#616161"><path d="M8.367 43.963c0 .933.946 1.92 1.838 1.92h29.353c.892 0 1.838-.987 1.838-1.92m0 0V14.23L29.01 1.843l-18.805.001c-.946 0-1.838.933-1.838 1.92v40.2" stroke-width=".68812"/><path d="M29.01 1.844L41.385 14.23H30.907c-.927 0-1.898-.981-1.898-1.908zm0 0" stroke-linecap="round" stroke-linejoin="round" stroke-width=".68812"/></g></svg>