<svg xmlns="http://www.w3.org/2000/svg" width="48" height="48"><path d="M8.407 44.522c0 .932.947 1.92 1.84 1.92h29.351c.893 0 1.84-.988 1.84-1.92" fill="none" stroke="#616161" opacity=".25" stroke-width=".68812"/><g transform="matrix(1.3 0 0 1.3 10.4 11.7)">    <path style="line-height:125%;-inkscape-font-specification:oxygen" d="M10 3.002c-1.742.013-2.477.72-2.477 2.508v2.44c0 1.114-.034 2.404-1.015 2.404H6v1.29h.508c.981 0 1.015 1.29 1.015 2.404v2.441c0 1.787.735 2.495 2.477 2.508v-1.184c-1.135-.013-1.156-.5-1.156-2.209V13.59c0-.831-.205-2.068-1.203-2.58.998-.513 1.203-1.751 1.203-2.582V6.395c0-1.708.021-2.196 1.156-2.21V3.003zm2 .002v1.183c1.119.019 1.156.508 1.156 2.208v2.033c0 .83.205 2.07 1.203 2.582-.998.512-1.203 1.749-1.203 2.58v2.015c0 1.7-.037 2.19-1.156 2.207v1.184c1.73-.017 2.477-.724 2.477-2.506v-2.44c0-1.114.068-2.404 1.033-2.404H16v-1.29h-.49c-.965 0-1.033-1.29-1.033-2.404V5.51c0-1.782-.746-2.489-2.477-2.506zM4 18v1h1v-1H4z" font-weight="400" font-family="oxygen" letter-spacing="0" word-spacing="0" fill="#FFBF00"/>
</g><g fill="none" stroke="#616161"><path d="M8.367 43.963c0 .933.946 1.92 1.838 1.92h29.353c.892 0 1.838-.987 1.838-1.92m0 0V14.23L29.01 1.843l-18.805.001c-.946 0-1.838.933-1.838 1.92v40.2" stroke-width=".68812"/><path d="M29.01 1.844L41.385 14.23H30.907c-.927 0-1.898-.981-1.898-1.908zm0 0" stroke-linecap="round" stroke-linejoin="round" stroke-width=".68812"/></g></svg>