<svg xmlns="http://www.w3.org/2000/svg" width="48" height="48"><path d="M8.407 44.522c0 .932.947 1.92 1.84 1.92h29.351c.893 0 1.84-.988 1.84-1.92" fill="none" stroke="#616161" opacity=".25" stroke-width=".68812"/><g transform="matrix(1.3 0 0 1.3 10.4 11.7)">    <path style="isolation:auto;mix-blend-mode:normal;solid-color:#7f8080;solid-opacity:1;marker:none;filter-blend-mode:normal;filter-gaussianBlur-deviation:0" d="M3 3.5v15h16v-15H3zm1 1h1v1H4v-1zm2 0h10V10H6V4.5zm11 0h1v1h-1v-1zm-13 3h1v1H4v-1zm13 0h1v1h-1v-1zm-13 3h1v1H4v-1zm13 0h1v1h-1v-1zM6 12h10v5.5H6V12zm-2 1.5h1v1H4v-1zm13 0h1v1h-1v-1zm-13 3h1v1H4v-1zm13 0h1v1h-1v-1z" fill="#007FFF" color="#7F8080" overflow="visible"/>
</g><g fill="none" stroke="#616161"><path d="M8.367 43.963c0 .933.946 1.92 1.838 1.92h29.353c.892 0 1.838-.987 1.838-1.92m0 0V14.23L29.01 1.843l-18.805.001c-.946 0-1.838.933-1.838 1.92v40.2" stroke-width=".68812"/><path d="M29.01 1.844L41.385 14.23H30.907c-.927 0-1.898-.981-1.898-1.908zm0 0" stroke-linecap="round" stroke-linejoin="round" stroke-width=".68812"/></g></svg>