<svg xmlns="http://www.w3.org/2000/svg" xmlns:xlink="http://www.w3.org/1999/xlink" width="64" height="64"><defs><linearGradient x1="20" y1="1000.4" gradientTransform="translate(0 -1044.42)" x2="20" gradientUnits="userSpaceOnUse" y2="1032.4" id="a"><stop offset="0" stop-color="#ff7800"/><stop offset="1" stop-color="#ff0404"/></linearGradient><linearGradient xlink:href="#a" id="b" x1="5.5" y1="32.038" x2="58.5" y2="32.038" gradientUnits="userSpaceOnUse" gradientTransform="translate(-4.378 -7.579) scale(1.14538)"/></defs><path style="isolation:auto;mix-blend-mode:normal;solid-color:#000;solid-opacity:1" overflow="visible" d="M21.702 49.89h20.617v7.358H21.702z" color="#000" fill="#7a747c"/><rect x="19.411" y="56.125" width="25.198" height="2.291" ry="0" style="isolation:auto;mix-blend-mode:normal;solid-color:#000" color="#000" fill="#cac6c9"/><path d="M19.411 57.27v1.147H44.61V57.27z" style="isolation:auto;mix-blend-mode:normal;solid-color:#000" color="#000" fill="#7a747c"/><path style="isolation:auto;mix-blend-mode:normal;solid-color:#000" d="M47.459 47.446h10.22l.001-.001a2.285 2.285 0 0 0 2.29-2.29v-32.07a2.286 2.286 0 0 0-2.29-2.292H47.437m-30.349 0H6.87a2.285 2.285 0 0 0-2.291 2.291v32.071a2.286 2.286 0 0 0 2.29 2.29H17.11m15.616-.016a18.326 18.326 0 0 0 11.116-4.11l-6.527-9.54a6.873 6.873 0 0 1-2.338 1.651zm-2.317-.08l2.132-11.367a5.616 5.616 0 0 1-.266 0 6.873 6.873 0 0 1-2.555-.496L19.657 42.37a18.326 18.326 0 0 0 10.752 4.97zm15.127-5.613a18.326 18.326 0 0 0 4.969-10.754L39.137 28.85c.005.09.009.18.01.27a6.872 6.872 0 0 1-.497 2.55zm-27.463-1.052l9.539-6.526a6.873 6.873 0 0 1-1.649-2.335l-12-2.25a18.326 18.326 0 0 0 4.108 11.112zm14.201-6.986c6.108.001 6.11-9.16.002-9.162-6.108-.001-6.11 9.16-.002 9.162zm-6.863-4.315a6.941 6.941 0 0 1-.009-.266 6.87 6.87 0 0 1 .499-2.553l-6.889-10.065a18.326 18.326 0 0 0-4.968 10.755zm25.175-.72a18.326 18.326 0 0 0-4.11-11.114l-9.542 6.527a6.873 6.873 0 0 1 1.649 2.336zm-23.352-4.207a6.873 6.873 0 0 1 2.338-1.651l2.249-12a18.326 18.326 0 0 0-11.114 4.11zm7.591-1.717l10.067-6.885a18.326 18.326 0 0 0-10.755-4.969L32.01 22.253a7.67 7.67 0 0 1 .267-.01c.874.001 1.74.17 2.55.495z" color="#000" fill="none" stroke="url(#b)" stroke-width="1.7" stroke-linecap="round" stroke-linejoin="round"/></svg>