<svg xmlns="http://www.w3.org/2000/svg" xmlns:xlink="http://www.w3.org/1999/xlink" viewBox="0 0 48 48"><defs><linearGradient id="b"><stop offset="0" stop-color="#ff003a"/><stop offset="1" stop-color="#773241"/></linearGradient><linearGradient id="a"><stop offset="0" stop-color="#ff6a00"/><stop offset="1" stop-color="#ff0038"/></linearGradient><linearGradient xlink:href="#a" id="d" x1="11.03" y1="34.226" x2="34.743" y2="34.226" gradientUnits="userSpaceOnUse" gradientTransform="translate(-5.663 -4.681) scale(1.20918)"/><linearGradient xlink:href="#b" id="c" gradientUnits="userSpaceOnUse" x1="15.42" y1="19.751" x2="31.416" y2="19.751" gradientTransform="translate(-4.646 -4.681) scale(1.20918)"/></defs><path d="M25.923 20.614c0 1.653.042 3.028-.756 4.492-.642 1.19-1.663 1.923-2.8 1.923-1.554 0-2.456-1.237-2.456-3.065 0-3.609 3.09-4.265 6.013-4.265v.916m4.08 10.316a.813.813 0 0 1-.953.104c-1.341-1.167-1.583-1.71-2.324-2.825-2.22 2.371-3.789 3.08-6.67 3.08-3.405 0-6.058-2.196-6.058-6.594 0-3.434 1.781-5.776 4.312-6.92 2.192-1.01 5.262-1.19 7.61-1.469v-.548c0-1.006.075-2.196-.487-3.065-.496-.78-1.44-1.1-2.272-1.1-1.544 0-2.919.827-3.254 2.541-.071.382-.335.756-.703.775l-3.925-.438c-.33-.08-.695-.36-.605-.888.907-4.969 5.205-6.472 9.05-6.472 1.97 0 4.544.548 6.094 2.107 1.97 1.922 1.78 4.487 1.78 7.28v6.593c0 1.984.784 2.852 1.527 3.925.26.378.317.84-.01 1.124a194.61 194.61 0 0 0-3.103 2.81L30 30.937" fill="none" stroke="url(#c)" stroke-width="1.209" transform="translate(1.017 .712)"/><path d="M36.09 36.03c-3.443 2.597-8.43 3.986-12.728 3.986-6.022 0-11.445-2.282-15.549-6.082-.322-.298-.033-.704.354-.473 4.426 2.64 9.905 4.227 15.559 4.227 3.811 0 8.01-.808 11.865-2.49.586-.25 1.073.392.501.828" fill="url(#d)" fill-rule="evenodd" transform="translate(1.017 .712)"/><path d="M38.54 35.063c-.44-.577-2.91-.275-4.015-.137-.34.042-.392-.26-.085-.478 1.965-1.417 5.196-1.01 5.569-.533.378.478-.095 3.793-1.946 5.375-.283.245-.553.114-.426-.208.412-1.063 1.346-3.444.902-4.02" fill="#ff0436" fill-rule="evenodd"/></svg>