<svg xmlns="http://www.w3.org/2000/svg" xmlns:xlink="http://www.w3.org/1999/xlink" viewBox="0 0 48 48"><defs><linearGradient id="a"><stop offset="0" stop-color="#ff1700"/><stop offset="1" stop-color="#ff8509"/></linearGradient><linearGradient xlink:href="#a" id="b" gradientUnits="userSpaceOnUse" x1="7.446" y1="24.482" x2="40.546" y2="24.482"/></defs><path d="M23 10l-3 7-10-1 5.996 6-7 4 8 1L11 35l9-3 .996 6 5-5 8 5-3-9 8-1-7-4 5-2-4-1.996 5-9-11 4.996zm-.469 7h2.938c.293 0 .53.238.531.531l.028 7.11a.53.53 0 0 1-.531.532h-2.938a.532.532 0 0 1-.531-.531L22 17.53a.53.53 0 0 1 .531-.531m0 10h2.938c.293 0 .531.238.531.531v2.938a.531.531 0 0 1-.531.531h-2.938a.531.531 0 0 1-.531-.531V27.53c0-.293.238-.531.531-.531" stroke="url(#b)" transform="translate(-5.801 -8.257) scale(1.28764)" fill="none" stroke-linecap="round" stroke-linejoin="round" paint-order="stroke fill markers" stroke-width="1.233"/></svg>