<svg xmlns="http://www.w3.org/2000/svg" xmlns:xlink="http://www.w3.org/1999/xlink" viewBox="0 0 48 48"><defs><linearGradient id="c"><stop offset="0" stop-color="#b3f100"/><stop offset="1" stop-color="#00fff5"/></linearGradient><linearGradient id="b"><stop offset="0" stop-color="#5ec9ff"/><stop offset="1" stop-color="#2290c8"/></linearGradient><linearGradient id="a"><stop offset="0" stop-color="#ff0015"/><stop offset="1" stop-color="#fc00a3"/></linearGradient><linearGradient xlink:href="#a" id="d" x1="17.246" y1="38.726" x2="23" y2="26" gradientUnits="userSpaceOnUse" gradientTransform="translate(-10.55 -1.893) scale(1.2598)"/><linearGradient xlink:href="#b" id="e" x1="6.583" y1="19.524" x2="26.349" y2="19.524" gradientUnits="userSpaceOnUse" gradientTransform="translate(-.288 -.863)"/><linearGradient xlink:href="#c" id="f" x1="21.575" y1="20.648" x2="39.212" y2="20.648" gradientUnits="userSpaceOnUse" gradientTransform="translate(.431 -.288)"/></defs><g fill="none" stroke-width="1.26" paint-order="stroke fill markers" stroke-linecap="round"><path d="M36.063 30.862A17.637 17.637 0 0 1 22.99 47.898a17.637 17.637 0 0 1-19.838-8.217A17.637 17.637 0 0 1 5.954 18.39l12.472 12.472z" stroke="url(#d)" transform="rotate(90 24.5 30.195)"/><path d="M6.926 15.007a17.637 17.637 0 0 1 18.505-4.1l-6.033 16.572z" stroke="url(#e)" transform="rotate(90 24.5 30.195)"/><path d="M28.238 12.666a16.377 16.377 0 0 1 10.776 15.389H22.636z" stroke="url(#f)" transform="rotate(90 24.5 30.195)"/></g></svg>