<svg xmlns="http://www.w3.org/2000/svg" xmlns:xlink="http://www.w3.org/1999/xlink" viewBox="0 0 48 48"><defs><linearGradient id="a"><stop stop-color="#0098f8" offset="0"/><stop stop-opacity="0" stop-color="#fff" offset="1"/></linearGradient><linearGradient id="b"><stop stop-color="#ffa907" offset="0"/><stop stop-opacity=".967" stop-color="#ff00a5" offset="1"/></linearGradient><linearGradient xlink:href="#a" id="c" x1="24.076" y1="34.636" x2="23.953" y2="29.55" gradientUnits="userSpaceOnUse" gradientTransform="translate(4.023 2.707) scale(.85708)"/><linearGradient xlink:href="#b" id="d" x1="13.932" y1="43.44" x2="37.942" y2="43.44" gradientUnits="userSpaceOnUse"/><linearGradient xlink:href="#b" id="e" gradientUnits="userSpaceOnUse" x1="13.932" y1="43.44" x2="37.942" y2="43.44"/><linearGradient xlink:href="#b" id="f" gradientUnits="userSpaceOnUse" x1="13.932" y1="43.44" x2="37.942" y2="43.44"/><linearGradient xlink:href="#b" id="g" gradientUnits="userSpaceOnUse" x1="13.932" y1="43.44" x2="37.942" y2="43.44"/></defs><g fill="none"><path d="M11.737 28.42l-.857 4.285h27.426l-.857-4.286zm0 0" stroke="url(#c)" stroke-width=".857" stroke-linecap="round" stroke-linejoin="round" transform="translate(-14.647 -17.22) scale(1.59559)"/><g transform="translate(-20.047 -48.313) scale(1.73179)" stroke="url(#d)"><path d="M15.26 40.44h3.344c.734 0 1.328.595 1.328 1.329v3.344c0 .734-.594 1.328-1.328 1.328H15.26a1.33 1.33 0 0 1-1.328-1.328v-3.344a1.33 1.33 0 0 1 1.328-1.328m0 0" stroke="url(#e)"/><path d="M24.26 40.44h3.344c.734 0 1.328.595 1.328 1.329v3.344c0 .734-.594 1.328-1.328 1.328H24.26a1.33 1.33 0 0 1-1.328-1.328v-3.344a1.33 1.33 0 0 1 1.328-1.328m0 0" stroke="url(#f)"/><path d="M33.262 40.44h3.352c.727 0 1.328.595 1.328 1.329v3.344c0 .734-.602 1.328-1.328 1.328h-3.352c-.727 0-1.32-.594-1.32-1.328v-3.344c0-.734.598-1.328 1.32-1.328m0 0" stroke="url(#g)"/></g></g></svg>