<svg xmlns="http://www.w3.org/2000/svg" xmlns:xlink="http://www.w3.org/1999/xlink" viewBox="0 0 48 48"><defs><linearGradient id="a"><stop offset="0" stop-color="#00cdff"/><stop offset="1" stop-color="#d700ff"/></linearGradient><linearGradient xlink:href="#a" id="b" gradientUnits="userSpaceOnUse" x1="10.983" y1="14.441" x2="35.797" y2="31.525"/></defs><g fill="url(#b)"><path d="M40.878 12.096a1.204 1.204 0 1 0-1.942 1.424 17.951 17.951 0 0 1 3.508 10.687c0 10.003-8.138 18.14-18.14 18.14-.276 0-.551-.006-.827-.019l9.202-11.25a1.204 1.204 0 1 0-1.863-1.525L20.2 42.53a1.204 1.204 0 0 0 .17 1.694 1.197 1.197 0 0 0 .628.264 20.551 20.551 0 0 0 3.305.267c5.467 0 10.621-2.143 14.513-6.034 3.892-3.892 6.035-9.046 6.035-14.514a20.34 20.34 0 0 0-3.974-12.111z"/><path d="M40.878 12.096a20.854 20.854 0 0 0-7.145-6.132 20.51 20.51 0 0 0-9.43-2.305c-6.76 0-13.099 3.354-16.953 8.972a1.204 1.204 0 0 0 .312 1.674 1.199 1.199 0 0 0 .68.21c.383 0 .76-.182.994-.522 3.405-4.963 9-7.926 14.968-7.926 5.029 0 9.852 2.14 13.272 5.811l-14.441 1.556a1.204 1.204 0 0 0 .258 2.394l16.596-1.788a1.197 1.197 0 0 0 .606-.245l.024-.016a1.204 1.204 0 0 0 .259-1.683zM24.304 30.227a6.003 6.003 0 0 1-5.351-3.264 6.015 6.015 0 0 1-.67-2.756 6.035 6.035 0 0 1 4.026-5.68 6.004 6.004 0 0 1 1.995-.34c3.32 0 6.02 2.701 6.02 6.02 0 1.306-.39 2.5-1.161 3.55a6.048 6.048 0 0 1-4.86 2.47zm0-9.632a3.601 3.601 0 0 0-1.196.203 3.623 3.623 0 0 0-2.416 3.41c0 .574.138 1.144.4 1.649a3.604 3.604 0 0 0 3.212 1.962 3.632 3.632 0 0 0 2.917-1.486 3.52 3.52 0 0 0 .695-2.126 3.616 3.616 0 0 0-3.612-3.612z"/><path d="M21.343 42.104c-8.654-1.436-15.18-9.13-15.18-17.897 0-2.961.72-5.84 2.095-8.434l6.267 13.101a1.204 1.204 0 1 0 2.172-1.039L9.5 12.792a1.203 1.203 0 0 0-1.125-.683 1.202 1.202 0 0 0-1.026.522 20.38 20.38 0 0 0-3.594 11.576A20.52 20.52 0 0 0 8.707 37.55c3.157 3.682 7.504 6.143 12.241 6.93a1.204 1.204 0 0 0 .394-2.375z"/><path d="M24.304 35.043a10.804 10.804 0 0 1-9.63-5.868 10.83 10.83 0 0 1-.15-.3 10.88 10.88 0 0 1-1.056-4.668c0-3.893 2.107-7.507 5.499-9.43a10.848 10.848 0 0 1 1.74-.793 10.8 10.8 0 0 1 2.428-.55c.385-.041.779-.062 1.169-.062 5.975 0 10.836 4.86 10.836 10.835 0 2.317-.724 4.528-2.092 6.396a10.797 10.797 0 0 1-.371.477 10.814 10.814 0 0 1-8.373 3.963zm0-19.263c-.305 0-.61.016-.911.048a8.39 8.39 0 0 0-1.885.428 8.44 8.44 0 0 0-1.353.616 8.45 8.45 0 0 0-4.28 7.335 8.455 8.455 0 0 0 .938 3.862 8.405 8.405 0 0 0 7.49 4.566c2.49 0 4.925-1.153 6.515-3.085a8.33 8.33 0 0 0 .288-.37 8.355 8.355 0 0 0 1.626-4.973c0-4.647-3.781-8.427-8.428-8.427z"/></g></svg>