<svg xmlns="http://www.w3.org/2000/svg" xmlns:xlink="http://www.w3.org/1999/xlink" viewBox="0 0 48 48"><defs><linearGradient gradientTransform="translate(-56.746 5.288)" gradientUnits="userSpaceOnUse" y2="47" y1="1" x2="0" id="a"><stop offset="0" stop-color="#540bff"/><stop offset="1" stop-color="#4700f2" stop-opacity=".459"/></linearGradient><linearGradient xlink:href="#a" id="b" x1="11.961" y1="22" x2="40.961" y2="22" gradientUnits="userSpaceOnUse" gradientTransform="translate(-9.267 -5.077) scale(1.28625)"/></defs><path d="M20.91 6.5c-6.432 0-8.242 1.285-9.005 2.572 4.96 0 6.432 1.286 6.432 1.286h-1.93c-5.223 0-9.647 8.157-9.647 16.078 1.287-1.93 3.216-3.216 3.216-3.216-1.423 1.93-3.216 5.788-3.216 12.22 0 1.81.461 3.311 1.018 4.502h32.425c-3.892-2.891-10.29-6.89-10.29-12.863 0-2.572 2.572-5.145 10.29-5.145h2.572c0-2.572-2.572-6.431-7.717-7.717-1.744-2.573-6.431-7.718-14.149-7.718z" fill="none" stroke="url(#b)" stroke-width="1.586" paint-order="stroke fill markers" stroke-linecap="square"/><path d="M25.461 12.93c2.573 0 3.86 0 3.86 2.573-2.573 0-3.86 0-3.86-2.573z" fill="#2a2a2a"/><path d="M15.071 8.295c-2.447.022-4.192.16-5.045.776 4.96 0 6.432 1.286 6.432 1.286.548-.39 1.286-1.088 1.286-2.06-.965-.005-1.857-.01-2.673-.002zm10.39 8.493c-9.03 0-16.83 2.18-20.176 5.45a22.744 22.744 0 0 0-.404 4.197c1.286-1.93 3.216-3.215 3.216-3.215 5.083-3.481 11.576-5.912 17.364-6.432zm7.718 3.86c-11.49 0-21.495 5.319-28.147 16.477.18 1.09.508 2.024.877 2.817h1.869c3.696-8.234 14.954-19.294 25.4-19.294z" fill="#f9ca5b"/></svg>