<svg xmlns="http://www.w3.org/2000/svg" xmlns:xlink="http://www.w3.org/1999/xlink" width="48" height="48" version="1.1" id="svg18"><defs id="defs10"><linearGradient id="a"><stop offset="0" stop-color="#00ff7f" id="stop2"/><stop offset="1" stop-color="#5fff00" id="stop4"/></linearGradient><linearGradient xlink:href="#a-3" id="b" x1="3" y1="24" x2="45" y2="24" gradientUnits="userSpaceOnUse"/><linearGradient xlink:href="#a" id="c" gradientUnits="userSpaceOnUse" x1="3" y1="24" x2="45" y2="24"/><linearGradient xlink:href="#a" id="d" gradientUnits="userSpaceOnUse" x1="3" y1="24" x2="45" y2="24"/><linearGradient id="a-3"><stop stop-color="#0af" offset="0" id="stop7"/><stop stop-color="#1565c0" offset="1" id="stop9"/></linearGradient><linearGradient xlink:href="#a-3" id="g" x1="58.086" y1="33.048" x2="94.674" y2="33.048" gradientUnits="userSpaceOnUse" gradientTransform="translate(-60.128 -6.503) scale(1.11351)"/><linearGradient xlink:href="#a-3" id="f" x1="59.373" y1="17.627" x2="93.391" y2="17.627" gradientUnits="userSpaceOnUse" gradientTransform="translate(-60.128 -6.503) scale(1.11351)"/><linearGradient xlink:href="#a-3" id="linearGradient1069" x1="27.44" y1="34.381" x2="40.556" y2="34.381" gradientUnits="userSpaceOnUse"/><style type="text/css" id="current-color-scheme"/><style type="text/css" id="current-color-scheme-7"/><filter id="g-7" height="1.355" y="-.178" width="1.245" x="-.123" color-interpolation-filters="sRGB"><feGaussianBlur id="feGaussianBlur2445" stdDeviation="2.037"/></filter><linearGradient xlink:href="#a-3" id="linearGradient2605" x1="26.742" y1="36.089" x2="41.207" y2="36.089" gradientUnits="userSpaceOnUse"/></defs><g transform="translate(.083 1.303) scale(.98807)" id="g16" fill="none" stroke="url(#b)" stroke-width="2.6"><path d="M4 1030.362h40v-17H24l-3-3H4z" transform="translate(0 -1004.362)" id="path12" stroke="url(#c)"/><path d="M20 1023.362l-3 2H4v19.998c0 .54.489.991.984.991l38.016.011c.51.016 1-.395 1-1v-22z" transform="translate(0 -1004.362)" id="path14" stroke="url(#d)"/></g></svg>