<svg xmlns="http://www.w3.org/2000/svg" xmlns:xlink="http://www.w3.org/1999/xlink" viewBox="0 0 48 48"><defs><linearGradient id="a"><stop offset="0" stop-color="#00ff5b"/><stop offset="1" stop-color="#7313c4"/></linearGradient><linearGradient xlink:href="#a" id="b" x1="6.221" y1="15.917" x2="26.151" y2="37.656" gradientUnits="userSpaceOnUse" gradientTransform="translate(.074 -2.891) scale(1.0756)"/><linearGradient xlink:href="#a" id="c" gradientUnits="userSpaceOnUse" x1="30.046" y1="18.815" x2="45.274" y2="37.656" gradientTransform="translate(-2.228 -2.682) scale(1.0756)"/></defs><g aria-label="Aa" style="line-height:1.25;-inkscape-font-specification:'Noto Naskh Arabic, Normal';font-variant-ligatures:normal;font-variant-caps:normal;font-variant-numeric:normal;font-feature-settings:normal;text-align:start" font-weight="400" font-size="31.169" font-family="Noto Naskh Arabic" letter-spacing="0" word-spacing="0" stroke-width=".779"><path d="M15.235 13.08l-5.194 14.086H20.45zm-2.16-3.772h4.34L28.203 37.61h-3.98l-2.579-7.26H8.885l-2.578 7.26H2.269z" style="-inkscape-font-specification:'Noto Naskh Arabic, Normal';font-variant-ligatures:normal;font-variant-caps:normal;font-variant-numeric:normal;font-feature-settings:normal;text-align:start" fill="url(#b)"/><path d="M39.512 27.147q-4.228 0-5.858.967t-1.63 3.299q0 1.858 1.213 2.957 1.232 1.08 3.336 1.08 2.9 0 4.645-2.047 1.763-2.066 1.763-5.478v-.778zm6.957-1.44V37.82h-3.488v-3.222q-1.194 1.933-2.976 2.862-1.782.91-4.36.91-3.261 0-5.195-1.82-1.914-1.839-1.914-4.91 0-3.583 2.388-5.403 2.408-1.82 7.166-1.82h4.891v-.34q0-2.408-1.592-3.716-1.574-1.327-4.436-1.327-1.82 0-3.545.436-1.726.436-3.318 1.308v-3.223q1.915-.74 3.716-1.1 1.8-.379 3.507-.379 4.606 0 6.881 2.389 2.275 2.389 2.275 7.242z" style="-inkscape-font-specification:'Noto Naskh Arabic, Normal';font-variant-ligatures:normal;font-variant-caps:normal;font-variant-numeric:normal;font-feature-settings:normal;text-align:start" fill="url(#c)"/></g></svg>