<svg xmlns="http://www.w3.org/2000/svg" xmlns:xlink="http://www.w3.org/1999/xlink" viewBox="0 0 48 48"><defs><linearGradient id="a" x2="0" y1="47" y2="1" gradientUnits="userSpaceOnUse"><stop offset="0" stop-color="#ff6d00"/><stop offset="1" stop-color="#ff00c2"/></linearGradient><linearGradient xlink:href="#a" id="b" x1="2.403" y1="23.798" x2="46.352" y2="23.798" gradientUnits="userSpaceOnUse" gradientTransform="translate(-.61 .407)"/></defs><path d="M10.125 9.13c11.209 14.14 30.125 11.524 34.24-1.25 3.646 9.069-.567 12.874-5.477 17.918-.12 4.512-1.374 6.745-3.478 9.629-7.772 10.691-31.393 2.26-33.617-4.279l2.472-5.845c4.223-.127 5.668-.178 9.968-.554-4.62-5.355-3.96-9.521-4.102-15.62" fill="none" stroke="url(#b)" stroke-width="1.814" stroke-linecap="round" stroke-linejoin="round"/><path d="M25.603 34.911l6.19-.222-.71 2.926-6.68-1.804c.405-.29.78-.61 1.198-.9" fill="#6b4b28"/><path d="M37.531 35.304l-5.738-.765s-1.248.263-1.417 1.304c-.163 1.048.687 1.772.687 1.772l6.3-.03m.17-2.28" fill="#aaa"/><path d="M38.481 34.54c-1.204.25-1.68 1.715-1.538 2.68.127.943 3.23 4.051 10.273-.744-3.074-.483-7.425-2.238-8.735-1.934" fill="#ba2121"/><path d="M33.004 35.232c-.651-.086-1.19.007-1.197.205-.007.197.51.431 1.163.517.643.092 1.182 0 1.19-.198.007-.19-.51-.432-1.156-.524" fill="#fff" fill-opacity=".733"/><path d="M8.736 27.456c1.487 2.891.829 5.966-1.999 7.34-2.167 1.056-4.712-.885-5.794-4.002-1.092-3.118-.376-6.348 1.85-7.291 2.218-.936 4.612 1.367 5.943 3.946" fill="#333"/><path d="M16.763 25.111a3.626 3.626 0 0 1-3.627 3.628 3.626 3.626 0 0 1-3.627-3.628 3.626 3.626 0 0 1 3.627-3.627 3.626 3.626 0 0 1 3.627 3.627m9.069 1.814a4.538 4.538 0 0 1-4.534 4.534 4.538 4.538 0 0 1-4.535-4.534 4.538 4.538 0 0 1 4.535-4.534 4.538 4.538 0 0 1 4.534 4.534" fill="#e5e5e5"/><path d="M15.842 26.127c0 1-.71 1.814-1.587 1.814-.878 0-1.587-.815-1.587-1.814 0-1 .71-1.814 1.587-1.814.878 0 1.587.815 1.587 1.814m8.176 1.251c0 1.254-.814 2.268-1.814 2.268-.999 0-1.813-1.014-1.813-2.268 0-1.253.814-2.267 1.813-2.267 1 0 1.814 1.014 1.814 2.267" fill="#333"/><path d="M9.204 37.227c9.812 2.033 14.098-.495 19.341-6.326.036 4.958-2.238 8.012-4.797 8.43-4.505.743-9.317-.071-14.546-2.104" fill="#333" fill-opacity=".8"/><path d="M3.16 25.806c-.494 0-.906.475-.906 1.027 0 .553.412.999.907.999.495 0 .907-.446.907-1 0-.553-.412-1.026-.907-1.026" fill="#f9f9f9"/><path d="M13.209 26.218a.458.458 0 0 0-.454.46.45.45 0 0 0 .454.447.45.45 0 0 0 .453-.447.458.458 0 0 0-.453-.46m8.542 1.614a.462.462 0 0 0-.453.46.45.45 0 0 0 .453.447.45.45 0 0 0 .453-.446.462.462 0 0 0-.453-.461" fill="#fff"/><path d="M43.31 35.576c-.375-.07-.687-.049-.702.05-.014.099.283.24.659.311.375.078.687.064.702-.036.014-.107-.283-.249-.659-.327m.227-.469c-.249-.042-.46-.022-.475.041-.008.057.185.142.431.185.249.042.461.03.476-.036.007-.063-.185-.149-.432-.19m-.453 1.122c-.249-.056-.461-.07-.476-.029-.014.05.185.135.432.19.248.064.46.079.475.03.015-.042-.178-.127-.431-.19" fill="#fff" fill-opacity=".765"/><path d="M35.332 35.002s-1.05.22-1.186 1.092c-.137.877.557 1.494.557 1.494h.172c-.166-.315-.333-.76-.262-1.298.1-.778.706-1.127 1.008-1.251m-.29-.035" fill="#46403d"/></svg>