<svg xmlns="http://www.w3.org/2000/svg" xmlns:xlink="http://www.w3.org/1999/xlink" viewBox="0 0 48 48"><defs><linearGradient id="a"><stop offset="0" stop-color="#42eb00"/><stop offset="1" stop-color="#fff100"/></linearGradient><linearGradient xlink:href="#a" id="b" x1="4.717" y1="7.186" x2="9.033" y2="10.786" gradientUnits="userSpaceOnUse" gradientTransform="translate(-.328 -.285) scale(3.75707)"/></defs><rect width="10.602" height="4.358" x="19.893" y="6.069" rx="1.059" fill="none" stroke="#888" stroke-width=".744"/><path d="M17.563 10.307a3.096 3.096 0 0 0-3.047 3.054v25.713c0 1.65 1.398 3.055 3.047 3.055h15.232c1.649 0 2.926-1.402 2.926-3.055V13.361c0-1.65-1.277-3.054-2.926-3.054z" color="#000" fill="none" stroke="#888" stroke-width="1.059" stroke-opacity=".941"/><path d="M16.632 40.24H33.61l-.036-17.265-16.942 8.415z" fill="url(#b)" stroke-width="3.757"/><path d="M23.296 18.76l-2.183 6.034H16.31v1.667h5.458l1.528-3.712L26.79 31.7l2.183-5.24h4.803v-1.666h-5.458L26.79 27.71z" fill="none" stroke="#888" stroke-linecap="square" stroke-linejoin="bevel"/></svg>