<svg xmlns="http://www.w3.org/2000/svg" viewBox="0 0 48 48"><path d="M15.061 19.252s.734 1.09 1.697 1.077c.994-.006 1.948-.661 2.604-1.356.701-.74 1.189-2.754 1.189-2.754.474 1.455.91 2.78 1.915 3.806 1.04-.487 1.52-1.578 1.98-2.54 1.398 1.118 2.736 2.332 3.463 3.899.422-.416.838-1.06.896-1.761-.051-1.138-.299-2.267-.565-3.404A26.24 26.24 0 0 1 32 17.765a7.868 7.868 0 0 1-.681-2c-3.398-2.3-4.144-5.568-6.38-7.886-2.818 4.054-5.761 8.145-9.879 11.375m10.704 19.381c1.767-.28 3.046-1.085 4.255-2.508-1.072-.344-1.897-1.09-2.273-2.222.293-3.104 5.039-3.462 7.555-5.196-6.45-.722-10.044-2.385-13.894-6.866-1.936.324-3.891.098-5.807-.774-2.675.423-3.8 3.715-6.898 4.151 1.156.3 2.74.442 2.774 1.04 3.203-.93 5.541-.215 8.646.936-.937 2.39-2.71 3.897-5.313 4.917 3.104 1.767 6.84 1.683 9.64 4.235.89.63 1.188 1.656 1.318 2.287" fill="#868686"/><path d="M43.623 23.669c0 .916-.746 1.662-1.663 1.662a1.666 1.666 0 0 1-1.662-1.662c0-.917.746-1.663 1.662-1.663.917 0 1.663.746 1.663 1.663" fill="#00baff"/><path d="M40.954 24.034L24.468 4.346l1.592-1.06 16.537 19.74m-1.643 1.007" fill="#00baff"/><path d="M12.028 33.646c0 .916-.746 1.663-1.663 1.663a1.666 1.666 0 0 1-1.663-1.663c0-.916.747-1.663 1.663-1.663.917 0 1.663.747 1.663 1.663m11.641 4.989c0 .916-.747 1.663-1.663 1.663a1.666 1.666 0 0 1-1.663-1.663c0-.917.746-1.663 1.663-1.663.916 0 1.663.746 1.663 1.663m-3.326 4.988c0 .917-.747 1.663-1.663 1.663a1.666 1.666 0 0 1-1.663-1.663c0-.916.747-1.663 1.663-1.663s1.663.747 1.663 1.663m6.651 0c0 .917-.746 1.663-1.663 1.663a1.666 1.666 0 0 1-1.662-1.663c0-.916.746-1.663 1.662-1.663.917 0 1.663.747 1.663 1.663m-9.977-14.966c0 .916-.747 1.663-1.663 1.663a1.666 1.666 0 0 1-1.663-1.663c0-.916.747-1.663 1.663-1.663s1.663.747 1.663 1.663" fill="#ff00d8"/><path d="M22.039 39.61l-12.18-5.023 1.027-1.897 12.083 5.353m-.93 1.571" fill="#ff00d8"/><path d="M19.27 44.357l3.847-5.548-1.585-.61-3.684 5.098m1.422 1.06" fill="#ff00d8"/><path d="M18.445 44.591l7.425.065-.13-1.493-7.275.006m-7.742-8.627l5.599-5.918-1.715-.637-5.306 5.503m1.422 1.052" fill="#ff00d8"/><path d="M15.886 27.942L5.28 26.318l-.637 1.714 10.192 1.332m1.052-1.422" fill="#ff00d8"/><path d="M4.565 26.344l20.268-23.54 1.059 1.592-20.32 23.598m-1.005-1.65" fill="#23ff5f"/><path d="M26.994 3.714c0 .916-.746 1.663-1.663 1.663a1.666 1.666 0 0 1-1.662-1.663c0-.917.746-1.663 1.662-1.663.917 0 1.663.746 1.663 1.663" fill="#00baff"/><path d="M7.04 26.994c0 .917-.747 1.663-1.663 1.663a1.666 1.666 0 0 1-1.663-1.663c0-.916.746-1.663 1.663-1.663.916 0 1.663.747 1.663 1.663" fill="#66ff63"/></svg>