<svg xmlns="http://www.w3.org/2000/svg" xmlns:xlink="http://www.w3.org/1999/xlink" viewBox="0 0 48 48"><defs><linearGradient id="a"><stop offset="0" stop-color="#65da08"/><stop offset="1" stop-color="#00d2ff"/></linearGradient><linearGradient xlink:href="#a" id="c" x1="16.794" y1="24.367" x2="32.69" y2="24.367" gradientUnits="userSpaceOnUse" gradientTransform="translate(-4.505 .335) scale(1.04782)"/><linearGradient xlink:href="#a" id="b" gradientUnits="userSpaceOnUse" x1="36.742" y1="9.189" x2="2.198" y2="43.417" gradientTransform="translate(2.644 -2.237)"/></defs><path d="M26.644 2.704c-1.767 0-3.477.25-5.1.7l23.46 23.46c.45-1.623.7-3.33.7-5.1 0-10.526-8.533-19.06-19.06-19.06z" fill="none" stroke="url(#b)" stroke-width="1.2" stroke-linejoin="round" stroke-linecap="round"/><path style="line-height:1.25;font-variant-ligatures:normal;font-variant-position:normal;font-variant-caps:normal;font-variant-numeric:normal;font-variant-alternates:normal;font-feature-settings:normal;text-indent:0;text-align:start;text-decoration-line:none;text-decoration-style:solid;text-decoration-color:#000;text-transform:none;text-orientation:mixed;white-space:normal;shape-padding:0;isolation:auto;mix-blend-mode:normal;solid-color:#000;solid-opacity:1" d="M14.025 13.048a.931.931 0 0 0-.933.932v23.774a.93.93 0 0 0 .933.93l17.417.178a.931.931 0 0 0 .933-.932l-.017-5.082a.931.931 0 0 0-.933-.932H20.781V13.98a.931.931 0 0 0-.932-.932zm.93 1.865h3.963v17.934a.931.931 0 0 0 .93.93h10.646L30.511 37l-15.558-.178z" font-weight="400" font-size="23.361" letter-spacing="0" word-spacing="0" overflow="visible" color="#000" font-family="sans-serif" fill="url(#c)" fill-opacity=".992"/></svg>