<svg xmlns="http://www.w3.org/2000/svg" xmlns:xlink="http://www.w3.org/1999/xlink" viewBox="0 0 48 48"><defs><linearGradient id="a"><stop offset="0" stop-color="#00aac8"/><stop offset="1" stop-color="#00d28d"/></linearGradient><linearGradient id="b"><stop offset="0" stop-color="#00d28d"/><stop offset="1" stop-color="#00aac8"/></linearGradient><linearGradient xlink:href="#a" id="c" x1="17" y1="27" x2="33" y2="27" gradientUnits="userSpaceOnUse" gradientTransform="matrix(1.41433 0 0 1.5105 -15.47 -12.431)"/><linearGradient xlink:href="#b" id="d" x1="-13.049" y1="5.534" x2="-40.231" y2="31.421" gradientUnits="userSpaceOnUse" gradientTransform="translate(52.82 2.251)"/></defs><path d="M31.202 16.268v24.168H8.572V16.268h22.63m-1.416 1.51H18.472v6.042h11.314m-12.728-6.042h-7.07v6.042h7.07m12.728 1.51H18.472v6.042h11.314m-12.728-6.04h-7.07v6.042h7.07m12.728 1.512H18.472v6.042h11.314m-12.728-6.046h-7.07v6.042h7.07m0-6.042" fill="url(#c)"/><path d="M26.75 2.463c-1.767 0-3.476.25-5.1.701l23.46 23.46a19.054 19.054 0 0 0 .7-5.101c0-10.527-8.533-19.06-19.06-19.06z" fill="none" stroke="url(#d)" stroke-linejoin="round" stroke-linecap="round"/></svg>