<svg xmlns="http://www.w3.org/2000/svg" xmlns:xlink="http://www.w3.org/1999/xlink" viewBox="0 0 48 48"><defs><linearGradient id="a"><stop offset="0" stop-color="#8900ff"/><stop offset="1" stop-color="#8f056c"/></linearGradient><linearGradient xlink:href="#a" id="c" x1="13" y1="31.5" x2="35" y2="31.5" gradientUnits="userSpaceOnUse" gradientTransform="translate(-4.33 6.82) scale(.94335)"/><linearGradient xlink:href="#a" id="e" x1="13" y1="18" x2="35" y2="18" gradientUnits="userSpaceOnUse" gradientTransform="translate(-4.33 6.82) scale(.94335)"/><linearGradient xlink:href="#a" id="d" x1="13" y1="25.5" x2="35" y2="25.5" gradientUnits="userSpaceOnUse" gradientTransform="translate(-4.33 6.82) scale(.94335)"/><linearGradient xlink:href="#a" id="b" x1="1.025" y1="24" x2="46.974" y2="24" gradientUnits="userSpaceOnUse" gradientTransform="translate(-4.33 6.82) scale(.94335)"/><linearGradient xlink:href="#a" id="f" x1="-13.049" y1="5.534" x2="-40.231" y2="31.421" gradientUnits="userSpaceOnUse" gradientTransform="translate(52.107 2.915)"/></defs><path d="M14.538 8.096c-.318.056-.632.118-.944.187v22.12H2.638c.012.317.035.63.062.944h10.893V44.64c.312.068.627.13.943.186V31.347h11.322V43.61h8.892c.266-.307.524-.62.772-.941H26.8V31.347h13.12c.027-.312.048-.627.064-.943h-6.58V19.88c-.307-.296-.62-.582-.945-.86v11.385H14.536V8.096z" fill="url(#b)"/><path d="M8.05 33.235a1.163 1.163 0 0 0-.116.47v2.832c0 1.83 4.628 3.3 10.376 3.3 5.75 0 10.377-1.472 10.377-3.302v-2.828c0-.159-.048-.318-.116-.47-.716 1.603-5.017 2.83-10.259 2.83-5.246 0-9.546-1.227-10.262-2.832z" fill="url(#c)"/><path d="M8.05 27.574a1.163 1.163 0 0 0-.116.471v2.831c0 1.83 4.628 3.302 10.376 3.302 5.75 0 10.377-1.473 10.377-3.302v-2.83c0-.16-.048-.319-.116-.472-.716 1.604-5.017 2.831-10.259 2.831-5.246 0-9.546-1.227-10.262-2.83z" fill="url(#d)"/><path d="M23.971 31.347h.943v.943h-.943m0 4.717h.943v.944h-.943m0-.943" fill="#ff00d9"/><rect x="7.934" y="19.084" width="20.753" height="9.434" rx="10.377" ry="3.302" fill="url(#e)"/><path d="M23.971 25.688h.943v.943h-.943m0-.943" fill="#ff00d9"/><path d="M26.038 3.127c-1.767 0-3.477.25-5.1.7l23.46 23.462c.45-1.624.7-3.33.7-5.1 0-10.527-8.534-19.06-19.06-19.06z" fill="none" stroke="url(#f)" stroke-linejoin="round" stroke-linecap="round"/></svg>