<svg xmlns="http://www.w3.org/2000/svg" xmlns:xlink="http://www.w3.org/1999/xlink" viewBox="0 0 48 48"><defs><linearGradient id="a"><stop stop-color="#00b9ff" offset="0"/><stop stop-color="#70ff09" offset="1"/></linearGradient><linearGradient xlink:href="#a" id="b" x1="6.555" y1="22.799" x2="44.135" y2="22.799" gradientUnits="userSpaceOnUse" gradientTransform="translate(-3.108 2.355) scale(1.09056)"/><linearGradient xlink:href="#a" id="c" x1="13.677" y1="8.547" x2="37.003" y2="8.547" gradientUnits="userSpaceOnUse" gradientTransform="translate(-3.108 2.355) scale(1.09056)"/><linearGradient xlink:href="#a" id="d" x1="16.968" y1="24.476" x2="32.506" y2="24.476" gradientUnits="userSpaceOnUse" gradientTransform="translate(-2.665 .913) scale(1.09056)"/></defs><path d="M6.267 11.676c-.828-.044-1.618.916-1.506 1.552 1.428 9.44 1.502 18.256 0 27.984-.104.639.679 1.583 1.506 1.55H42.78c.845.033 1.622-.911 1.523-1.551-1.502-9.722-1.523-18.653 0-27.983.11-.64-.678-1.601-1.523-1.552-12.349.669-24.477.558-36.513 0m0 0" fill="none" stroke="url(#b)" stroke-width="2.068"/><path d="M14.633 18.035a2.121 2.121 0 1 1-4.241 0 2.121 2.121 0 0 1 4.242 0m24.024 0a2.121 2.121 0 1 1-4.24 0 2.121 2.121 0 0 1 4.241 0m0 0"/><path d="M12.514 18.742c-.706 0-.706-.817-.706-1.412 0-5.668 4.24-12.72 12.719-12.72 8.473 0 12.719 7.05 12.719 12.72 0 .595 0 1.412-.707 1.412-.706 0-.706-.817-.706-1.412 0-4.478-4.24-11.306-11.306-11.306-7.067 0-11.306 6.828-11.306 11.306 0 .595 0 1.412-.701 1.412m0 0" fill="url(#c)"/><path d="M25.719 19.129l-2.827.207v11.74l2.825-.36v-5.123c1.279 1.93 2.244 3.723 3.954 5.588l3.052-.878c-1.633-1.893-2.855-3.56-3.97-5.379 1.161-1.708 2.613-3.424 4.032-4.959l-3.163-.775c-1.478 1.663-2.728 3.383-3.904 5.11m-6.776-2.766a.24.24 0 0 0-.13.07c-.348.327-.677.657-1.02.984-.153.146.002.32.068.442l.701.967.524.707c.074.101.097.113.059.185a10.352 10.352 0 0 0-.131.21c-.68 1.145-.203 1.232-1.662 1.605l-1.118.185c-.166.055-.382.05-.393.279v1.385c-.01.211.23.23.368.267l1.19.206.892.162c.122.017.148-.01.177.079.365 1.538.84 1.184.046 2.529l-.64.89c-.085.156-.243.308-.082.464.336.334.66.671 1 1.006.148.145.342-.003.463-.07l.985-.684.736-.496c.102-.082.117-.101.19-.058 1.478.902 1.53.251 1.96 1.77l.212 1.087c.055.163.061.37.287.38h1.434c.215 0 .234-.246.262-.382l.2-1.156.142-.853c.01-.082.007-.125.022-.153 1.73-.355 1.3-.856 2.708-.057l.913.624c.168.082.327.226.487.072.338-.32.676-.644 1.016-.96.152-.154.004-.33-.068-.45h-.002l-.666-.912-.436.148c-.113.073-.262.047-.395-.127l-.96-1.237a4.953 4.953 0 0 1-3.99 1.99c-2.71 0-4.92-2.15-4.92-4.787 0-1.876 1.115-3.497 2.733-4.283v-1.101c-.056.027-.12.041-.166.059-.633.255-.673.37-1.71-.208l-.912-.633c-.128-.055-.24-.16-.355-.133m3.136 2.461c-1.374.757-2.308 2.205-2.308 3.853 0 2.43 2.038 4.417 4.543 4.417a4.545 4.545 0 0 0 3.725-1.926l-.044-.093c-.96 1.036-2.044 1.712-3.694 1.747-2.056.035-4.137-1.747-4.148-4.096-.016-1.516.701-2.533 1.924-3.258v-.638" fill="url(#d)" fill-rule="evenodd"/></svg>