<svg xmlns="http://www.w3.org/2000/svg" xmlns:xlink="http://www.w3.org/1999/xlink" height="64" width="64"><defs><linearGradient id="a" y2="518.86" gradientUnits="userSpaceOnUse" x2="179" gradientTransform="rotate(90 326.18 206.18)" y1="518.86" x1="124"><stop stop-color="#007ad4" offset="0"/><stop stop-color="#82c9ff" offset="1"/></linearGradient><linearGradient x1="124" y1="518.86" gradientTransform="rotate(90 326.18 206.18)" x2="179" gradientUnits="userSpaceOnUse" y2="518.86" id="b"><stop offset="0" stop-color="#609ecc"/><stop offset="1" stop-color="#82c9ff"/></linearGradient><linearGradient xlink:href="#a" id="d" x1="7.965" y1="32.002" x2="41.994" y2="32.002" gradientUnits="userSpaceOnUse" gradientTransform="translate(1.512 1.053)"/><linearGradient xlink:href="#b" id="c" x1="30" y1="32" x2="56" y2="32" gradientUnits="userSpaceOnUse" gradientTransform="translate(-.525 1.055)"/></defs><rect style="isolation:auto;mix-blend-mode:normal;solid-color:#000" ry="4" height="48" width="26" y="9.055" x="29.475" color="#000" fill="none" stroke="url(#c)" stroke-width="3.6" stroke-linecap="round" stroke-linejoin="bevel"/><path d="M51.475 7.735l-3.966.049-.034 23.871 2-1 2 1z" fill="#ff0083" fill-rule="evenodd"/><path style="isolation:auto;mix-blend-mode:normal;solid-color:#000" d="M40.612 5.024a1.997 1.997 0 0 0-.328.031l-20.81 4h-6.777c-1.77.27-3.22 1.78-3.22 4v40c0 2.216 1.451 3.725 3.222 4h6.778l20.777 4c1.77.31 3.23-1.78 3.23-4l.022-48c0-2.078-1.279-4.051-2.895-4.031z" color="#000" fill="none" stroke="url(#d)" stroke-width="3.6" stroke-linecap="round" stroke-linejoin="bevel"/><g fill-rule="evenodd"><path d="M32.344 39l-3-25c-1-2-8-2-8-4 0-1.656 2.067 0 9.531 2 1.5.402 4.125 27 4.125 27z" fill="#343031"/><path d="M30.749 3.317c.4.002.751.01 1.033.01 1.125 0 3.375.483 3.375 6.62 0 6.135-1.125 11.03-7.876 7.72-2.25-1.103-4.5-2.654-4.5-6.618 0-7.329 5.168-7.743 7.968-7.732zm.31 20.434c2.932.254 3.518 3.942 3.518 8.291 0 5.799-2.085 6.255-3.127 6.255-.26 0-.587.009-.957.01-2.594.01-7.383-.38-7.383-7.307 0-3.747 2.085-5.213 4.17-6.255 1.564-.782 2.802-1.078 3.779-.994z" fill="#e2f2fe"/><path d="M22.875 9.51c-.056.479-.093.983-.093 1.539 0 .091.007.175.009.263.434.175.945.329 1.477.479.54-.125.77-.564 1.422-.41.839.199 3.689 1.172 4.242 1.592.552.42.398 2.318.486 3.711.058.905-.286 1.463-.541 1.763l.018.151c1.049.211 1.899.133 2.58-.184-.567-3.56-1.137-6.29-1.6-6.414-4.174-1.118-6.62-2.106-8-2.49zm8.184 14.24c-.17-.015-.36-.003-.545.006l1.73 14.414c.88-.278 1.909-1.193 2.23-4.115a493.921 493.921 0 0 0-1.017-8.723c-.532-.911-1.301-1.487-2.398-1.582z" fill="#82c8fa"/><path d="M32.344 2s0 1-1 1c-4 0-9 0-9 8 0 3.594 2 6 4 7s6 .764 6 3c0 2.236-4 2-6 3s-4 3.406-4 7c0 8 5 8 9 8 1 0 1 1 1 1h3s1-2.438 1-8c0-5.563-2-8-2-11s2-5.438 2-11c0-5.563-1-8-1-8zm-1.918 1.99c.356.002.668.01.918.01 1 0 3 .438 3 6 0 5.563-1 10-7 7-2-1-4-2.406-4-6 0-6.644 4.594-7.02 7.082-7.01zm.543 20.057c2.813.243 3.375 3.781 3.375 7.953 0 5.563-2 6-3 6-.25 0-.563.009-.918.01-2.488.01-7.082-.365-7.082-7.01 0-3.594 2-5 4-6 1.5-.75 2.687-1.034 3.625-.953z" fill="#534d52"/></g></svg>