<svg xmlns="http://www.w3.org/2000/svg" viewBox="0 0 48 48"><path d="M9.665 39.77H41.31v-2.434c-.828-3.651-5.073-7.854-10.365-10.021l-3.456 3.361-1.093-.728-3.033-.067-.97 1.123-3.676-3.647c-4.046 1.783-8.22 5.686-9.053 9.98zm0 0" fill="none" stroke="#ff0063" stroke-width="1.217"/><path d="M24.817 10.964c3.519 0 6.365 2.963 6.365 6.614v2.985c0 3.652-2.848 6.61-6.365 6.61-3.514 0-6.365-2.958-6.365-6.61v-2.985c0-3.651 2.852-6.614 6.365-6.614m0 0" fill="none"/><path d="M29.248 25.336c.686-.671 2.435-2.078 2.63-3.005l-.068-5.32-10.136-3.766-1.649 1.397-2.733 3.557.67 4.012.357 1.028 2.063 2.092m8.866.005" fill="none"/><path d="M18.368 23.26v-4.954c.504-2.163 2.6-4.35 3.646-4.322 1.783.224 3.028 1.801 4.093 3.332 1.341 1.142 4.692 1.212 5.567 0v5.544c.993-.385 2.235-1.863 2.446-3.138-.251-15.36-17.453-15.076-17.924-1.416.148 1.72 1.175 4.145 2.173 4.953m0 0" fill="#565656"/><path d="M24.822 29.91l4.426-4.589 2.216 2.292-4.427 4.588m-6.642-6.878l4.427 4.589-2.21 2.292-4.427-4.584m2.21-2.297" fill="#007fff"/></svg>