<svg xmlns="http://www.w3.org/2000/svg" xmlns:xlink="http://www.w3.org/1999/xlink" viewBox="0 0 48 48"><defs><linearGradient id="b"><stop stop-color="#00ff4d" offset="0"/><stop stop-color="#00c018" offset="1"/></linearGradient><linearGradient gradientUnits="userSpaceOnUse" y2="47" y1="1" x2="0" id="a"><stop offset="0" stop-color="#49cf59"/><stop offset="1" stop-color="#00ff1d"/></linearGradient><linearGradient xlink:href="#b" id="c" x1="5.653" y1="12.407" x2="43.16" y2="35.593" gradientUnits="userSpaceOnUse"/><linearGradient xlink:href="#a" id="d" x1="12.584" y1="26.33" x2="45.789" y2="26.33" gradientUnits="userSpaceOnUse"/></defs><path d="M21.291 3.686l-1.896 4.74a16.252 16.252 0 0 0-3.145 1.306l-4.7-2.013-3.83 3.83 2.004 4.682a16.252 16.252 0 0 0-1.301 3.167L3.686 21.29v5.418l4.74 1.896a16.252 16.252 0 0 0 1.306 3.145l-2.013 4.7 3.83 3.83 4.682-2.004c1.007.544 2.068.98 3.167 1.3l1.893 4.738h5.418l1.896-4.74a16.252 16.252 0 0 0 3.145-1.306l4.7 2.012 3.83-3.83-2.004-4.681c.544-1.007.98-2.068 1.301-3.167l4.737-1.893V21.29l-4.74-1.896a16.252 16.252 0 0 0-1.306-3.145l2.013-4.7-3.83-3.83-4.682 2.004a16.252 16.252 0 0 0-3.167-1.301L26.71 3.686z" fill="none" stroke="url(#c)" stroke-width="1.8"/><g fill="url(#d)" stroke-width="1.5"><path d="M28 35l4 4-3 2-4.467-4.467"/><path d="M22.269 11.66c-8.302 0-9.685 5.277-9.685 12.453 0 7.175 1.383 12.452 9.685 12.452 8.301 0 9.685-5.535 9.685-12.452 0-6.918-1.384-12.453-9.685-12.453zm0 4.151c4.15 0 5.534 2.767 5.534 8.302 0 5.534-1.384 8.301-5.534 8.301-4.151 0-5.535-3.12-5.535-8.301 0-5.183 1.384-8.302 5.535-8.302zm15.219-2.767h4.15v5.534h4.151v2.767h-4.15v9.685c0 2.768 1.383 2.768 2.075 2.768h2.075v2.767H42.33c-2.767 0-4.842-2.767-4.842-5.535v-9.685H34.72v-2.767h2.767z"/></g></svg>