<svg xmlns="http://www.w3.org/2000/svg" xmlns:xlink="http://www.w3.org/1999/xlink" viewBox="0 0 48 48"><defs><linearGradient id="b"><stop offset="0" stop-color="#ff0096"/><stop offset="1" stop-color="#080808"/></linearGradient><linearGradient id="a"><stop offset="0" stop-color="#e800ff"/><stop offset="1" stop-color="#2e00ff"/></linearGradient><linearGradient xlink:href="#a" id="c" x1="11.932" y1="15.01" x2="25.802" y2="28.193" gradientUnits="userSpaceOnUse" gradientTransform="translate(3.729 3.063) scale(.86682)"/><linearGradient xlink:href="#b" id="d" x1="22.061" y1="20.475" x2="37.129" y2="34.191" gradientUnits="userSpaceOnUse" gradientTransform="translate(3.729 3.063) scale(.86682)"/></defs><path d="M13.724 14.332a.525.525 0 0 0-.46.515v9.375c0 .274.24.515.515.515h4.686v1.734h-3.468v1.733h6.312v-5.2h-5.93a.371.371 0 0 1-.355-.356v-6.227c-.003-.163.112-.322.272-.352a.317.317 0 0 1 .081 0h9.643c.18 0 .352.166.352.352v2.492h1.76v-4.066a.533.533 0 0 0-.514-.515m-12.894 0" fill="url(#c)" transform="translate(-12.513 -11.904) scale(1.52739)"/><path d="M22.396 19.533a.54.54 0 0 0-.468.518v9.37c0 .27.251.518.522.518h4.68v2.593h3.467V29.94h4.682a.539.539 0 0 0 .519-.518v-9.37a.54.54 0 0 0-.519-.518m-11.312 1.733a.197.197 0 0 1 .064 0h9.661c.183 0 .348.166.348.349v6.244a.36.36 0 0 1-.348.345h-9.66a.36.36 0 0 1-.35-.345v-6.244a.361.361 0 0 1 .285-.349m-.305 10.402v1.734h10.402v-1.734m-10.402 0" fill="url(#d)" transform="translate(-12.513 -11.904) scale(1.52739)"/></svg>