<svg xmlns="http://www.w3.org/2000/svg" xmlns:xlink="http://www.w3.org/1999/xlink" viewBox="0 0 48 48"><defs><linearGradient id="a"><stop offset="0" stop-color="#f761db" stop-opacity=".996"/><stop offset="1" stop-color="#bc002f"/></linearGradient><linearGradient xlink:href="#a" id="b" x1="13.137" y1="12.919" x2="34.719" y2="34.348" gradientUnits="userSpaceOnUse"/></defs><path d="M11.162 9.548L11.124 25c-.023 9.013 3.863 11.589 12.875 15.452C33.013 36.589 36.9 34.013 36.876 25l-.04-15.452zM24 12.124c.71 0 1.287.578 1.287 1.287a1.286 1.286 0 1 1-2.575 0c0-.71.573-1.287 1.288-1.287m0 5.15c.71 0 1.287.578 1.287 1.288a1.286 1.286 0 1 1-2.575 0c0-.71.573-1.288 1.288-1.288m-10.301 5.15c.71 0 1.287.579 1.287 1.288a1.286 1.286 0 1 1-1.288-1.288m5.151 0c.71 0 1.288.579 1.288 1.288a1.286 1.286 0 1 1-1.288-1.288m5.15 0c.71 0 1.288.579 1.288 1.288a1.286 1.286 0 1 1-1.288-1.288m5.151 0c.71 0 1.288.579 1.288 1.288a1.286 1.286 0 1 1-1.288-1.288m5.15 0c.71 0 1.288.579 1.288 1.288a1.286 1.286 0 1 1-1.288-1.288M24 27.576c.71 0 1.287.578 1.287 1.288a1.286 1.286 0 1 1-2.575 0c0-.71.573-1.288 1.288-1.288m0 5.15c.71 0 1.287.579 1.287 1.288a1.286 1.286 0 1 1-1.288-1.288" fill="none" stroke-width="1.288" stroke="url(#b)" stroke-linejoin="round" stroke-linecap="round"/></svg>