<svg xmlns="http://www.w3.org/2000/svg" xmlns:xlink="http://www.w3.org/1999/xlink" viewBox="0 0 48 48"><defs><linearGradient id="b"><stop offset="0" stop-color="#00e7dd"/><stop offset="1" stop-color="#00ff2a"/></linearGradient><linearGradient id="a"><stop offset="0" stop-color="#e300ff"/><stop offset="1" stop-color="#ff005f"/></linearGradient><linearGradient xlink:href="#a" id="d" x1="13.5" y1="16.667" x2="21.801" y2="16.667" gradientUnits="userSpaceOnUse"/><linearGradient xlink:href="#a" id="c" x1="21.5" y1="21.006" x2="28.5" y2="21.006" gradientUnits="userSpaceOnUse"/><linearGradient xlink:href="#b" id="f" x1="13.5" y1="30.657" x2="21.801" y2="30.657" gradientUnits="userSpaceOnUse"/><linearGradient xlink:href="#b" id="e" x1="21.5" y1="35.004" x2="28.5" y2="35.004" gradientUnits="userSpaceOnUse"/></defs><g fill="none" stroke="#000" stroke-linecap="round" stroke-linejoin="round" paint-order="fill markers stroke"><path d="M28 22v-1.996h-6V22m6 0" stroke="url(#c)" transform="translate(-3.504 -9.429) scale(1.3449)"/><path d="M15.668 21.332L14 19.633l3.754-2.969L14 13.695l1.668-1.699 5.633 4.664-5.633 4.664m0 .008" stroke="url(#d)" transform="translate(-3.504 -9.429) scale(1.3449)"/><path d="M28 36v-2h-6v2m6 0" stroke="url(#e)" transform="translate(-3.504 -9.429) scale(1.3449)"/><path d="M15.668 35.32L14 33.621l3.754-2.969L14 27.683l1.668-1.695 5.633 4.66-5.633 4.664m0 .008" stroke="url(#f)" transform="translate(-3.504 -9.429) scale(1.3449)"/></g></svg>