<svg xmlns="http://www.w3.org/2000/svg" xmlns:xlink="http://www.w3.org/1999/xlink" viewBox="0 0 48 48"><defs><linearGradient id="a" x1="1" x2="47" gradientUnits="userSpaceOnUse" gradientTransform="rotate(-90 24 24)"><stop offset="0" stop-color="#00eb7f" stop-opacity=".948"/><stop offset="1" stop-color="#0006ff" stop-opacity=".573"/></linearGradient><linearGradient xlink:href="#a" id="c" gradientUnits="userSpaceOnUse" x1="7.325" y1="6.508" x2="8.874" y2="9.378" gradientTransform="translate(1.99 4.287) scale(2.87656)"/><linearGradient xlink:href="#a" id="d" gradientUnits="userSpaceOnUse" x1="6.234" y1="4.814" x2="8.874" y2="9.378" gradientTransform="translate(1.99 4.287) scale(2.87656)"/><linearGradient xlink:href="#a" id="b" gradientUnits="userSpaceOnUse" x1="5.78" y1="9.9" x2="40.07" y2="39.056"/></defs><path d="M24 1c12.703 0 23 10.297 23 23S36.703 47 24 47 1 36.703 1 24 11.297 1 24 1z" transform="matrix(.783 0 0 .783 5.31 5.31)" stroke-width="1.8" stroke="url(#b)" fill="none"/><path stroke-miterlimit="1" d="M23.562 20.71v12.65h2.104V20.71z" fill="none" stroke="url(#c)" stroke-width="1.626" stroke-linejoin="round" paint-order="markers fill stroke"/><path d="M25.684 16.38a1.052 1.052 0 1 1-2.105 0 1.052 1.052 0 0 1 2.105 0z" fill="none" stroke="url(#d)" stroke-width="2.679"/></svg>