<svg xmlns="http://www.w3.org/2000/svg" xmlns:xlink="http://www.w3.org/1999/xlink" viewBox="0 0 48 48"><defs><linearGradient gradientUnits="userSpaceOnUse" gradientTransform="rotate(-90 -8.644 61.119)" x2="47" x1="1" id="a"><stop offset="0" stop-color="#239523"/><stop offset="1" stop-color="#ff10b8"/></linearGradient><linearGradient xlink:href="#a" id="b" x1="25.364" y1="-1.424" x2="54.429" y2="-1.424" gradientUnits="userSpaceOnUse" gradientTransform="translate(-25.855 25.147) scale(1.27381)"/></defs><path d="M28.453 8.34l-.637.637v1.274l.637.637h1.91v1.274L16.353 24.9V10.888l-6.37 6.369V24.9l7.163 7.162 18.463-17.204L29.09 8.34zm-12.101 2.548h1.91l.637-.637V8.977l-.318-.318zm11.33 12.738l-.903.637-.428 1.274.478.637h1.378l.903-.637.426-1.274-.475-.637zm-3.304 3.821l-.383 1.274h1.146l-2.42 6.37h3.821l.47-1.274h-1.107l2.42-6.37h-3.948zm5.476 0l-.446 1.274h.956l-2.344 6.166 3.91-3.911.344-.98h.637l1.274-1.275h-.764l-1.147-1.274z" opacity=".1" fill="none" stroke="#000" stroke-width="1.274"/><path d="M7.728 9.321l-.637.637v1.274l.637.637h1.91v24.84l.638.636h1.91L40.21 11.232V9.958l-.637-.637H28.11l-.637.637v1.274l.637.637h1.91v1.274L16.009 25.88V11.869h1.91l.638-.637V9.958l-.637-.637zm19.61 15.286l-.903.637-.428 1.274.478.636h1.378l.903-.636.426-1.274-.475-.637m-4.683 3.821l-.383 1.274h1.146l-2.42 6.37h3.821l.47-1.275h-1.107l2.42-6.369m1.528 0l-.446 1.274h.956l-2.42 6.37h3.249l.446-1.275h-.702l1.339-3.821h2.706l-1.816 5.095h3.184l.51-1.274h-.7l1.337-3.821H39.7l-1.784 5.095h3.339l.585-1.274h-.89l1.808-5.095-1.02-1.274H40.21l-1.274 1.274h-1.082l-1.084-1.274h-1.21l-1.21 1.274h-1.273l-1.146-1.274" fill="none" stroke="url(#b)" stroke-width="1.274"/></svg>