<svg xmlns="http://www.w3.org/2000/svg" xmlns:xlink="http://www.w3.org/1999/xlink" viewBox="0 0 48 48"><defs><linearGradient id="a"><stop offset="0" stop-color="#007dff"/><stop offset="1" stop-color="#00ff63"/></linearGradient><linearGradient xlink:href="#a" id="b" gradientUnits="userSpaceOnUse" x1="36.466" y1="24.102" x2="12.093" y2="24.254" gradientTransform="translate(35.39 -21.966)"/></defs><path d="M48.39-9.966c-1 0-1 0-1 1v22c0 .984 0 1 1 1h22c1 0 1 0 1-1v-22c0-1 0-1-1-1zm11.035 7.934c.773 2.82 1.53 5.645 2.28 8.469.704-2.656 1.419-5.313 2.126-7.97 1.563 3.579.07-.015 1.665 3.579h3.898v10H55.777c1.02-4.734 2.398-9.387 3.648-14.06M49.403-7.972l9.925-.025c-1.277 4.89-2.602 9.77-3.902 14.652-2.031-5.625-.031-.027-2.031-5.625h-4v2.006m0 0h3l3 9h-5.996l.006-19.822M59.515-8l9.876.03v8h-3c-2.56-7.64 0 0-2.563-7.812L61.703.124a810.56 810.56 0 0 0-2.188-8.125l-9.939.05" stroke="url(#b)" stroke-width="1.2" stroke-linecap="round" stroke-linejoin="round" paint-order="stroke fill markers" transform="translate(-61.42 21.65) scale(1.45656)" fill="none"/></svg>