<svg xmlns="http://www.w3.org/2000/svg" xmlns:xlink="http://www.w3.org/1999/xlink" height="64" width="64"><defs><linearGradient id="a"><stop offset="0" stop-color="#ff002f"/><stop offset="1" stop-color="#ff1196" stop-opacity="0"/></linearGradient><linearGradient id="b"><stop stop-color="#ff002f" offset="0"/><stop stop-color="#ff1196" offset="1"/></linearGradient><linearGradient xlink:href="#a" id="c" x1="93.996" y1="105.92" x2="94.907" y2="85.594" gradientUnits="userSpaceOnUse" gradientTransform="matrix(.56338 0 0 .56075 -20.653 -2.153)"/><linearGradient xlink:href="#b" id="d" x1="16.066" y1="30.258" x2="50.842" y2="30.258" gradientUnits="userSpaceOnUse" gradientTransform="translate(4.772 4.57) scale(.85793)"/></defs><path style="isolation:auto;mix-blend-mode:normal;solid-color:#000;solid-opacity:1" d="M15.215 47.425l-9.94 9.894h56.729l-9.94-9.893" overflow="visible" color="#000" fill="none" stroke="url(#c)" stroke-width="1.932" stroke-linecap="round" stroke-linejoin="round" paint-order="fill markers stroke"/><path d="M32.328 9.417c-1.271 0-1.916 1.081-2.295 2.295l-1.642 5.254c1.677.312 3.379.473 5.084.482 1.705-.014 5.08-.495 5.08-.495l-1.638-5.241c-.379-1.214-1.023-2.295-2.294-2.295zm8.907 16.11a28.693 28.693 0 0 1-7.76 1.1 28.69 28.69 0 0 1-7.756-1.107c-1.301 3.78-1.19 3.805-2.599 8.311a28.677 28.677 0 0 0 10.355 1.975 28.692 28.692 0 0 0 10.349-1.995zm5.114 16.37a28.686 28.686 0 0 1-12.874 3.087c-4.473-.02-12.867-3.112-12.867-3.112s-1.976 4.266-2.049 6.554c-.01.352-.012.793.252 1.026 3.605 3.188 9.458 3.825 14.338 3.888 4.881.063 10.91-.479 14.79-3.553.374-.297.448-.883.452-1.36.021-2.281-1.072-3.025-2.042-6.53z" fill="none" stroke="url(#d)" stroke-width="2.574" stroke-linecap="round" stroke-linejoin="round"/></svg>