<svg xmlns="http://www.w3.org/2000/svg" xmlns:xlink="http://www.w3.org/1999/xlink" height="64" width="64"><defs><linearGradient id="a"><stop offset="0" stop-color="#ef02ff"/><stop offset="1" stop-color="#008dff"/></linearGradient><linearGradient xlink:href="#a" id="b" x1="15.785" y1="15.56" x2="52.988" y2="53.567" gradientUnits="userSpaceOnUse"/><linearGradient xlink:href="#a" id="c" x1="18.384" y1="32" x2="45.616" y2="32" gradientUnits="userSpaceOnUse"/></defs><path d="M12 8c-2.216 0-4 1.784-4 4v24a4 4 0 0 1 0 8v8c0 2.216 1.784 4 4 4h40c2.216 0 4-1.784 4-4v-8a4 4 0 0 1 0-8V12c0-2.216-1.784-4-4-4z" style="isolation:auto;mix-blend-mode:normal;solid-color:#000;solid-opacity:1" color="#000" overflow="visible" fill="none"/><path d="M12 8c-2.216 0-4 1.784-4 4v24a4 4 0 0 1 0 8v8c0 2.216 1.784 4 4 4h40c2.216 0 4-1.784 4-4v-8a4 4 0 0 1 0-8V12c0-2.216-1.784-4-4-4zm0 2h40c1.143 0 2 .857 2 2v22.41c-2.31.838-4 3.007-4 5.59 0 2.583 1.69 4.755 4 5.592V52c0 1.143-.857 2-2 2H12c-1.143 0-2-.857-2-2v-6.408c2.31-.837 4-3.01 4-5.592 0-2.583-1.69-4.752-4-5.59V12c0-1.143.857-2 2-2z" style="line-height:normal;text-indent:0;text-align:start;text-decoration-line:none;text-decoration-style:solid;text-decoration-color:#000;text-transform:none;block-progression:tb;white-space:normal;isolation:auto;mix-blend-mode:normal;solid-color:#000;solid-opacity:1" color="#000" font-weight="400" font-family="sans-serif" overflow="visible" fill="url(#b)"/><circle r="2" cy="49.437" cx="15.005" style="isolation:auto;mix-blend-mode:normal;solid-color:#000;solid-opacity:1" color="#000" overflow="visible" fill="#ef02ff"/><path d="M18.884 18.884v26.232h26.232V18.884zm1.874 1.874h22.484v22.484H20.758zm9.368 3.747v3.748h3.748v-3.748zm0 5.621v9.369h3.748v-9.369z" style="isolation:auto;mix-blend-mode:normal;solid-color:#000;solid-opacity:1" color="#000" overflow="visible" fill="url(#c)"/><path style="isolation:auto;mix-blend-mode:normal;solid-color:#000;solid-opacity:1" color="#000" overflow="visible" fill="#ef02ff" d="M50.088 11.237h2v2h-2zm-2 2h2v2h-2zm-2-2h2v2h-2zm-2 2h2v2h-2zm-2-2h2v2h-2zm-2 2h2v2h-2zm-2-2h2v2h-2zm-2 2h2v2h-2zm-2-2h2v2h-2zm-2 2h2v2h-2z"/><circle r="2" cy="49.328" cx="49.939" style="isolation:auto;mix-blend-mode:normal;solid-color:#000;solid-opacity:1" color="#000" overflow="visible" fill="#ef02ff"/></svg>