<svg xmlns="http://www.w3.org/2000/svg" xmlns:xlink="http://www.w3.org/1999/xlink" viewBox="0 0 48 48"><defs><linearGradient gradientUnits="userSpaceOnUse" gradientTransform="rotate(-90 24 24)" x2="47" x1="1" id="a"><stop offset="0" stop-color="#00b9ff"/><stop offset="1" stop-color="#006abd"/></linearGradient><linearGradient id="b" x1="1" x2="47" gradientTransform="rotate(-90 24 24)" gradientUnits="userSpaceOnUse"><stop offset="0" stop-color="#186dae"/><stop offset="1" stop-color="#1b77bf"/></linearGradient><linearGradient xlink:href="#a" id="g" x1="9.183" y1="12.951" x2="52.63" y2="35.528" gradientUnits="userSpaceOnUse"/><linearGradient xlink:href="#a" id="d" x1="23.644" y1="23.524" x2="38.193" y2="23.524" gradientUnits="userSpaceOnUse"/><linearGradient xlink:href="#b" id="c" x1="10.807" y1="24.21" x2="38.193" y2="24.21" gradientUnits="userSpaceOnUse"/><linearGradient xlink:href="#a" id="e" x1="10.563" y1="31.618" x2="38.599" y2="31.618" gradientUnits="userSpaceOnUse"/><linearGradient xlink:href="#a" id="f" gradientUnits="userSpaceOnUse" x1="11.377" y1="26.94" x2="55.074" y2="44.838"/></defs><path d="M37.337 36.894V19.33L24.5 11.667 11.663 19.33v17.565" fill="none" stroke="url(#c)" stroke-width="2.2"/><path d="M37.337 36.874V19.351L24.5 11.682v17.524" fill="none" stroke-width="2.2" stroke="url(#d)"/><g stroke="url(#e)" stroke-width="2.2" fill="none"><path d="M11.663 19.349v17.545L24.5 44.542l12.837-7.649V19.35L24.5 26.998z" stroke="url(#f)"/><path stroke-linejoin="round" d="M33.058 34.667L24.5 27.022v17.52l12.837-7.665.162-4.844z"/></g><path d="M15.407 3.45L3.105 11.667l8.558 7.67 12.837-7.67zm9.093 8.217l12.837 7.67 8.558-7.67L33.593 3.45zm12.837 7.67L24.5 27.004l8.558 7.662 12.837-8.21zM24.5 27.004l-12.837-7.669-8.558 7.12 12.837 8.211z" fill="none" stroke-width="2.2" stroke="url(#g)"/></svg>