<svg xmlns="http://www.w3.org/2000/svg" xmlns:xlink="http://www.w3.org/1999/xlink" viewBox="0 0 48 48"><defs><linearGradient id="a"><stop offset="0" stop-color="#7874c2"/><stop offset="1" stop-color="#4911f4" stop-opacity=".604"/></linearGradient><linearGradient xlink:href="#a" id="b" gradientUnits="userSpaceOnUse" x1="26.2" y1="24" x2="50.2" y2="24"/></defs><path d="M46.2 11h-7c2.131.494 7 1.613 7 2.5 0 1.89-9-.5-11-.5-1 0-2.997.168-3 1.5-.008 3.5 4.702 6.5 8 8.5-2.297-.666-4.4-1-6.4-1-2.6 0-7.6 1-7.6 4.5 0 3.096 6.268 5.942 8 6.5 3.01.97 8 1.495 8 2 0 .5-4 1-9 1h-3c2 1 5 1 8 1l3-.002c2-.001 7-.07 7-1.798 0-1.508-6-2.781-9-3.4-4.184-.863-7.223-2.542-7-3.8.533-3.01 8-3 14-3-2.617-2.101-9-6-9-7.7 0-.728 1-.895 2-.9 4-.02 7 .85 8 .85 2 0 3-1.25 3-2.75 0-2.5-3-3.5-4-3.5z" stroke="url(#b)" transform="translate(-26.703 -7.484) scale(1.35348)" fill="none" stroke-width="1.23" stroke-linecap="round" stroke-linejoin="round"/></svg>