<svg xmlns="http://www.w3.org/2000/svg" xmlns:xlink="http://www.w3.org/1999/xlink" width="48" height="48"><defs><linearGradient id="c"><stop stop-color="#00f4ff" offset="0"/><stop stop-color="#0037dc" offset="1"/></linearGradient><linearGradient id="a"><stop offset="0" stop-color="#00ff7f"/><stop offset="1" stop-color="#5fff00"/></linearGradient><linearGradient xlink:href="#a" id="d" x1="3" y1="24" x2="45" y2="24" gradientUnits="userSpaceOnUse"/><linearGradient xlink:href="#a" id="e" gradientUnits="userSpaceOnUse" x1="3" y1="24" x2="45" y2="24"/><linearGradient xlink:href="#a" id="f" gradientUnits="userSpaceOnUse" x1="3" y1="24" x2="45" y2="24"/><linearGradient xlink:href="#b" id="i" x1="2.5" y1="1012.862" x2="125.5" y2="1012.862" gradientUnits="userSpaceOnUse" gradientTransform="translate(-60.04 -327.872) scale(.35338)"/><linearGradient id="b"><stop offset="0" stop-color="#01b6ed"/><stop offset="1" stop-color="#00a5a5"/></linearGradient><linearGradient xlink:href="#b" id="h" gradientUnits="userSpaceOnUse" x1="2.5" y1="998.862" x2="125.5" y2="998.862" gradientTransform="translate(-60.04 -327.872) scale(.35338)"/><linearGradient xlink:href="#b" id="g" x1="5.5" y1="953.112" x2="122.5" y2="953.112" gradientUnits="userSpaceOnUse" gradientTransform="translate(-60.04 -327.872) scale(.35338)"/><linearGradient xlink:href="#a" id="p" x1="2.5" y1="1012.862" x2="125.5" y2="1012.862" gradientUnits="userSpaceOnUse" gradientTransform="translate(-65.62 -260.203) scale(.33373)"/><linearGradient xlink:href="#a" id="o" gradientUnits="userSpaceOnUse" x1="2.5" y1="998.862" x2="125.5" y2="998.862" gradientTransform="translate(-65.658 -259.256) scale(.33373)"/><linearGradient xlink:href="#a" id="n" x1="5.5" y1="953.112" x2="122.5" y2="953.112" gradientUnits="userSpaceOnUse" gradientTransform="translate(-65.658 -259.256) scale(.33373)"/><linearGradient xlink:href="#b" id="k" gradientUnits="userSpaceOnUse" x1="3.105" y1="24.781" x2="44.985" y2="24.781"/><linearGradient xlink:href="#b" id="l" gradientUnits="userSpaceOnUse" x1="3.105" y1="24.781" x2="44.985" y2="24.781"/><linearGradient xlink:href="#b" id="m" gradientUnits="userSpaceOnUse" x1="3.105" y1="24.781" x2="44.985" y2="24.781"/><linearGradient xlink:href="#b" id="j" gradientUnits="userSpaceOnUse" x1="3.105" y1="24.781" x2="44.985" y2="24.781"/><linearGradient xlink:href="#c" id="q" x1="7.399" y1="11.87" x2="44.059" y2="40.142" gradientUnits="userSpaceOnUse"/></defs><g transform="translate(51.112 3.824) scale(.88303)" fill="none" stroke="url(#d)" stroke-width="2.6"><path d="M4 1030.362h40v-17H24l-3-3H4z" transform="translate(0 -1004.362)" stroke="url(#e)"/><path d="M20 1023.362l-3 2H4v19.998c0 .54.489.991.984.991l38.016.011c.51.016 1-.395 1-1v-22z" transform="translate(0 -1004.362)" stroke="url(#f)"/></g><path d="M-16.928 12.211V6.417A1.626 1.626 0 0 0-18.56 4.79h-26.98l-.012-1.06c-.006-.548-.494-1.06-1.06-1.06H-56.86c-.612 0-1.06.42-1.06 1.06v11.66" fill="none" stroke="url(#g)" stroke-width="1.237"/><path d="M-42.195 12.211c-1.147 0-1.577.595-1.577 1.504 0 .901-.728 1.676-1.633 1.676h-12.863c-.41 0-.712.277-.712.713v20.84c0 .63.594 1.064 1.056 1.064h40.985c.754 0 1.072-.48 1.072-1.05v-23.12c0-.901-.728-1.626-1.633-1.626z" fill="none" stroke="url(#h)" stroke-width="1.237"/><path d="M-58.98 28.467v3.18h43.113v-3.18z" fill="none" stroke="url(#i)" stroke-width="1.237"/><g transform="translate(38.95 -46.102)" stroke="url(#j)" stroke-width="2" fill="none"><path d="M43.918 17.672v-5.089c.001-.791-.709-1.432-1.581-1.429H18.073l-2.908-1.862H5.238c-.593 0-1.027.37-1.027.931v10.243" stroke="url(#k)"/><path d="M19.443 17.672l-3.11 2.794H3.874c-.397 0-.7.243-.69.626l-.079 19.173 41.838.006.002-21.17c0-.792-.705-1.428-1.581-1.428z" stroke="url(#l)"/><path d="M3.224 31.069v2.793h41.76V31.07z" stroke="url(#m)"/></g><path d="M-24.943 61.915v-5.472a1.535 1.535 0 0 0-1.542-1.536h-25.478l-.012-1.001c-.006-.518-.467-1.001-1.001-1.001h-9.679c-.578 0-1 .397-1 1V64.92" fill="none" stroke="url(#n)" stroke-width="1.5"/><path d="M-48.805 61.915c-1.084 0-1.49.563-1.49 1.42 0 .852-.687 1.584-1.542 1.584h-12.147c-.388 0-.683.261-.673.673l-.077 20.615 40.79.007.002-22.763c0-.851-.687-1.535-1.542-1.535z" fill="none" stroke="url(#o)" stroke-width="1.5"/><path d="M-64.618 76.32v3.003h40.715V76.32z" fill="none" stroke="url(#p)"/><g fill="none" stroke="url(#q)" stroke-width="2"><path d="M4.551 26.748H44.06V11.797H24.305l-2.963-2.639H4.552z"/><path d="M20.354 20.591l-2.963 1.76H4.551v17.587c0 .475.483.872.972.872l37.549.01c.503.014.987-.348.987-.88V20.591z"/></g></svg>