<svg xmlns="http://www.w3.org/2000/svg" xmlns:xlink="http://www.w3.org/1999/xlink" height="48" width="48"><defs><linearGradient id="b"><stop stop-color="#00ffb6" offset="0"/><stop stop-color="#00b4ff" offset="1"/></linearGradient><linearGradient id="a"><stop offset="0" stop-color="#00ffa8"/><stop offset="1" stop-color="#06a3b0"/></linearGradient><linearGradient xlink:href="#a" id="c" x1="3.874" y1="9.231" x2="45.443" y2="43.4" gradientUnits="userSpaceOnUse"/><linearGradient xlink:href="#b" id="d" gradientUnits="userSpaceOnUse" x1="2.58" y1="35.406" x2="45.244" y2="35.61" gradientTransform="matrix(.96996 0 0 1.00335 .076 -.12)"/><linearGradient xlink:href="#b" id="e" gradientUnits="userSpaceOnUse" x1="3.874" y1="9.231" x2="45.443" y2="43.4"/></defs><g fill="none" stroke="url(#c)" stroke-width="2"><path d="M2.301 37.266l44.148-.005m0-3.261l-44.148.006" stroke="url(#d)"/><g stroke="url(#e)"><path d="M45.331 17.4v-5.92c0-.92-.759-1.666-1.694-1.663L18 10c-.494 0-2.339-2-3-2.014l-11.001.016c-.635 0-.99.336-.99.99L3 21"/><path d="M21 18c-.576 0-2.544 2-3 2l-15.003.021c-.426 0-1.017.563-1.016 1.008l.014 20.982c0 .644.525.994 1.004.993l41.99-.038c.783-.001 1.047-.38 1.046-.963l-.024-23.018c0-.921-.071-.985-1.011-.985z"/></g></g><g transform="matrix(1.2 0 0 1.2 21.6 24)">HERE</g></svg>