<svg xmlns="http://www.w3.org/2000/svg" xmlns:xlink="http://www.w3.org/1999/xlink" viewBox="0 0 48 48"><defs><linearGradient id="a"><stop offset="0" stop-color="#ff5b00"/><stop offset="1" stop-color="#ff01a8" stop-opacity=".984"/></linearGradient><linearGradient xlink:href="#a" id="b" x1="1.004" y1="26.907" x2="47.004" y2="26.907" gradientUnits="userSpaceOnUse" gradientTransform="translate(2.078 2.077) scale(.91345)"/></defs><path d="M17.838 3.011a21.917 21.917 0 0 0-3.203 1.225l.348.93.144.575-.596.332-.244.446.181 1.021.725.12.69-.66.6-.63.927-.24 1.178-.57.69-.841.99-1.204.69-.182-.029-.26h-1.076l-2.015-.06zm8.241.426c-.053.02-1.466.02-1.466.02l-.364.097.48.574.51-.48.33.21.48-.24s.087-.203.03-.18zm5.762.443l-.36.003-.45.06-.39.241-.451.336-.266.48.417.42.36.03.15-.243-.36-.302.21-.18.03-.146.45-.3s.585.007.63 0c.049-.012.181-.184.181-.184l-.15-.214h-.001zm2.616.781v.01l-.007.006-.478.287-.51.42c-.034.066-.142.03-.214.045l-.304-.42-.626-.06s.146.637.146.72c0 .078-.42.02-.42.02l-.72.033s-1.044.24-1.171.24c-.71.17-1.388.589-1.974.904l-.3-.216-.15-.24.061-.244.661.034.303-.12-.596-.302-.84-.3-.844-.15-.904.183-.93.744-.421.422-.626.69-.24.03-.094.33.12.33s.128.15.15.15c.019 0 .24-.12.24-.12s.026-.112.15-.15c.127-.037.24-.06.24-.06l.18.36.218.3.086.24s.35-.213.364-.24c.008-.029.03-.389.03-.389l.26-.182s.07-.127.063-.15c-.012-.019-.18-.21-.18-.21l-.15-.06.06-.304s.12-.049.12-.09c0-.037.183-.181.183-.181l.21-.262.15-.182.21-.15.245.182v.12l-.214.24-.064.24v.33l.184.15.33-.03.302-.06.267.146-.061.214s-.187.18-.24.21c-.057.03-.394-.06-.48-.03-.087.03-.302.304-.302.304s-.022.238 0 .3c.012.022-.004.069-.011.124l-.024.02-.364.265h-.02l-.24-.09s-.156.008-.22.064c-.06.049-.115.098-.3.116-.184.019-.542 0-.575 0h-.21l.03-.22.15-.24-.267-.214s-.177.22-.183.27c-.004.052.12.265.12.265s-.057.177-.087.215c-.033.037-.3.12-.3.12l-.422-.214s-.173-.037-.15.061c.026.098.216.187.216.27 0 .079-.12.262-.12.262l-.15.181-.24.244-.33.087s-.24.067-.301.09c-.064.022-.244.063-.244.063l-.24.028-.15.216.27.182.181.298s.115.215.148.215c.03 0 .088.212.088.212l-.181.24h-.09l-.63.12-.12-.27-.417.42-.183.695v.574l.724.39.57-.214.58-1.02.504-.627.933-.15.21-.18 1.054 1.23.116.42.301-.15-.086-.36h.18l-.12-.243-1.02-.96.09-.181.33-.03.72.72.36.424v.66l.184.12.36.36.266-.09-.146-.543.09-.33.18-.21.422.149.15.06-.03-.48.24-.45.15-.662.54.094.093.301.212.15.244-.21-.15-.335h.63l-.216.36.42.36.36.182.211.42-.48.117-.69-.148h-.597l-.574.301-.12.182-.419.09.182.45.33.39.6-.21.15.262.262-.21.36.061.034.392-.12.746-.33-.03-.394-.06-.18.447-1.321-.24-.24-.304-.304.27-.33.45-.84-.48-.84-.504v-.904l-.542.03-.024.3-1.32-.06-.422.384-.81.03-.544.48-.33.93-.84.664-.6.81-.03 1.561-.181.48-.041.38c.313.301.585.627.74.993a17.22 17.22 0 0 0-.26.232l.066.193.728.87.417.36.423.09.087-.36h1.5l.394-.18.48.06.146.302.503.03.338.24v.508l-.117.421-.12.33.3.544.39.45.182 1.141.024.746-.26.63-.026.506 1.006 3.315.22.293.06.57.093.661.332-.33.84-.087h.509l.932-1.44.06-.57.63-.63.03-.72.33-.725.782-.746v-.84l-.183-.78-.116-1.081.57-.902 1.022-1.26.393-.39.143-.51.245-.45.06-.664h-.57l-.27.27-.54-.15-.332-.54-.268-.542-.628-.48-.146-.781-.27-.458-.3-.57-.39-.691-.09-.452.42-.06.24.509.48.9.36.662.394.72.419.695.578.578.513-.48.57-.15.42-.51.576-.33.33-.57.03-.48-.27-.304-.36-.42-.24.145-.15.244-.388-.18-.12-.302-.27-.394-.417-.388v-.781l.264.51.33.513.577.33.39-.09.24.27 1.712-.033-.032.033.542.48.39.54.12.267h.264l.092-.3.09.448.15.812.327.78.181.663.264.628.212.266.301-.181.09-.302.12-.744-.033-.66.094-.115.773-.885c.131-.142.275-.287.275-.287l.27-.34.06-.036 2.797-2.227c.172-.821.22-2.326-.356-3.789a22.21 22.21 0 0 0-7.72-6.821zm-22.143.866a21.53 21.53 0 0 0-1.651 1.141l.09.03.51.45.51.12.18-.69.03-.42.6.09s-.18.3-.09.3.45-.39.45-.39l-.63-.63zm6.716.794l-.116.39c.43.334.596.33.596.33l.5-.12.34-.33-.22-.27zm-8.515.74s-.419.238-.82.388l-.006.004-.26.226c-.05.116-.027.221-.027.221l-.034.81-.66.541-.42.63s-.27-.18-.27-.3-.061-.453-.061-.453l-.008-.005-.197.232c-.068 2.152.085 2.9.914 3.184l.14-.073.6-.663s.897-.142 1.076-.244c.184-.087.064-.417-.12-.72-.183-.3.09-.6.09-.6l.691-.42.6.117.064.724s.566.543.75.448c.18-.086.259-.39.259-.39l-.3-.781.18-.78-.81.115v-1.32l-.244.244-.63.03-.086-.66-.415-.507zm11.18.972l-.24.21c-.063.293-.144.596-.144.596l.45.214.061.266-.24.244-.21.36.146.15.54-.092.48-.212-.262-.36-.098-.628-.33-.36-.152-.388zm-.744 1.137l-.27.45.36.15.15-.27zm10.504 1.774c.131-.041.36.148.36.148l-.24.212.086.3.27.721.27.45.36.573-.39.181-.51-.33-.214-.63s-.291-.39-.419-.45c-.131-.064-.244-.27-.244-.27l.12-.51s.414-.341.542-.386l.008-.006v-.002zm-7.592 1.141l-.36.69.27.27.24-.214.03-.297-.181-.45zm-1.202.722v.18l.15-.027-.15-.152zm2.07.449l-.18.061.296.51.27-.212-.386-.36zm13.835 7.526l-.303.39.15.576.303-.332a20.23 20.23 0 0 0-.054-.512l-.097-.122zm-6.731 5.79v.422c-.02.064-.39.36-.39.36l-.45.21-.333.27.244.33.15.15-.394.33v.542l.15.572.33.09.394-.6.24-.39-.06-.48.36-.57.12-.27v-.54l-.094-.422-.268-.002z" fill="#00a1ff"/><path d="M28.632 8.301l.007.006c1.038.2 1.913.43 2.626.743 1.099.472 1.806 1.11 2.141 1.827-1.02-.182-1.926-.136-2.74.172 5.83 2.223 8.6 4.88 8.276 7.936-.425-.639-.999-1.073-1.713-1.284.892 3.35.968 6.098.255 8.275-.496-1.456-.971-2.29-1.37-2.597.56 4.492-.193 7.8-2.284 9.962.403-1.32.546-2.402.457-3.256-2.458 3.554-5.255 5.394-8.393 5.508a12.168 12.168 0 0 1-3.511-.542c-1.617-.521-3.069-1.417-4.368-2.685 2.027.16 3.877-.174 5.509-.971.94-.594 1.923-1.191 2.86-1.76.124-.726.079-1.473-.412-2.2-1.203-.471-2.39-.331-3.733.505-1.342.836-2.726.717-4.024-.086-.854-.563-1.662-1.334-2.456-2.283-.108-.139-.196-.315-.286-.457.04-.938.4-1.429 1.17-1.543.875.075 1.874.257 2.997.571.19-1.042-.198-2.056-.54-3.382l.037-.136c.069-.062.149-.178.217-.236l-1.825-5.21s-.178-.217-.316-.401l.029-.143c.132-.902.578-1.621.941-2.31.397-.631 1.16-1.328 2.284-2.055-2.083.25-3.975 1.16-5.652 2.712-1.389-.489-3.044-.386-4.938.314-1.118-.508-1.1-1.238-1.428-3.397C5.066 13.627 2.995 18.568 2.995 24c0 11.603 9.405 21.01 21.009 21.01 11.604 0 21.01-9.407 21.01-21.01 0-4.504-1.414-8.684-3.826-12.104.293 1.399.33 2.841.342 3.626-.866-2.933-3.275-5.374-6.765-6.394-1.72-.498-3.776-.76-6.137-.828" fill="none" stroke="url(#b)" stroke-width="2.013"/><path d="M26.388 29.636c.3-.168.682-.075.967 0 .283-.025.832-.178.614-.89-.363-.428-.913-.937-1.998-1.313m.417 2.202" fill="#fbf4ce"/><path d="M20.154 17.123l1.574 1.649c.22-.146.488-.268.595-.778a.124.124 0 0 1 .1-.064c.189-.375-.165-.717-.232-.682-.667.011-1.15-.02-2.037-.125" fill="none" stroke="#ff3b3b" stroke-width="1.113" stroke-opacity=".996"/><path d="M19.137 20.624c-.196-.46-.44-2.09-.44-2.09l2.203-.637.831.878c-.956.582-1.816 1.152-2.598 1.836" fill="none" stroke="#ff3b3b" stroke-width="1.113" stroke-opacity=".996"/><path d="M18.766 18.992l2.135-1.095c-.36-.39-.735-.771-.735-.771-.279-.075-1.903-.542-2.338-.945" fill="#ff3c3a" fill-opacity=".996" stroke="#ff3b3a" stroke-width="1.113" stroke-opacity=".996"/></svg>