<svg xmlns="http://www.w3.org/2000/svg" viewBox="0 0 48 48"><path d="M40.185 12.359a1.176 1.176 0 1 0-1.896 1.39 17.53 17.53 0 0 1 3.426 10.438c0 9.768-7.947 17.715-17.715 17.715-.27 0-.538-.006-.808-.019l8.987-10.987a1.176 1.176 0 0 0-1.82-1.49L19.994 42.08a1.176 1.176 0 0 0 .778 1.912 20.1 20.1 0 0 0 3.228.261c5.338 0 10.372-2.093 14.173-5.893 3.8-3.8 5.893-8.834 5.893-14.173 0-4.278-1.342-8.369-3.881-11.828z" fill="#fba700"/><path d="M40.185 12.359a20.365 20.365 0 0 0-6.977-5.989A20.029 20.029 0 0 0 24 4.12c-6.604 0-12.793 3.275-16.557 8.76a1.176 1.176 0 1 0 1.94 1.332c3.324-4.847 8.789-7.74 14.617-7.74 4.911 0 9.62 2.09 12.96 5.674l-14.102 1.52a1.176 1.176 0 0 0 .252 2.338l16.207-1.747a1.17 1.17 0 0 0 .592-.238l.024-.016a1.176 1.176 0 0 0 .252-1.644z" fill="#ff007e"/><path d="M24 30.066a5.863 5.863 0 0 1-5.226-3.188 5.874 5.874 0 0 1-.653-2.691 5.894 5.894 0 0 1 3.93-5.548 5.886 5.886 0 0 1 7.828 5.548 5.741 5.741 0 0 1-1.134 3.466A5.906 5.906 0 0 1 24 30.066zm0-9.407a3.51 3.51 0 0 0-1.168.198 3.539 3.539 0 0 0-2.36 3.33c0 .56.135 1.118.391 1.61A3.52 3.52 0 0 0 24 27.714a3.546 3.546 0 0 0 2.848-1.451 3.438 3.438 0 0 0 .679-2.076A3.531 3.531 0 0 0 24 20.659z" fill="#00b6ff"/><path d="M21.108 41.664c-8.451-1.402-14.825-8.916-14.825-17.477 0-2.892.703-5.703 2.045-8.237l6.12 12.794a1.176 1.176 0 1 0 2.122-1.015L9.544 13.04a1.176 1.176 0 0 0-1.1-.667 1.174 1.174 0 0 0-1.001.51 19.902 19.902 0 0 0-3.51 11.305 20.04 20.04 0 0 0 4.835 13.03c3.083 3.596 7.328 5.999 11.954 6.767a1.176 1.176 0 0 0 .386-2.32z" fill="#00ff93"/><path d="M24 34.77a10.552 10.552 0 0 1-9.55-6.026 10.625 10.625 0 0 1-1.033-4.557 10.608 10.608 0 0 1 7.07-9.984A10.547 10.547 0 0 1 24 13.604c5.835 0 10.582 4.748 10.582 10.583a10.497 10.497 0 0 1-2.406 6.712A10.56 10.56 0 0 1 24 34.769zm0-18.814a8.194 8.194 0 0 0-4.052 1.067 8.252 8.252 0 0 0-4.18 7.164 8.259 8.259 0 0 0 .917 3.771 8.208 8.208 0 0 0 7.314 4.46c2.43 0 4.81-1.127 6.363-3.014a8.16 8.16 0 0 0 1.869-5.217c0-4.539-3.693-8.23-8.231-8.23z" fill="#00b6ff"/></svg>