<svg xmlns="http://www.w3.org/2000/svg" xmlns:xlink="http://www.w3.org/1999/xlink" width="48" height="48"><defs><linearGradient id="a"><stop offset="0" stop-color="#00f6d1"/><stop offset="1" stop-color="#d100ff"/></linearGradient><linearGradient xlink:href="#a" id="c" gradientUnits="userSpaceOnUse" x1="10.905" y1="24.407" x2="37.705" y2="24.407" gradientTransform="translate(4.061 3.978) scale(.82033)"/><linearGradient xlink:href="#a" id="b" x1="6.481" y1="24" x2="41.519" y2="24" gradientUnits="userSpaceOnUse" gradientTransform="translate(-1.39 -1.39) scale(1.05788)"/></defs><g stroke-width="2.8" fill="none"><path d="M24 4.248A19.71 19.71 0 0 0 4.248 24h6.913A12.811 12.811 0 0 1 24 11.162zM36.84 24A12.811 12.811 0 0 1 24 36.84v6.913A19.71 19.71 0 0 0 43.752 24z" stroke="#464646" stroke-width="1.796"/><path d="M24 5.92A18.041 18.041 0 0 0 5.92 24 18.041 18.041 0 0 0 24 42.08 18.041 18.041 0 0 0 42.08 24h-7.444A10.612 10.612 0 0 1 24 34.636 10.612 10.612 0 0 1 13.364 24 10.612 10.612 0 0 1 24 13.364z" stroke="url(#b)" stroke-width="1.01" transform="translate(1.851 1.851) scale(.92287)"/></g><path d="M24 14.156A9.822 9.822 0 0 0 14.156 24 9.822 9.822 0 0 0 24 33.844 9.822 9.822 0 0 0 33.843 24 9.822 9.822 0 0 0 24 14.156m0 4.102A5.73 5.73 0 0 1 29.742 24 5.73 5.73 0 0 1 24 29.742 5.73 5.73 0 0 1 18.257 24 5.73 5.73 0 0 1 24 18.258" fill="none" stroke="url(#c)" stroke-width="1.374"/></svg>