<svg xmlns="http://www.w3.org/2000/svg" xmlns:xlink="http://www.w3.org/1999/xlink" height="64" width="64"><defs><linearGradient id="a" x1="31" gradientUnits="userSpaceOnUse" x2="31" gradientTransform="matrix(1.14282 0 0 -1 -4.57 1052.3)" y1="1000.4" y2="1040.4"><stop stop-color="#ff7f1c" offset="0"/><stop stop-color="#ff00a4" offset="1"/></linearGradient><linearGradient id="c" y2="33" gradientUnits="userSpaceOnUse" x2="11" gradientTransform="matrix(1.0931 0 0 .95648 -2.98 1.354)" y1="32" x1="11"><stop stop-color="#fff" offset="0"/><stop stop-opacity="0" stop-color="#fff" offset="1"/></linearGradient><linearGradient xlink:href="#a" id="b" x1="-.499" y1="32" x2="64.5" y2="32" gradientUnits="userSpaceOnUse" gradientTransform="translate(1.91 1.91) scale(.9403)"/></defs><path style="isolation:auto;mix-blend-mode:normal;solid-color:#000" d="M32 52.686c-17.735 0-26.518-13.449-29.26-18.472-.391-.72-.827-1.417-.829-2.214.003-.797.438-1.494.83-2.213C5.482 24.764 14.265 11.314 32 11.314s26.518 13.449 29.26 18.472c.392.719.827 1.417.829 2.214-.002.797-.438 1.494-.83 2.213C58.52 39.236 49.736 52.685 32 52.685z" color="#000" fill="none" stroke="url(#b)" stroke-width="2.072"/><g transform="translate(1.392 1.392) scale(.95648)" color="#000"><circle style="isolation:auto;mix-blend-mode:normal;solid-color:#000" cy="32" cx="32" r="13" fill="none" stroke="#585858"/><path style="isolation:auto;mix-blend-mode:normal;solid-color:#000" d="M41.748 37.034h-2.133l-2.539-2.538-4.23 4.23-6.77-6.769-4.223 4.224A11 11 0 0 0 32 42.957a11 11 0 0 0 9.748-5.923z" fill="#3f3f3f"/><ellipse style="isolation:auto;mix-blend-mode:normal;solid-color:#000" rx="3.385" ry="3.385" cy="28.607" cx="36.23" fill="#444"/></g><path style="isolation:auto;mix-blend-mode:normal;solid-color:#000" d="M1.393 31.962c0 .334.088.648.205.956h60.804c.117-.309.204-.622.206-.956H1.394z" color="#000" opacity=".1" fill="url(#c)"/></svg>