<svg xmlns="http://www.w3.org/2000/svg" viewBox="0 0 48 48"><path d="M15.233 19.34s.72 1.068 1.663 1.056c.974-.006 1.909-.648 2.552-1.33.687-.725 1.165-2.698 1.165-2.698.465 1.426.892 2.724 1.877 3.73 1.02-.478 1.49-1.547 1.94-2.49 1.37 1.096 2.682 2.286 3.394 3.822.414-.408.822-1.04.878-1.726-.05-1.116-.293-2.222-.553-3.336a25.716 25.716 0 0 1 3.685 1.515 7.711 7.711 0 0 1-.668-1.96c-3.33-2.254-4.061-5.457-6.252-7.729-2.762 3.973-5.646 7.983-9.682 11.148m10.49 18.994c1.732-.274 2.985-1.063 4.17-2.458-1.05-.337-1.859-1.068-2.227-2.177.287-3.042 4.938-3.393 7.404-5.093-6.321-.707-9.844-2.337-13.617-6.729-1.897.318-3.813.096-5.691-.758-2.622.414-3.724 3.64-6.76 4.068 1.133.294 2.685.433 2.718 1.02 3.14-.912 5.43-.211 8.474.917-.919 2.342-2.656 3.819-5.207 4.818 3.042 1.732 6.703 1.65 9.447 4.15.873.618 1.165 1.624 1.292 2.242" fill="#868686"/><path d="M43.225 23.669c0 .898-.731 1.629-1.63 1.629a1.633 1.633 0 0 1-1.629-1.629c0-.899.731-1.63 1.629-1.63.899 0 1.63.731 1.63 1.63" fill="#00baff" stroke-width=".68" stroke="#00baff"/><path d="M40.609 24.027L24.452 4.732l1.56-1.04L42.22 23.04m-1.61.987" fill="#00baff" stroke-width=".7" stroke="#00baff"/><path d="M12.26 33.447c0 .898-.73 1.63-1.63 1.63A1.633 1.633 0 0 1 9 33.447c0-.898.733-1.63 1.63-1.63.9 0 1.63.732 1.63 1.63m11.409 4.89c0 .897-.732 1.63-1.63 1.63a1.633 1.633 0 0 1-1.63-1.63 1.63 1.63 0 0 1 3.26 0m-3.26 4.888c0 .898-.732 1.63-1.63 1.63a1.633 1.633 0 0 1-1.63-1.63c0-.898.733-1.63 1.63-1.63.898 0 1.63.732 1.63 1.63m6.519 0c0 .898-.731 1.63-1.63 1.63a1.633 1.633 0 0 1-1.629-1.63c0-.898.731-1.63 1.629-1.63.899 0 1.63.732 1.63 1.63M17.15 28.557c0 .898-.732 1.63-1.63 1.63a1.633 1.633 0 0 1-1.63-1.63c0-.897.732-1.63 1.63-1.63.898 0 1.63.733 1.63 1.63" fill="#ff00d8"/><path d="M22.072 39.292l-11.937-4.923 1.006-1.86 11.842 5.247m-.911 1.54" fill="#ff00d8"/><path d="M19.358 43.944l3.77-5.437-1.553-.598-3.61 4.996m1.393 1.04" fill="#ff00d8"/><path d="M18.55 44.173l7.276.064-.127-1.463-7.13.006m-7.588-8.455l5.488-5.8-1.681-.624-5.2 5.393m1.393 1.031" fill="#ff00d8"/><path d="M16.041 27.857L5.647 26.265l-.624 1.68 9.988 1.305m1.031-1.393" fill="#ff00d8"/><path d="M4.946 26.29L24.81 3.22l1.038 1.56L5.933 27.909m-.985-1.617" fill="#66ff63" stroke-width=".933" stroke="#66ff63"/><path d="M26.928 4.112c0 .898-.731 1.63-1.63 1.63a1.633 1.633 0 0 1-1.629-1.63c0-.898.731-1.63 1.629-1.63.899 0 1.63.732 1.63 1.63" fill="#00baff" stroke-width=".68" stroke="#00baff"/><path d="M7.372 26.928c0 .898-.732 1.63-1.63 1.63a1.633 1.633 0 0 1-1.63-1.63c0-.898.731-1.63 1.63-1.63.898 0 1.63.732 1.63 1.63" fill="#66ff63" stroke-width=".933" stroke="#66ff63"/></svg>