<svg xmlns="http://www.w3.org/2000/svg" xmlns:xlink="http://www.w3.org/1999/xlink" viewBox="0 0 48 48"><defs><linearGradient id="a"><stop offset="0" stop-color="#ffc614"/><stop offset="1" stop-color="#ff5714"/></linearGradient><linearGradient xlink:href="#a" id="b" x1="16.093" y1="11.997" x2="32" y2="22" gradientUnits="userSpaceOnUse"/><linearGradient xlink:href="#a" id="c" gradientUnits="userSpaceOnUse" x1="16.093" y1="11.997" x2="32" y2="22"/><linearGradient xlink:href="#a" id="d" gradientUnits="userSpaceOnUse" x1="16.093" y1="11.997" x2="32" y2="22"/></defs><path d="M13.059 22.567v8.384c0 5.589 4.192 9.78 11.178 9.78 6.987 0 11.179-4.191 11.179-9.78v-8.384m-22.357 0" fill="#eaeced" stroke="#4d4d4d" stroke-width="1.397"/><g transform="translate(-9.207 -9.51) scale(1.39733)" fill="none" stroke="url(#b)" stroke-linecap="round" stroke-linejoin="round"><path d="M24 12v10h-8v-3c0-3 4-7 8-7" stroke="url(#c)"/><path d="M24 12v10h8v-3c0-3-4-7-8-7m0 0" stroke="url(#d)"/></g><path d="M24.329 15.828c.96 0 1.743 1.171 1.743 2.615v6.972c0 1.444-.783 2.615-1.743 2.615-.96 0-1.743-1.171-1.743-2.615v-6.972c0-1.444.782-2.615 1.743-2.615m0 0" fill="#f50035"/></svg>