<svg xmlns="http://www.w3.org/2000/svg" xmlns:xlink="http://www.w3.org/1999/xlink" viewBox="0 0 48 48"><defs><linearGradient id="c"><stop offset="0" stop-color="#ff00e0"/><stop offset="1" stop-color="#f04"/></linearGradient><linearGradient id="b"><stop offset="0" stop-color="#0081ff"/><stop offset="1" stop-color="#00d8ce"/></linearGradient><linearGradient id="a"><stop offset="0" stop-color="#666"/><stop offset="1" stop-color="#979797"/></linearGradient><linearGradient xlink:href="#a" id="f" x1="-10.604" y1="3.664" x2="-40.231" y2="31.421" gradientUnits="userSpaceOnUse" gradientTransform="translate(53.436 2.088)"/><linearGradient xlink:href="#b" id="d" x1="66.262" y1="33.043" x2="78.381" y2="33.043" gradientUnits="userSpaceOnUse"/><linearGradient xlink:href="#c" id="e" x1="75.987" y1="39.791" x2="78.653" y2="48.025" gradientUnits="userSpaceOnUse"/></defs><g stroke-width=".673"><path d="M13.037 34.442h3.154a.45.45 0 0 1 .45.447v3.158a.45.45 0 0 1-.45.446h-3.154a.446.446 0 0 1-.447-.446v-3.158c0-.245.198-.447.447-.447m0-6.058h3.154a.45.45 0 0 1 .45.447v3.158a.45.45 0 0 1-.45.446h-3.154a.446.446 0 0 1-.447-.446V28.83c0-.245.198-.447.447-.447m0-6.098h3.154a.45.45 0 0 1 .45.447v3.158a.45.45 0 0 1-.45.447h-3.154a.446.446 0 0 1-.447-.447v-3.158c0-.245.198-.447.447-.447m0 0" fill="#757575"/><path d="M66.559 31.696h11.522c.166 0 .3.134.3.297v2.1a.299.299 0 0 1-.3.296H66.56a.297.297 0 0 1-.297-.297v-2.099c0-.163.131-.297.297-.297m0 0" fill="url(#d)" transform="translate(-87.091 -31.475) scale(1.50435)"/><path d="M20.128 34.442h3.158a.45.45 0 0 1 .447.447v3.158a.449.449 0 0 1-.447.446h-3.158a.449.449 0 0 1-.446-.446v-3.158c0-.245.201-.447.446-.447m0-6.058h3.158a.45.45 0 0 1 .447.447v3.158a.449.449 0 0 1-.447.446h-3.158a.449.449 0 0 1-.446-.446V28.83c0-.245.201-.447.446-.447m0-6.098h3.158a.45.45 0 0 1 .447.447v3.158a.449.449 0 0 1-.447.447h-3.158a.449.449 0 0 1-.446-.447v-3.158c0-.245.201-.447.446-.447m7.092 0h3.154a.45.45 0 0 1 .45.447v3.158a.45.45 0 0 1-.45.447H27.22a.446.446 0 0 1-.447-.447v-3.158c0-.245.198-.447.447-.447m0 0" fill="#757575"/><path d="M75.987 39.79h2.096a.3.3 0 0 1 .3.298v6.137a.3.3 0 0 1-.3.3h-2.096a.297.297 0 0 1-.297-.3v-6.137c0-.163.131-.297.297-.297m0 0" fill="url(#e)" transform="translate(-87.091 -31.475) scale(1.50435)"/></g><path d="M27.367 2.3c-1.767 0-3.477.25-5.1.7l23.46 23.461c.45-1.624.7-3.33.7-5.1 0-10.527-8.533-19.06-19.06-19.06z" fill="none" stroke="url(#f)" stroke-linecap="round" stroke-linejoin="round"/></svg>