<svg xmlns="http://www.w3.org/2000/svg" xmlns:xlink="http://www.w3.org/1999/xlink" viewBox="0 0 48 48"><defs><linearGradient id="b"><stop offset="0" stop-color="#eaff15"/><stop offset="1" stop-color="#ff3b00"/></linearGradient><linearGradient id="a" x1="1" x2="47" gradientTransform="rotate(-90 24.009 23.694)" gradientUnits="userSpaceOnUse" y1="0" y2="0" spreadMethod="pad"><stop offset="0" stop-color="#b0e648"/><stop offset="1" stop-color="#0019ff" stop-opacity=".5"/></linearGradient><linearGradient xlink:href="#a" id="c" x1="23.958" y1="19.693" x2="24.042" y2="39.325" gradientUnits="userSpaceOnUse"/><linearGradient xlink:href="#b" id="d" gradientUnits="userSpaceOnUse" x1="23.958" y1="19.693" x2="24.042" y2="39.325"/><linearGradient xlink:href="#b" id="e" gradientUnits="userSpaceOnUse" x1="23.958" y1="19.693" x2="24.042" y2="39.325"/></defs><g transform="translate(-2.544 2.533) scale(.94994)" fill="none" stroke="url(#c)" stroke-linecap="round" stroke-linejoin="round"><path d="M22 22l-9 17 6.5-19.996M22 22" stroke="url(#d)"/><path d="M26 22l9 17-6.496-19.996M26 22" stroke="url(#e)"/></g><path d="M20.254 11.082a.951.951 0 0 0-.95.95l.02 2.943a4.75 4.75 0 1 0 1.9.008v-2.95h-.02a.951.951 0 0 0-.95-.95zm0 5.7a2.85 2.85 0 1 1 0 5.7 2.846 2.846 0 0 1-2.85-2.85 2.849 2.849 0 0 1 2.85-2.85z" fill="#ff006d"/><path d="M27.058 2.505c-1.767 0-3.477.25-5.101.7l23.46 23.46c.45-1.623.7-3.33.7-5.1 0-10.526-8.532-19.06-19.06-19.06z" fill="none" stroke="#f0ca0f" stroke-linejoin="round" stroke-linecap="round" stroke-width="1.2"/></svg>