<svg xmlns="http://www.w3.org/2000/svg" xmlns:xlink="http://www.w3.org/1999/xlink" viewBox="0 0 48 48"><defs><linearGradient id="a"><stop offset="0" stop-color="#00fffb"/><stop offset="1" stop-color="#004aff"/></linearGradient><linearGradient xlink:href="#a" id="b" x1="7.889" y1="7.889" x2="45.917" y2="44.997" gradientUnits="userSpaceOnUse"/><linearGradient xlink:href="#a" id="d" gradientUnits="userSpaceOnUse" x1="7.889" y1="7.889" x2="45.917" y2="44.997" gradientTransform="translate(6.832 -1.306) scale(.86628)"/><linearGradient xlink:href="#a" id="c" gradientUnits="userSpaceOnUse" x1="7.889" y1="7.889" x2="45.917" y2="44.997" gradientTransform="translate(5.447 3.82) scale(.86628)"/><linearGradient xlink:href="#a" id="e" gradientUnits="userSpaceOnUse" x1="7.889" y1="7.889" x2="45.917" y2="44.997" gradientTransform="translate(5.447 3.82) scale(.86628)"/></defs><g fill="none" stroke="url(#b)" stroke-width="1.269" stroke-linejoin="round" stroke-linecap="round"><path d="M9.743 8.116v8.881h2.538v-6.343h6.344V8.116zm24.107 0v2.538h6.344v6.343h2.538V8.116zM9.743 32.223v8.881h8.882v-2.537H12.28v-6.344zm30.45 0v6.344H33.85v2.537h8.882v-8.881z" stroke="url(#c)"/><path transform="rotate(45)" stroke="url(#d)" d="M31.75-12.969h2.475v10.15H31.75z"/><path d="M17.356 16.997l7.613 8.882v7.613h-5.076v2.537h12.688v-2.537h-5.075v-7.613l7.613-8.882z" stroke="url(#e)"/></g></svg>