<svg xmlns="http://www.w3.org/2000/svg" xmlns:xlink="http://www.w3.org/1999/xlink" viewBox="0 0 48 48"><defs><linearGradient gradientTransform="rotate(-90 24 24)" gradientUnits="userSpaceOnUse" x2="47" x1="1" id="a"><stop stop-color="#00fedc"/><stop stop-color="#fc0068" offset="1"/></linearGradient><linearGradient id="b" x1="1" x2="47" gradientUnits="userSpaceOnUse" gradientTransform="rotate(-90 24 24)"><stop stop-color="#60e6cb"/><stop offset="1" stop-color="#71e9d2"/></linearGradient><linearGradient xlink:href="#a" id="d" gradientUnits="userSpaceOnUse" x1="-31.663" y1="25.731" x2="-8.007" y2="25.963" gradientTransform="translate(-38.877 2.584)"/><linearGradient xlink:href="#a" id="e" gradientUnits="userSpaceOnUse" x1="10.914" y1="25.731" x2="37" y2="25.731" gradientTransform="translate(-83.846 6.546)"/><linearGradient xlink:href="#b" id="c" gradientUnits="userSpaceOnUse" x1="-34.472" y1="25.731" x2="37" y2="25.731"/><linearGradient xlink:href="#a" id="f" x1="16.404" y1="19.075" x2="35.751" y2="19.075" gradientUnits="userSpaceOnUse"/></defs><g transform="translate(101.709 -14.87) scale(1.27996)" fill="none" stroke="url(#c)" stroke-width="2.377" stroke-linecap="round" stroke-linejoin="round" paint-order="fill markers stroke"><path d="M-71.075 17.546h22.453c.984 0 1.773.79 1.773 1.773v15.227l-13 2-13-2V19.32c0-.984.79-1.773 1.773-1.773m0 0" stroke="url(#d)"/><path d="M-62.846 37.546c0 3 0 3-2 5l5 1 5-1c-2-2-2-2-2-5h-6" stroke="url(#e)"/><path d="M-66.846 42.546h14v1h-14m0-1" stroke="none"/></g><path d="M14.95 41.797l20.49-.051" fill="#b47a7a" stroke="#bcbcbc" stroke-width="2" stroke-linecap="round"/><path d="M25.22 19.932c.449.26-.127.733-.43.746-.82.035-1.21-.923-1.061-1.607.268-1.223 1.677-1.736 2.783-1.376 1.623.528 2.273 2.44 1.691 3.96-.776 2.025-3.205 2.815-5.135 2.006-2.429-1.018-3.36-3.973-2.322-6.312 1.258-2.833 4.741-3.906 7.488-2.637 3.237 1.496 4.453 5.51 2.952 8.665-1.733 3.642-6.278 5-9.84 3.267-4.048-1.97-5.55-7.048-3.583-11.017 2.206-4.453 7.817-6.097 12.193-3.898 4.859 2.443 6.646 8.587 4.213 13.37" fill="none" stroke="url(#f)"/></svg>