<svg xmlns="http://www.w3.org/2000/svg" xmlns:xlink="http://www.w3.org/1999/xlink" viewBox="0 0 48 48"><defs><linearGradient id="a" x1="1" x2="47" gradientUnits="userSpaceOnUse" gradientTransform="rotate(-90 24 24)"><stop stop-color="#00edbd"/><stop offset="1" stop-color="#9c00a0"/></linearGradient><linearGradient id="b" x1="1" x2="47" gradientUnits="userSpaceOnUse" gradientTransform="rotate(-90 24 24)"><stop stop-color="#60e6cb"/><stop offset="1" stop-color="#71e9d2"/></linearGradient><linearGradient xlink:href="#a" id="d" gradientUnits="userSpaceOnUse" x1="-31.663" y1="25.731" x2="-8.007" y2="25.963" gradientTransform="translate(-38.877 2.584)"/><linearGradient xlink:href="#a" id="e" gradientUnits="userSpaceOnUse" x1="10.914" y1="25.731" x2="37" y2="25.731" gradientTransform="translate(-83.846 6.546)"/><linearGradient xlink:href="#b" id="c" gradientUnits="userSpaceOnUse" x1="-34.472" y1="25.731" x2="37" y2="25.731"/></defs><g transform="translate(101.709 -14.87) scale(1.27996)" fill="none" stroke="url(#c)" stroke-width="2.377" stroke-linecap="round" stroke-linejoin="round" paint-order="fill markers stroke"><path d="M-71.075 17.546h22.453c.984 0 1.773.79 1.773 1.773v15.227l-13 2-13-2V19.32c0-.984.79-1.773 1.773-1.773m0 0" stroke="url(#d)"/><path d="M-62.846 37.546c0 3 0 3-2 5l5 1 5-1c-2-2-2-2-2-5h-6" stroke="url(#e)"/><path d="M-66.846 42.546h14v1h-14m0-1" stroke="none"/></g><path d="M14.95 41.797l20.49-.051" fill="#b47a7a" stroke="#bcbcbc" stroke-width="2" stroke-linecap="round"/></svg>