<svg xmlns="http://www.w3.org/2000/svg" xmlns:xlink="http://www.w3.org/1999/xlink" viewBox="0 0 48 48"><defs><linearGradient id="a"><stop offset="0" stop-color="#ecedf1"/><stop offset="1" stop-color="#ecedf1" stop-opacity="0"/></linearGradient><linearGradient id="b"><stop offset="0" stop-color="#00cf9e"/><stop offset="1" stop-color="#005dff"/></linearGradient><linearGradient xlink:href="#a" id="d" x1="6" y1="24" x2="42" y2="24" gradientUnits="userSpaceOnUse" gradientTransform="translate(11.175 9.446) scale(.55556)"/><linearGradient xlink:href="#b" id="c" gradientUnits="userSpaceOnUse" x1=".5" y1="24" x2="47.5" y2="24"/></defs><path d="M24 1c12.703 0 23 10.297 23 23S36.703 47 24 47 1 36.703 1 24 11.297 1 24 1z" stroke="url(#c)" transform="translate(3.962 4.165) scale(.83493)" fill="none" stroke-width="2.189"/><path d="M24.508 12.78c5.523 0 10 4.477 10 10 0 5.522-4.477 10-10 10-5.522 0-10-4.478-10-10 0-5.523 4.478-10 10-10m0 0" fill="url(#d)" fill-rule="evenodd" transform="translate(-.203 1.22)"/><path d="M22.575 23.23l-5.211-5.211a.879.879 0 0 1 0-1.25l.039-.043a.89.89 0 0 1 1.254 0l5.21 5.21a.89.89 0 0 1 0 1.255l-.042.039a.879.879 0 0 1-1.25 0m0 0" fill="#001428"/><path d="M23.989 22.492h13.227c.492 0 .887.395.887.887v.227a.887.887 0 0 1-.887.887H23.989a.889.889 0 0 1-.887-.887v-.227c0-.492.398-.887.887-.887m0 0" fill="#0097ff"/><path d="M16.657 35.772l7.105-13.09a.42.42 0 0 1 .59-.16l.063.039a.473.473 0 0 1 .164.62l-7.105 13.09a.42.42 0 0 1-.59.16l-.06-.038a.47.47 0 0 1-.167-.621m0 0" fill="#ff0047"/><path d="M28.102 23.492c0 2.21-1.79 4-4 4-2.211 0-4-1.79-4-4 0-2.211 1.789-4 4-4 2.21 0 4 1.789 4 4m0 0" fill="#ff26b5" stroke="#ff26b5"/></svg>