<svg xmlns="http://www.w3.org/2000/svg" xmlns:xlink="http://www.w3.org/1999/xlink" width="48" height="48"><defs><linearGradient id="a"><stop stop-color="#1dd991"/><stop offset="1" stop-color="#0af"/></linearGradient><linearGradient xlink:href="#a" id="b" x1="12" y1="21" x2="56" y2="21" gradientUnits="userSpaceOnUse"/><linearGradient xlink:href="#a" id="c" gradientUnits="userSpaceOnUse" x1="8.595" y1="13.704" x2="40.228" y2="43.942"/><linearGradient xlink:href="#a" id="d" gradientUnits="userSpaceOnUse" x1="8.595" y1="13.704" x2="40.228" y2="43.942"/><linearGradient xlink:href="#a" id="e" gradientUnits="userSpaceOnUse" x1="8.595" y1="13.704" x2="40.228" y2="43.942"/><linearGradient xlink:href="#a" id="f" gradientUnits="userSpaceOnUse" x1="8.595" y1="13.704" x2="40.228" y2="43.942"/><linearGradient xlink:href="#a" id="g" gradientUnits="userSpaceOnUse" x1="8.595" y1="13.704" x2="40.228" y2="43.942"/></defs><path transform="matrix(.87537 0 0 1.1234 -5.036 .871)" d="M12 6v30h44V6z" fill="none" stroke="url(#b)" stroke-width="2.622"/><g transform="translate(-457.416 -615.63) scale(1.20364)" fill="#4d4d4d"><circle r="1" cy="542.742" cx="414.191"/><path d="M386.571 541.686v1h1v-1zm1 1v1h1v-1z"/></g><g stroke="url(#c)" transform="translate(8.37 6.925) scale(.67382)" fill="none" stroke-linecap="round" stroke-linejoin="round"><path d="M21.984 32.417a4.937 4.937 0 0 0-4.948 4.947 4.937 4.937 0 0 0 4.948 4.949 4.937 4.937 0 0 0 4.948-4.949 4.937 4.937 0 0 0-4.948-4.947" stroke="url(#d)" stroke-width="2.474"/><path d="M30.44 8.78l-4.392 4.393 6.588 6.59-6.59 6.588 4.393 4.392 10.982-10.981z" stroke="url(#e)" stroke-width="2.196"/><path d="M11.427 21.829a3.703 3.703 0 0 0-3.712 3.71 3.704 3.704 0 0 0 3.712 3.712 3.704 3.704 0 0 0 3.71-3.712 3.704 3.704 0 0 0-3.71-3.711" stroke="url(#f)" stroke-width="2.474"/><path d="M16.065 11.243a2.468 2.468 0 0 0-2.474 2.473 2.468 2.468 0 0 0 2.474 2.474 2.468 2.468 0 0 0 2.473-2.474 2.468 2.468 0 0 0-2.473-2.473" stroke="url(#g)" stroke-width="2.474"/></g></svg>