<svg xmlns="http://www.w3.org/2000/svg" xmlns:xlink="http://www.w3.org/1999/xlink" viewBox="0 0 48 48"><defs><linearGradient id="b"><stop offset="0" stop-color="#ff0031" stop-opacity=".5"/><stop offset="1" stop-color="#ff0036"/></linearGradient><linearGradient id="a"><stop offset="0" stop-color="#0dff14"/><stop offset="1" stop-color="#fcdc00"/></linearGradient><linearGradient xlink:href="#a" id="d" x1="10.5" y1="16" x2="37.5" y2="16" gradientUnits="userSpaceOnUse" gradientTransform="translate(-3.675 -2.442) scale(1.1442)"/><linearGradient xlink:href="#b" id="c" x1="10.5" y1="32" x2="37.5" y2="32" gradientUnits="userSpaceOnUse" gradientTransform="translate(-3.675 -2.442) scale(1.1442)"/></defs><path d="M15.776 27.307a6.867 6.867 0 0 0-6.865 6.865 6.867 6.867 0 0 0 6.865 6.866h16.02a6.867 6.867 0 0 0 6.864-6.866 6.867 6.867 0 0 0-6.865-6.865z" fill="none" stroke="url(#c)" stroke-width="2.288"/><path d="M15.776 9a6.867 6.867 0 0 0-6.865 6.865 6.867 6.867 0 0 0 6.865 6.865h16.02a6.867 6.867 0 0 0 6.864-6.865A6.867 6.867 0 0 0 31.795 9z" fill="none" stroke="url(#d)" stroke-width="2.288"/><path d="M21.497 15.865a5.721 5.721 0 0 1-5.72 5.721 5.721 5.721 0 0 1-5.722-5.72 5.721 5.721 0 0 1 5.721-5.722 5.721 5.721 0 0 1 5.721 5.721m0 0" fill="#ededed" stroke-width="1.144"/><path d="M12.916 16.236l2.382 1.918 3.339-3.831-.715-.746-2.624 3.088-1.564-1.278m-.818.849" fill="#5dba6f" fill-rule="evenodd" stroke-width="1.144"/><path d="M26.074 34.172a5.721 5.721 0 0 0 5.721 5.722 5.721 5.721 0 0 0 5.721-5.722 5.721 5.721 0 0 0-5.72-5.72 5.721 5.721 0 0 0-5.722 5.72m0 0" fill="#ededed" stroke-width="1.144"/><path d="M29.507 31.884h.952l1.336 1.716 1.341-1.716h.948l-1.717 2.288 1.717 2.289h-.952l-1.337-1.716-1.144 1.716h-1.144l1.716-2.289" fill="#eb594d" stroke-width="1.144"/></svg>