<svg xmlns="http://www.w3.org/2000/svg" xmlns:xlink="http://www.w3.org/1999/xlink" viewBox="0 0 48 48"><defs><linearGradient id="a"><stop offset="0" stop-color="#00ff10"/><stop offset="1" stop-color="#e300ff"/></linearGradient><linearGradient xlink:href="#a" id="b" x1="5.507" y1="24" x2="42.478" y2="24" gradientUnits="userSpaceOnUse" gradientTransform="translate(-8.13 -7.773) scale(1.23713)"/></defs><path d="M43.36 20.536a26.945 26.945 0 0 0-1.493-1.87c-2.773-3.248-5.958-6.143-9.448-8.244-2.228-1.344-4.614-2.426-7.085-2.948a18.69 18.69 0 0 0-3.784-.401c-1.257 0-2.513.14-3.77.4-2.474.523-4.852 1.605-7.08 2.949-3.488 2.101-6.678 4.998-9.461 8.244a27.66 27.66 0 0 0-1.479 1.87c-.633.87-.633 1.894 0 2.764 1.417 1.986 3.108 3.749 4.82 5.37 3.7 3.474 7.939 6.383 12.612 7.557 1.445.362 2.894.537 4.35.537 1.473 0 2.913-.175 4.358-.537 4.672-1.174 8.916-4.084 12.622-7.558 1.72-1.614 3.407-3.382 4.827-5.369.624-.87.624-1.894 0-2.764m0 0" fill="none" stroke="url(#b)" stroke-width="1.237" transform="translate(2.847 3.864)"/><path d="M34.322 25.783c0 5.473-4.439 9.913-9.913 9.913s-9.914-4.439-9.914-9.913 4.439-9.914 9.914-9.914c5.473 0 9.913 4.439 9.913 9.914m0 0" fill="none" stroke="#0888b9" stroke-width="1.102"/><path d="M31.001 25.783a6.184 6.184 0 0 1-6.186 6.18 6.184 6.184 0 1 1 0-12.366 6.185 6.185 0 0 1 6.186 6.186m0 0" fill="#2b2b2b"/><path d="M29.357 23.308a2.474 2.474 0 1 1-4.947.002 2.474 2.474 0 0 1 4.947-.002m0 0" fill="#f9f9f9"/><path d="M9.56 40.678L39.457 11.39" fill="none" stroke="#ff00b8" stroke-width="2.4"/></svg>