<svg xmlns="http://www.w3.org/2000/svg" xmlns:xlink="http://www.w3.org/1999/xlink" height="64" width="64"><defs><linearGradient xlink:href="#a" id="d" x1="0" y1="32" x2="64" y2="32" gradientUnits="userSpaceOnUse" gradientTransform="rotate(90 32 32)"/><linearGradient id="a"><stop offset="0" stop-color="#ff8313"/><stop offset="1" stop-color="#e40c5c"/></linearGradient><linearGradient xlink:href="#b" id="e" x1="6.974" y1="1020.362" x2="83.72" y2="1020.362" gradientUnits="userSpaceOnUse" gradientTransform="rotate(90 526.181 526.181)"/><linearGradient id="b"><stop offset="0" stop-color="#ac0808"/><stop offset="1" stop-color="#600404"/></linearGradient><linearGradient xlink:href="#c" id="f" x1="32" y1="4" x2="32" y2="60" gradientUnits="userSpaceOnUse"/><linearGradient id="c"><stop offset="0" stop-color="#d71919"/><stop offset="1" stop-color="#ac0808"/></linearGradient></defs><path style="line-height:normal;text-indent:0;text-align:start;text-decoration-line:none;text-decoration-style:solid;text-decoration-color:#000;text-transform:none;block-progression:tb;white-space:normal;isolation:auto;mix-blend-mode:normal;solid-color:#000;solid-opacity:1" d="M32 0c-9.37 0-12.865 5.314-16.447 7.105l-8.448 8.448C5.315 19.135 0 22.63 0 32s5.314 12.865 7.105 16.447l8.448 8.448C19.135 58.685 22.63 64 32 64s12.865-5.314 16.447-7.105l8.448-8.448C58.685 44.865 64 41.37 64 32s-5.314-12.865-7.105-16.447l-8.448-8.448C44.865 5.315 41.37 0 32 0zm0 2c8.63 0 11.135 4.791 15.553 7L55 16.447c2.209 4.418 7 6.923 7 15.553s-4.791 11.135-7 15.553L47.553 55C43.135 57.209 40.63 62 32 62s-11.135-4.791-15.553-7C13.742 52.623 9 47.553 9 47.553 6.791 43.135 2 40.63 2 32s4.791-11.135 7-15.553L16.447 9C20.865 6.791 23.37 2 32 2z" color="#000" font-weight="400" font-family="sans-serif" overflow="visible" fill="url(#d)" fill-rule="evenodd"/><path style="isolation:auto;mix-blend-mode:normal;solid-color:#000;solid-opacity:1" d="M53.213 53.213a30 30 0 0 0 3.791-4.694l-8.775-8.775a18 18 0 0 1-3.501 4.984 18 18 0 0 1-4.987 3.498l8.8 8.8a30 30 0 0 0 4.672-3.813zm3.813-37.754a30 30 0 0 0-3.813-4.672 30 30 0 0 0-4.694-3.791l-8.775 8.775a18 18 0 0 1 4.984 3.501 18 18 0 0 1 3.498 4.987l8.8-8.8zm-32.77 32.77a18 18 0 0 1-4.984-3.501 18 18 0 0 1-3.498-4.987l-8.8 8.8a30 30 0 0 0 3.813 4.672 30 30 0 0 0 4.694 3.791l8.775-8.775zm0-32.455l-8.8-8.8a30 30 0 0 0-4.672 3.813 30 30 0 0 0-3.79 4.694l8.774 8.775a18 18 0 0 1 3.501-4.984 18 18 0 0 1 4.987-3.498z" color="#000" overflow="visible" fill="url(#e)"/><path style="isolation:auto;mix-blend-mode:normal;solid-color:#000;solid-opacity:1" d="M44.79 7.098l-6.856 13.35a13 13 0 0 1 5.629 5.614l13.32-6.841A28 28 0 0 0 44.789 7.098zm-25.57.02A28 28 0 0 0 7.099 19.21l13.35 6.855a13 13 0 0 1 5.614-5.628l-6.841-13.32zm24.333 30.816a13 13 0 0 1-5.615 5.629l6.84 13.322a28 28 0 0 0 12.124-12.096l-13.35-6.855zm-23.115.004l-13.32 6.841A28 28 0 0 0 19.21 56.902l6.855-13.35a13 13 0 0 1-5.628-5.614z" color="#000" overflow="visible" fill="url(#f)"/><path style="isolation:auto;mix-blend-mode:normal;solid-color:#000;solid-opacity:1" d="M7.115 44.777l.002-.002.434-.222a28 28 0 0 1-3.53-12.967A28 28 0 0 0 4 32a28 28 0 0 0 3.115 12.777z" color="#000" overflow="visible" fill="#878787"/><path style="isolation:auto;mix-blend-mode:normal;solid-color:#000;solid-opacity:1" d="M19.207 56.9l.004-.002.422-.824A28 28 0 0 1 7.55 44.553l-.434.222-.002.002A28 28 0 0 0 19.207 56.9z" color="#000" overflow="visible" fill="#600404"/><path style="isolation:auto;mix-blend-mode:normal;solid-color:#000;solid-opacity:1" d="M44.777 56.885l-.4-.781A28 28 0 0 1 32 59a28 28 0 0 1-12.367-2.926l-.422.824-.004.002A28 28 0 0 0 32 60a28 28 0 0 0 12.777-3.115z" color="#000" overflow="visible" fill="#878787"/><path style="isolation:auto;mix-blend-mode:normal;solid-color:#000;solid-opacity:1" d="M56.902 44.79l-.437-.226a28 28 0 0 1-12.088 11.54l.4.78A28 28 0 0 0 56.902 44.79z" color="#000" overflow="visible" fill="#600404"/><path style="isolation:auto;mix-blend-mode:normal;solid-color:#000;solid-opacity:1" d="M59.979 31.414a28 28 0 0 1-3.514 13.15l.437.225A28 28 0 0 0 60 32a28 28 0 0 0-.021-.586zM20.484 26.03l-.037.036-.377-.193A13 13 0 0 0 19 31a13 13 0 0 0 .021.578 13 13 0 0 1 1.463-5.549z" color="#000" overflow="visible" fill="#878787"/><path style="isolation:auto;mix-blend-mode:normal;solid-color:#000;solid-opacity:1" d="M26.018 20.482l.044-.044-.4-.782a13 13 0 0 0-5.592 6.217l.377.193.037-.037a13 13 0 0 1 5.534-5.547z" color="#000" overflow="visible" fill="#ac0808"/><path style="isolation:auto;mix-blend-mode:normal;solid-color:#000;solid-opacity:1" d="M43.54 26.04a13 13 0 0 1 1.439 5.38A13 13 0 0 0 45 31a13 13 0 0 0-1.059-5.133l-.379.195-.023-.023zm-5.204-6.374A13 13 0 0 0 32 18a13 13 0 0 0-6.338 1.656l.4.782-.044.044A13 13 0 0 1 32 19a13 13 0 0 1 5.941 1.455l-.008-.008.403-.781z" color="#000" overflow="visible" fill="#878787"/><path style="isolation:auto;mix-blend-mode:normal;solid-color:#000;solid-opacity:1" d="M38.336 19.666l-.402.781.008.008a13 13 0 0 1 5.597 5.584l.024.023.379-.195a13 13 0 0 0-5.606-6.201z" color="#000" overflow="visible" fill="#ac0808"/></svg>