<svg xmlns="http://www.w3.org/2000/svg" xmlns:xlink="http://www.w3.org/1999/xlink" height="64" width="64"><defs><linearGradient id="b"><stop offset="0" stop-color="#2de3cc"/><stop offset="1" stop-color="#1388de"/></linearGradient><linearGradient id="a" y2="1320.4" gradientUnits="userSpaceOnUse" x2="638" gradientTransform="matrix(1.7492 0 0 1.7494 -1055.904 -2341.904)" y1="1320.4" x1="605.99"><stop stop-color="#1287de" offset="0"/><stop stop-color="#37a4f5" offset="1"/></linearGradient><linearGradient xlink:href="#a" id="d" x1="17" y1="34" x2="43" y2="34" gradientUnits="userSpaceOnUse"/><linearGradient xlink:href="#b" id="c" x1="4.004" y1="-32.004" x2="59.996" y2="-32.004" gradientUnits="userSpaceOnUse"/></defs><rect rx="27.996" height="55.999" width="55.992" y="-60.003" x="4.004" transform="rotate(90)" stroke-width="2.8" stroke="url(#c)" fill="none"/><path d="M32.393 46.777c-.724-.439-1.185-1.2-3.197-5.267-1.112-2.25-2.171-4.25-2.353-4.443-.204-.216-1.883-1.108-4.389-2.332-4.95-2.418-5.454-2.802-5.454-4.17 0-.64.312-1.25.8-1.57.169-.11 5.345-1.963 11.504-4.12 10.821-3.784 11.225-3.914 11.964-3.87.64.04.825.105 1.133.398.461.439.668 1.048.579 1.7-.096.7-7.866 22.647-8.156 23.035-.615.828-1.66 1.102-2.43.635" fill="none" stroke="url(#d)" stroke-width="2.5"/></svg>