<svg xmlns="http://www.w3.org/2000/svg" xmlns:xlink="http://www.w3.org/1999/xlink" viewBox="0 0 48 48"><defs><linearGradient gradientUnits="userSpaceOnUse" gradientTransform="rotate(-90 -12.814 58.78)" x2="47" x1="1" id="f"><stop offset="0" stop-color="#ff00cf"/><stop offset="1" stop-color="#b76ace"/></linearGradient><linearGradient id="e"><stop offset="0" stop-color="#ff00cf"/><stop offset="1" stop-color="#b76ace" stop-opacity="0"/></linearGradient><linearGradient id="d"><stop offset="0" stop-color="#ff00cf"/><stop offset="1" stop-color="#b76ace" stop-opacity="0"/></linearGradient><linearGradient id="c"><stop offset="0" stop-color="#ff00cf"/><stop offset="1" stop-color="#b76ace" stop-opacity="0"/></linearGradient><linearGradient id="b"><stop offset="0" stop-color="#ff00cf"/><stop offset="1" stop-color="#b76ace" stop-opacity="0"/></linearGradient><linearGradient id="a"><stop offset="0" stop-color="#ff00cf"/><stop offset="1" stop-color="#b76ace" stop-opacity="0"/></linearGradient><linearGradient xlink:href="#a" id="h" x1="16" y1="28" x2="26" y2="28" gradientUnits="userSpaceOnUse" gradientTransform="matrix(1.3765 0 0 1.2917 -7.8 -6.569)"/><linearGradient xlink:href="#b" id="i" x1="16" y1="24" x2="29" y2="24" gradientUnits="userSpaceOnUse" gradientTransform="matrix(1.3765 0 0 1.2917 -7.8 -6.569)"/><linearGradient xlink:href="#c" id="j" x1="16" y1="20" x2="24" y2="20" gradientUnits="userSpaceOnUse" gradientTransform="matrix(1.3765 0 0 1.2917 -7.8 -6.569)"/><linearGradient xlink:href="#d" id="k" x1="16" y1="16" x2="27" y2="16" gradientUnits="userSpaceOnUse" gradientTransform="matrix(1.3765 0 0 1.2917 -7.8 -6.569)"/><linearGradient xlink:href="#e" id="l" x1="16" y1="33" x2="32" y2="33" gradientUnits="userSpaceOnUse" gradientTransform="matrix(1.3765 0 0 1.2917 -7.8 -6.569)"/><linearGradient xlink:href="#f" id="g" x1="10.736" y1="24" x2="37.264" y2="24" gradientUnits="userSpaceOnUse" gradientTransform="matrix(1.09263 0 0 1.02531 -.987 -.176)"/></defs><path d="M12.675 7.64c-.677 0-1.204.494-1.204 1.13v31.323c0 .636.527 1.13 1.204 1.13h25.122c.677 0 1.204-.494 1.204-1.13V14.104l-6.883-6.459m-19.435 0" fill="none" stroke="url(#g)" stroke-width="2.218" stroke-linecap="round" stroke-linejoin="round"/><path d="M14.224 30.89H27.99v-2.584H14.224m0 2.584" fill="none" stroke="url(#h)" stroke-width="1.411" stroke-linecap="round" stroke-linejoin="round"/><path d="M14.224 25.723h17.894V23.14H14.224m0 2.583" fill="none" stroke="url(#i)" stroke-width="1.411" stroke-linecap="round" stroke-linejoin="round"/><path d="M14.224 20.556h11.012v-2.583H14.224m0 2.584" fill="none" stroke="url(#j)" stroke-width="1.411" stroke-linecap="round" stroke-linejoin="round"/><path d="M14.224 15.39h15.14v-2.585h-15.14m0 2.584" fill="none" stroke="url(#k)" stroke-width="1.411" stroke-linecap="round" stroke-linejoin="round"/><path d="M14.224 37.348h22.023v-2.583H14.224m0 2.583" fill="none" stroke="url(#l)" stroke-width="1.411" stroke-linecap="round" stroke-linejoin="round"/><path d="M31.894 8.251v6.459h6.882m-6.882-6.46" fill="none" stroke="#b76ace" stroke-width="1.811" stroke-linecap="round" stroke-linejoin="round"/></svg>