<svg xmlns="http://www.w3.org/2000/svg" xmlns:xlink="http://www.w3.org/1999/xlink" viewBox="0 0 48 48"><defs><linearGradient id="b"><stop offset="0" stop-color="#0096ff"/><stop offset="1" stop-color="#0ee0ff"/></linearGradient><linearGradient id="h"><stop offset="0" stop-color="#ff004e"/><stop offset="1" stop-color="#7100ff"/></linearGradient><linearGradient id="a"><stop offset="0" stop-color="#ff00d2"/><stop offset="1" stop-color="#5c00ff" stop-opacity=".943"/></linearGradient><linearGradient id="g"><stop offset="0" stop-color="#ff2700"/><stop offset="1" stop-color="#ff00a4"/></linearGradient><linearGradient id="f"><stop offset="0" stop-color="#ff9600"/><stop offset="1" stop-color="#ff0020"/></linearGradient><linearGradient id="e"><stop offset="0" stop-color="#ffef00"/><stop offset="1" stop-color="#ff4e00" stop-opacity=".985"/></linearGradient><linearGradient id="d"><stop offset="0" stop-color="#94ff00"/><stop offset="1" stop-color="#ffe800" stop-opacity=".969"/></linearGradient><linearGradient id="c"><stop offset="0" stop-color="#00ff92"/><stop offset="1" stop-color="#1f0"/></linearGradient><linearGradient xlink:href="#a" id="n" x1="10.385" y1="32.91" x2="22.618" y2="32.91" gradientUnits="userSpaceOnUse" gradientTransform="translate(3.069 4.165) scale(.8761)"/><linearGradient xlink:href="#b" id="p" x1="4.946" y1="29.06" x2="20.353" y2="29.06" gradientUnits="userSpaceOnUse" gradientTransform="translate(3.069 4.165) scale(.8761)"/><linearGradient xlink:href="#c" id="i" x1="2.643" y1="22.28" x2="19.839" y2="22.28" gradientUnits="userSpaceOnUse" gradientTransform="translate(3.069 4.165) scale(.8761)"/><linearGradient xlink:href="#d" id="j" x1="4.946" y1="15.5" x2="20.353" y2="15.5" gradientUnits="userSpaceOnUse" gradientTransform="translate(3.069 4.165) scale(.8761)"/><linearGradient xlink:href="#e" id="k" x1="11.24" y1="11.651" x2="21.757" y2="11.651" gradientUnits="userSpaceOnUse" gradientTransform="translate(3.069 4.165) scale(.8761)"/><linearGradient xlink:href="#f" id="l" x1="19.839" y1="10.242" x2="26.718" y2="10.242" gradientUnits="userSpaceOnUse" gradientTransform="translate(3.069 4.165) scale(.8761)"/><linearGradient xlink:href="#g" id="m" x1="24.801" y1="11.651" x2="35.317" y2="11.651" gradientUnits="userSpaceOnUse" gradientTransform="translate(3.069 4.165) scale(.8761)"/><linearGradient xlink:href="#h" id="o" x1="26.204" y1="15.5" x2="41.611" y2="15.5" gradientUnits="userSpaceOnUse" gradientTransform="translate(3.069 4.165) scale(.8761)"/></defs><path d="M8.397 20.671a3.013 3.013 0 1 0 2.13 5.144l9.546-1.754c.205-.037.377-.168.377-.376 0-.209-.172-.34-.377-.377l-9.545-1.754a3.003 3.003 0 0 0-2.13-.883z" fill="none" stroke="url(#i)" stroke-width=".907"/><path d="M11.923 13.542a3.013 3.013 0 1 0-.727 5.52l9.143 3.254c.196.07.411.042.515-.138.104-.18.02-.38-.138-.514l-7.39-6.292a3.004 3.004 0 0 0-1.404-1.83z" fill="none" stroke="url(#j)" stroke-width=".907"/><path d="M18.54 9.13a3.013 3.013 0 1 0-3.39 4.418l6.292 7.39c.135.158.334.242.515.138.18-.104.207-.319.137-.515l-3.254-9.144a3 3 0 0 0-.3-2.286z" fill="none" stroke="url(#k)" stroke-width=".907"/><path d="M26.476 8.619a3.013 3.013 0 1 0-5.143 2.13l1.754 9.546c.037.204.168.376.376.376s.34-.172.377-.376l1.754-9.546a3.003 3.003 0 0 0 .883-2.13z" fill="none" stroke="url(#l)" stroke-width=".907"/><path d="M33.606 12.144a3.013 3.013 0 1 0-5.52-.727l-3.254 9.144c-.07.196-.043.41.138.514.18.104.38.02.514-.137l6.292-7.39a3.004 3.004 0 0 0 1.83-1.404z" fill="none" stroke="url(#m)" stroke-width=".907"/><path d="M18.54 38.238a3.013 3.013 0 1 1-3.39-4.417l6.292-7.39c.135-.158.334-.241.515-.137.18.104.207.318.137.514l-3.254 9.144a3 3 0 0 1-.3 2.286z" fill="none" stroke="url(#n)" stroke-width=".907"/><path d="M38.017 18.761a3.013 3.013 0 1 0-4.417-3.39l-7.39 6.292c-.158.135-.242.335-.138.515.104.18.319.208.515.138l9.144-3.254c.744.2 1.565.115 2.286-.301z" fill="none" stroke="url(#o)" stroke-width=".907"/><path d="M11.923 33.827a3.013 3.013 0 1 1-.727-5.52l9.143-3.254c.196-.07.411-.042.515.138.104.18.02.38-.138.514l-7.39 6.292a3.004 3.004 0 0 1-1.403 1.83z" fill="none" stroke="url(#p)" stroke-width=".907"/><path d="M31.69 24.316a.772.772 0 0 0-.777.773v1.067a6.53 6.53 0 0 0-1.14.46l-.753-.75a.792.792 0 0 0-1.111 0l-1.648 1.648a.792.792 0 0 0 0 1.11l.749.755a6.46 6.46 0 0 0-.46 1.139h-1.066a.772.772 0 0 0-.773.778v2.322c0 .431.342.778.773.778h1.066c.123.392.27.777.46 1.14l-.749.748a.798.798 0 0 0 0 1.116l1.648 1.644a.792.792 0 0 0 1.11 0l.754-.75c.357.191.744.343 1.14.46v1.067c0 .431.347.778.777.778h2.323c.43 0 .778-.347.778-.778v-1.067a6.353 6.353 0 0 0 1.14-.46l.748.75a.798.798 0 0 0 1.115 0L39.44 37.4a.798.798 0 0 0 0-1.116l-.75-.749c.191-.362.343-.749.46-1.14h1.067c.43 0 .778-.346.778-.777v-2.322a.776.776 0 0 0-.778-.778H39.15a6.16 6.16 0 0 0-.46-1.14l.75-.753a.792.792 0 0 0 0-1.11l-1.645-1.649a.798.798 0 0 0-1.115 0l-.749.75a6.755 6.755 0 0 0-1.14-.46v-1.067a.772.772 0 0 0-.777-.773s-.073.04-2.323 0zm1.159 6.202c1.07 0 1.942.87 1.942 1.937 0 1.07-.87 1.942-1.942 1.942a1.942 1.942 0 0 1-1.937-1.942 1.94 1.94 0 0 1 1.937-1.937" fill="none" stroke="#000" stroke-width="1.252"/></svg>