<svg xmlns="http://www.w3.org/2000/svg" viewBox="0 0 48 48"><path d="M23.99 2.11a21.33 21.33 0 0 0 0 42.658zm-9.274 13.91h1.855v3.71h1.855v-3.71h1.855v3.71h1.854v1.854h-1.854v3.71h1.854v1.854h-1.854v3.71h-1.855v-3.71H16.57v3.71h-1.855v-3.71h-1.854v-1.854h1.854v-3.71h-1.854V19.73h1.854zm1.855 5.564v3.71h1.855v-3.71z" fill="#89ff60"/><path d="M31.148 12.58v6.227h-3.736v2.49h3.736v9.963a3.736 3.736 0 0 0 3.736 3.736h2.49v-2.49h-2.49a1.245 1.245 0 0 1-1.245-1.246v-9.962h3.736v-2.49h-3.736V12.58z" opacity=".1"/><path d="M29.903 11.335v6.227h-3.736v2.49h3.736v9.963a3.736 3.736 0 0 0 3.736 3.736h2.49V31.26h-2.49a1.245 1.245 0 0 1-1.245-1.245v-9.963h3.735v-2.49h-3.735v-6.227z" fill="#141414"/></svg>